SplineFontDB: 3.2
FontName: Machaut
FullName: Machaut
FamilyName: Machaut
Weight: Regular
Copyright: (c) Robert Piechaud 2021. Machaut font is dedicated to medieval music and designed for the package MEDIEVAL for FINALE. This font can be freely distributed separately.
Version: 1.00
ItalicAngle: 0
UnderlinePosition: -82
UnderlineWidth: 9
Ascent: 800
Descent: 200
InvalidEm: 0
LayerCount: 2
Layer: 0 0 "Back" 1
Layer: 1 0 "Fore" 0
UniqueID: 4909797
FSType: 0
OS2Version: 0
OS2_WeightWidthSlopeOnly: 0
OS2_UseTypoMetrics: 0
CreationTime: 1241828086
ModificationTime: 1645972288
PfmFamily: 17
TTFWeight: 400
TTFWidth: 5
LineGap: 90
VLineGap: 0
OS2TypoAscent: 0
OS2TypoAOffset: 1
OS2TypoDescent: 0
OS2TypoDOffset: 1
OS2TypoLinegap: 90
OS2WinAscent: 0
OS2WinAOffset: 1
OS2WinDescent: 0
OS2WinDOffset: 1
HheadAscent: 0
HheadAOffset: 1
HheadDescent: 0
HheadDOffset: 1
OS2Vendor: 'PfEd'
OS2CodePages: 80000000.00000000
MarkAttachClasses: 1
DEI: 91125
LangName: 1033
Encoding: Custom
UnicodeInterp: none
NameList: Adobe Glyph List
DisplaySize: -72
AntiAlias: 1
FitToEm: 1
WinInfo: 36 12 5
BeginPrivate: 9
BlueValues 17 [ -12 7 107 130 ]
BlueScale 7 0.04438
BlueShift 1 7
BlueFuzz 1 1
StdHW 6 [ 19 ]
StdVW 6 [ 26 ]
ForceBold 5 false
StemSnapH 9 [ 19 30 ]
StemSnapV 9 [ 26 58 ]
EndPrivate
Grid
-1000 -1090 m 0
 2000 -1090 l 1024
  Named: "brevis lower -oct"
-1000 -965.5 m 0
 2000 -965.5 l 1024
  Named: "brevis lower -7"
-1000 -840 m 0
 2000 -840 l 1024
  Named: "brevis lower -6"
-1000 -715.5 m 0
 2000 -713 l 1024
  Named: "brevis lower -5"
-1000 1090.75 m 0
 2000 1090.75 l 1024
  Named: "brevis upper oct."
-1000 965 m 0
 2000 980 l 1024
  Named: "brevis upper +-7"
-1000 840.75 m 0
 2000 842 l 1024
  Named: "brevis upper +-6"
-1000 535 m 0
 2000 535 l 1024
  Named: "brevis lower +-5"
-1000 715 m 0
 2000 715 l 1024
  Named: "bevis upper +-5"
-1000 410 m 0
 2000 410 l 1024
  Named: "brevis lower +-4"
-1000 590 m 0
 2000 590 l 1024
  Named: "brevius upper +-4"
-1000 -285 m 0
 2000 -285 l 1024

StartChar: plicaSemibrevisAscBlack
Encoding: 34 34 2
AltUni2: 00f022.ffffffff.0 00e998.ffffffff.0
Width: 160
VWidth: 1592
Flags: HMW
HStem: -267 32G
LayerCount: 2
Fore
SplineSet
359 355 m 1
 329 304 294 244 257 173 c 0
 209 80 152 -30 89 -156 c 1
 68 -124 37 -73 1 0 c 5
 22 33 47 82 78 150 c 1
 92 119 113 82 144 27 c 0
 147 22 148 18 151 18 c 0
 153 18 155 20 158 24 c 0
 189 78 221 139 256 204 c 0
 278 246 303 288 329 335 c 0
 332 339 332 346 335 350 c 0
 338 356 341 360 345 367 c 1
 347 368 348 369 350 369 c 0
 355 367 l 0
 358 365 359 361 359 355 c 1
EndSplineSet
Comment: "plicaSemibrevisAsc"
EndChar

StartChar: plicaSemibrevisDescBlack
Encoding: 35 35 3
AltUni2: 00f023.ffffffff.0
Width: 167
VWidth: 1528
Flags: HMW
HStem: 11 31G
LayerCount: 2
Fore
SplineSet
372 -343 m 5
 372 -349 371 -352 368 -354 c 4
 363 -356 l 4
 361 -356 359 -355 357 -354 c 5
 353 -347 350 -344 346 -338 c 4
 343 -334 343 -328 340 -324 c 4
 316 -279 293 -235 270 -195 c 4
 233 -132 199 -76 165 -23 c 4
 162 -19 160 -17 158 -17 c 4
 155 -17 154 -21 150 -26 c 4
 118 -79 95 -114 81 -144 c 5
 49 -79 22 -32 0 0 c 5
 38 70 73 119 93 150 c 5
 212 -62 304 -229 372 -343 c 5
EndSplineSet
Comment: "plicaSemibrevisDesc"
EndChar

StartChar: cross
Encoding: 37 37 5
AltUni2: 00f025.ffffffff.0
Width: 192
Flags: MW
HStem: 0 39 655 39
VStem: 13 76 451 76
LayerCount: 2
Fore
SplineSet
14 -101 m 5
 7 -99 2 -94 0 -87 c 5
 0 -87 72 -15 72 -15 c 6
 75.6348151111 -11.3651848889 77.3822186663 -8 77.3822186663 -4.76443733252 c 0
 77.3822186663 -1.76888838089 75.8844441904 1.11555580955 73 4 c 6
 73 4 -2 78 -2 78 c 5
 2 86 7 91 12 93 c 5
 12 93 84 21 84 21 c 6
 88 17 92 15 96 15 c 0
 108 21 l 6
 108 21 180 93 180 93 c 5
 186 90 191 86 195 79 c 5
 195 79 119 4 119 4 c 6
 115.86335345 0.86335345031 114.366465497 -2.27329309938 114.366465497 -5.2670690062 c 0
 114.366465497 -8 115.613872125 -10.6138721247 118 -13 c 6
 118 -13 193 -88 193 -88 c 5
 190 -94 185 -99 179 -102 c 5
 179 -102 103 -26 103 -26 c 6
 100.838821814 -23.8388218142 98.6776436283 -22.7986095045 96.4357118758 -22.7986095045 c 0
 93.4908159823 -22.7986095045 90.406586177 -24.593413823 87 -28 c 6
 87 -28 14 -101 14 -101 c 5
EndSplineSet
Validated: 1
EndChar

StartChar: mensuralProlation1
Encoding: 38 38 6
AltUni2: 00f026.ffffffff.0 00e910.ffffffff.0
Width: 302
VWidth: 600
Flags: HW
LayerCount: 2
Fore
SplineSet
176 -23 m 4
 170 -30 162 -33 152 -33 c 4
 144 -33 137 -30 131 -26 c 4
 123 -20 119 -13 119 -1 c 4
 119 9 122 16 128 23 c 4
 134 29 141 33 151 33 c 4
 159 33 167 30 173 25 c 4
 180 19 184 10 184 -1 c 4
 184 -10 181 -18 176 -23 c 4
246 -86 m 4
 264 -66 276 -37 276 -4 c 4
 276 39 258 72 234 95 c 4
 210 115 182 127 150 127 c 4
 111 127 84 113 61 89 c 4
 37 64 26 36 26 -2 c 4
 26 -47 43 -77 73 -100 c 4
 96 -117 124 -127 153 -127 c 4
 192 -127 223 -110 246 -86 c 4
255 -112 m 4
 228 -137 192 -152 153 -152 c 4
 113 -152 75 -136 47 -110 c 4
 19 -84 0 -50 0 -12 c 4
 0 46 16 84 52 116 c 4
 78 139 112 152 147 152 c 4
 193 152 231 136 260 105 c 4
 285 79 302 42 302 -2 c 4
 302 -46 281 -88 255 -112 c 4
EndSplineSet
EndChar

StartChar: mensuralProlation2
Encoding: 39 39 7
AltUni2: 00f027.ffffffff.0 00e911.ffffffff.0
Width: 302
VWidth: 600
Flags: HMW
LayerCount: 2
Fore
SplineSet
246 -86 m 0
 264 -66 276 -37 276 -4 c 0
 276 39 258 72 234 95 c 0
 210 115 182 127 150 127 c 0
 111 127 84 113 61 89 c 0
 37 64 26 36 26 -2 c 0
 26 -47 43 -77 73 -100 c 0
 96 -117 124 -127 153 -127 c 0
 192 -127 223 -110 246 -86 c 0
255 -112 m 0
 228 -137 192 -152 153 -152 c 0
 113 -152 75 -136 47 -110 c 0
 19 -84 0 -50 0 -12 c 0
 0 46 16 84 52 116 c 0
 78 139 112 152 147 152 c 0
 193 152 231 136 260 105 c 0
 285 79 302 42 302 -2 c 0
 302 -46 281 -88 255 -112 c 0
EndSplineSet
EndChar

StartChar: mensuralProlation6
Encoding: 41 41 9
AltUni2: 00f029.ffffffff.0 00e915.ffffffff.0
Width: 283
VWidth: 600
Flags: HMW
LayerCount: 2
Fore
SplineSet
283 96 m 1
 283 87 278 84 271 84 c 0
 269 84 266 84 264 86 c 0
 245 119 197 127 149 127 c 0
 80 127 26 75 26 4 c 0
 26 -71 81 -127 152 -127 c 0
 190 -127 214 -121 237 -104 c 0
 246 -97 256 -94 261 -82 c 1
 264 -80 267 -79 269 -79 c 0
 277 -79 283 -86 283 -93 c 0
 283 -94 283 -94 283 -94 c 0
 275 -109 261 -122 246 -132 c 0
 220 -150 190 -152 155 -152 c 0
 68 -152 0 -88 0 2 c 0
 0 87 67 152 149 152 c 0
 189 152 224 147 255 125 c 0
 267 116 279 108 283 96 c 1
EndSplineSet
EndChar

StartChar: mensuralProlation7
Encoding: 42 42 10
AltUni2: 00f02a.ffffffff.0 00e916.ffffffff.0
Width: 284
VWidth: 600
Flags: HW
LayerCount: 2
Fore
SplineSet
22 -64 m 5
 30 -78 40 -90 54 -100 c 4
 77 -117 106 -127 135 -127 c 4
 174 -127 205 -110 228 -86 c 4
 247 -66 258 -37 258 -4 c 4
 258 40 240 72 216 95 c 4
 192 116 164 127 132 127 c 4
 94 127 66 113 43 89 c 4
 35 81 28 73 23 64 c 5
 20 62 17 61 15 61 c 4
 9 61 0 70 0 74 c 0
 0 75 0 75 1 76 c 1
 9 91 20 104 34 116 c 0
 60 139 94 152 129 152 c 0
 175 152 213 136 242 105 c 0
 267 79 284 42 284 -2 c 0
 284 -46 263 -88 237 -112 c 0
 210 -137 174 -152 135 -152 c 0
 95 -152 57 -136 29 -110 c 0
 18 -100 11 -87 3 -74 c 5
 5 -67 11 -64 16 -64 c 4
 18 -64 20 -63 22 -64 c 5
EndSplineSet
EndChar

StartChar: chantCustosStemUpPosMiddle
Encoding: 43 43 11
AltUni2: 00f02b.ffffffff.0 00ea06.ffffffff.0
Width: 53
Flags: MW
HStem: -9 19
VStem: 139 19
LayerCount: 2
Fore
SplineSet
41 187 m 5
 42.6027526411 187.961651585 44.1027526411 188.409539964 45.5 188.409539964 c 0
 48.4616515847 188.409539964 50.9616515847 186.397247359 53 183 c 5
 53 -82 l 5
 36.5220551318 -75.591910329 20.0441102635 -64.9936560426 4.33333541217 -50.9724071576 c 4
 0.219386483435 -47.3008694788 0 -44.8936688837 0 -36.6666666667 c 6
 0 50.25 l 6
 0 52.1176011022 -0.0641435275673 53.8603628072 -0.0641435275673 55.384262105 c 0
 -0.0641435275673 58.9237320675 0.281888872104 61.2825141749 2.58137128294 61.2825141749 c 0
 3.35463695362 61.2825141749 4.34880458887 61.0157760457 5.625 60.4375 c 6
 33.625 47.75 l 6
 35.5274666392 46.8901892276 37.0421896471 46.4147708989 38.2272369914 46.4147708989 c 0
 40.8801469122 46.4147708989 41.8808649128 48.797362058 41.8808649128 54.5837785001 c 0
 41.8808649128 54.8407748599 41.8788909167 55.1044855366 41.875 55.375 c 4
 41.001953125 116.073242188 41 158.322959131 41 187 c 5
EndSplineSet
Validated: 1
Comment: "chantCustosStemUpPosMiddle"
EndChar

StartChar: chantCustosStemUpPosLow
Encoding: 44 44 12
AltUni2: 00f02c.ffffffff.0 00ea05.ffffffff.0
Width: 53
Flags: MW
HStem: -71 125
VStem: 156 53
LayerCount: 2
Fore
SplineSet
41 296 m 5
 41.8856217223 296.177124344 42.7398704113 296.260129589 43.5627460668 296.260129589 c 0
 47.3856217223 296.260129589 50.5313730334 294.468626967 53 292 c 5
 53 -82 l 5
 37.3026361746 -77.3831282866 21.6052723492 -67.6505355131 4.33333333333 -51.2276464888 c 4
 0.708641786574 -47.7811366925 0 -46.2468162472 0 -38.6666666667 c 6
 0 54.6666666667 l 6
 0 59.7358372211 0.232360340276 61.8796087571 1.59577328902 61.8796087571 c 0
 2.48236769141 61.8796087571 3.8472373875 60.9730965813 5.9375 59.375 c 4
 15.9228515625 51.7421875 24.8739926492 47.5893720617 36 45.0763205494 c 4
 37.0466871452 44.8399034206 37.9113114426 44.7231562598 38.6251994112 44.7231562598 c 0
 41.6292016161 44.7231562598 41.9641440306 46.7903762522 41.9641440306 50.7070398812 c 0
 41.9641440306 51.706339581 41.9423403852 52.8260319558 41.9375 54.0625 c 6
 41 296 l 5
EndSplineSet
Validated: 1
EndChar

StartChar: chantCustosInclinatus
Encoding: 45 45 13
AltUni2: 00f02d.ffffffff.0
Width: 154
Flags: MW
HStem: 15 19
LayerCount: 2
Fore
SplineSet
49 -22 m 1
 30 -19 21 -9 21 10 c 0
 21 14 22 17 24 20 c 0
 51 55 91 99 145 150 c 1
 145 150 145 146 145 137 c 1
 108 102 84 76 74 61 c 0
 73 60 73 58 73 56 c 0
 73 43 79 37 90 38 c 1
 183 136 302 260 447 409 c 1
 448 400 449 395 448 394 c 0
 277 221 144 83 49 -22 c 1
EndSplineSet
Validated: 1
EndChar

StartChar: mensuralCustosUp
Encoding: 46 46 14
AltUni2: 00f02e.ffffffff.0 00ea02.ffffffff.0
Width: 154
Flags: MW
HStem: -17 76
VStem: 32 79
LayerCount: 2
Fore
SplineSet
0 -6 m 5
 0.25 2.5458984375 l 6
 0.25 4.15625 1.4208984375 5.44140625 2.1875 6.1875 c 6
 38 41 l 6
 40.2408898617 43.1783170209 42.2372377116 44.6521234981 43.5454543895 45.7983776336 c 4
 44.2511959847 46.4167455506 44.9009946077 46.6951413221 45.5353384026 46.6951413221 c 0
 46.3536389576 46.6951413221 47.1462213178 46.2318662481 48 45.4375 c 4
 50.2470703125 43.3466796875 54.4720661624 38.3032005501 63 29 c 4
 68.3492871639 23.164414003 72.5934185527 18.8227465982 75.5005631659 15.75 c 4
 77.1636638613 13.9921627803 78.7668919539 13.1575557028 80.3749741333 13.1575557028 c 0
 81.8941260185 13.1575557028 83.4176099536 13.9024042563 84.9999969833 15.3173832946 c 4
 90.5200564637 20.2534503299 100.996986922 30.0234003074 116.636363636 43.9055201546 c 4
 117.795637443 44.934536733 118.642085362 45.4887137426 119.446363801 45.4887137426 c 0
 120.294804921 45.4887137426 121.09631839 44.8720064714 122.168638551 43.5454545455 c 4
 123.106856508 42.3847985357 124.437611115 40.9529861065 126 39 c 4
 135.888389774 27.3666002653 143.408399735 19.1166002653 148.166425465 14.25 c 4
 151.495088064 10.8453798469 152.851262421 8.86497106098 154.458802444 8.86497106098 c 0
 155.589880373 8.86497106098 156.845400429 9.84540042858 159 12 c 4
 196 51 267 123 373 230 c 4
 474.575810919 331.575810919 541.005480761 397.104297656 574.000007743 428.29645843 c 4
 575.714558725 429.917349977 577.085364079 431.323617908 578.008102444 431.323617908 c 4
 578.617554579 431.323617908 579.348319021 430.669429427 579.348319021 429.123382746 c 0
 579.348319021 428.882063039 579.330515013 428.619014509 579.291666667 428.333333333 c 6
 579.416876087 428.04163636 579.470872785 427.740798759 579.470872785 427.423323291 c 0
 579.470872785 425.431849949 577.34618143 422.785700774 577.34618143 417.634353333 c 0
 577.34618143 416.868628177 577.393127581 416.047549373 577.500976562 415.165039062 c 5
 373.500976562 220.165039062 232.047860156 74.0478601564 138 -20 c 4
 136.413650221 -21.5863497795 134.892448663 -22.9236192496 133.636363736 -23.9439021893 c 4
 132.594149058 -24.7904642588 131.590455552 -25.4564079598 130.693787144 -25.4564079598 c 0
 130.214856349 -25.4564079598 129.76645841 -25.2664229644 129.359031828 -24.8125 c 4
 126.749023073 -21.9046315341 118.744866855 -13.0813808773 101.908203125 3.0908203125 c 4
 99.7447103818 5.16934720994 97.9563546655 6.29914753896 96.1760757547 6.29914753896 c 0
 94.9075473748 6.29914753896 93.6431197507 5.72552530288 92.2500003223 4.51277319232 c 4
 89.0772087965 1.75076331672 84.4836929392 -2.51630706077 79 -8 c 4
 70.5958191697 -15.7038324278 65.0442016373 -20.8536683373 62.272727031 -23.4106666029 c 4
 61.5626386564 -24.0658033081 60.977678126 -24.3931385962 60.3843832533 -24.3931385962 c 0
 59.6327975905 -24.3931385962 58.8678371334 -23.8678371334 57.8181818182 -22.8181818182 c 6
 54 -19 l 6
 31 6 l 6
 28.0145378559 9.24506754792 26.0504954872 11.5178121761 23.2075936909 11.5178121761 c 0
 21.8901658255 11.5178121761 20.3840042878 11.0297438613 18.5 9.92419385404 c 4
 13.2612364614 6.85004210949 8.83090780197 2.94912400129 0 -6 c 5
EndSplineSet
Validated: 1
Comment: "mensuralCustosUp"
EndChar

StartChar: pesPorrectusFinal2ndBlack
Encoding: 56 56 24
AltUni2: 00f038.ffffffff.0
Width: 5
Flags: HMW
HStem: -390 42 38 216 351 36
VStem: 26.8343 177 569.834 99
LayerCount: 2
Fore
SplineSet
4.9326171875 64.2666015625 m 0
 4.9462890625 35.484375 5.25 -3.6689453125 5.25 -31.6416015625 c 0
 5.25 -68.41015625 4.9716796875 -92.5322265625 4.9716796875 -124.772460938 c 4
 4.9716796875 -169.413085938 5.244140625 -202.711914062 5.25 -238.5 c 4
 5.25 -240.775390625 6.080078125 -244.750976562 6.080078125 -246.25 c 4
 6.080078125 -249.979492188 5.8466796875 -251 -0.0849609375 -251 c 4
 -4.380859375 -251 -6.49609375 -249.787109375 -6.49609375 -246.93359375 c 4
 -6.49609375 -244.0703125 -5.8134765625 -241.120117188 -5.8134765625 -238.37109375 c 4
 -4.380859375 -180.1484375 -4.380859375 -171.422851562 -4.380859375 -105.780273438 c 2
 -4.380859375 -104.723632812 l 2
 -4.380859375 -98.453125 -3.810546875 -78.3544921875 -3.810546875 -63.0712890625 c 0
 -3.810546875 -55.412109375 -3.9541015625 -51.4619140625 -4.3837890625 -48.568359375 c 0
 -5.025390625 -44.25390625 -9.5205078125 -37.9814453125 -16.65625 -37.9814453125 c 0
 -32.2216796875 -37.9814453125 -51.6083984375 -37.2109375 -70.8359375 -37.2109375 c 0
 -79.9921875 -37.2109375 -86.4013671875 -36.87109375 -95.5576171875 -36.87109375 c 0
 -98.3037109375 -36.87109375 -99.2197265625 -36.87109375 -102.881835938 -36.87109375 c 0
 -119.36328125 -36.87109375 -137.174804688 -37.62109375 -144.5 -39.1416015625 c 0
 -147.463867188 -39.7568359375 -147.453125 -39.828125 -148.188476562 -39.828125 c 0
 -152.779296875 -39.828125 -153.240234375 -38.1748046875 -153.240234375 -31.5810546875 c 2
 -153.240234375 -31.5810546875 -153.240234375 -30.7412109375 -153.240234375 -29.9013671875 c 0
 -153.240234375 -6.3818359375 -151.409179688 16.298828125 -151.409179688 39.818359375 c 0
 -151.409179688 59.978515625 -152.32421875 87.48828125 -153.240234375 109.328125 c 0
 -153.240234375 114.368164062 -151.409179688 116.048828125 -147.74609375 116.048828125 c 0
 -133.096679688 116.888671875 -111.122070312 118.1484375 -84.5703125 118.1484375 c 0
 -80.9072265625 118.1484375 -77.2451171875 118.1484375 -73.5830078125 118.1484375 c 0
 -60.7646484375 118.1484375 -52.2802734375 118.1484375 -39.4619140625 117.518554688 c 0
 -28.4521484375 116.977539062 -30.9033203125 116.888671875 -20.83203125 116.888671875 c 0
 -3.134765625 116.888671875 5.25 104.435546875 5.25 87.599609375 c 0
 5.25 74.572265625 5.1787109375 77.162109375 4.9326171875 64.2666015625 c 0
EndSplineSet
Comment: "L for final ascending 2nd with oblique before (stacked porrectus style)"
EndChar

StartChar: pesFinal2ndBlack
Encoding: 57 57 25
AltUni2: 00f039.ffffffff.0
Width: 6
Flags: HMW
HStem: -390 42 38 216 351 36
VStem: 26.8343 177 569.834 99
LayerCount: 2
Fore
SplineSet
5.6826171875 74.6669921875 m 0
 5.6962890625 45.884765625 6 6.7314453125 6 -21.2412109375 c 0
 6 -58.009765625 5.7216796875 -92.5322265625 5.7216796875 -124.772460938 c 0
 5.7216796875 -169.413085938 6.01138742778 -168.676532822 6.05078125 -204.465820312 c 0
 6.052734375 -206.240234375 6.580078125 -209.500976562 6.58007863941 -211.812028794 c 0
 6.58007863941 -215.490821819 6.56366138671 -216.5 0.6650390625 -216.5 c 0
 -3.630859375 -216.5 -5.74609375 -215.287109375 -5.74609375 -212.43359375 c 0
 -5.74609375 -209.5703125 -5.0634765625 -206.620117188 -5.0634765625 -203.87109375 c 0
 -3.630859375 -145.6484375 -3.630859375 -161.022460938 -3.630859375 -95.3798828125 c 2
 -3.630859375 -94.3232421875 l 2
 -3.630859375 -88.052734375 -3.060546875 -67.9541015625 -3.060546875 -52.6708984375 c 0
 -3.060546875 -45.01171875 -3.2041015625 -41.0615234375 -3.6337890625 -38.16796875 c 0
 -4.275390625 -33.853515625 -7.5205078125 -27.5810546875 -14.65625 -27.5810546875 c 0
 -30.2216796875 -27.5810546875 -50.8583984375 -26.810546875 -70.0859375 -26.810546875 c 0
 -79.2421875 -26.810546875 -85.6513671875 -26.470703125 -94.8076171875 -26.470703125 c 0
 -97.5537109375 -26.470703125 -98.4697265625 -26.470703125 -102.131835938 -26.470703125 c 0
 -118.61328125 -26.470703125 -136.424804688 -27.220703125 -143.75 -28.7412109375 c 0
 -146.713867188 -29.3564453125 -146.703125 -29.427734375 -147.438476562 -29.427734375 c 0
 -152.029296875 -29.427734375 -152.490234375 -27.7744140625 -152.490234375 -21.1806640625 c 2
 -152.490234375 -21.1806640625 -152.490234375 -20.3408203125 -152.490234375 -19.5009765625 c 0
 -152.490234375 4.0185546875 -150.659179688 26.69921875 -150.659179688 50.21875 c 0
 -150.659179688 70.37890625 -151.57421875 97.888671875 -152.490234375 119.728515625 c 0
 -152.490234375 124.768554688 -150.659179688 126.44921875 -146.99609375 126.44921875 c 0
 -132.346679688 127.2890625 -110.372070312 128.548828125 -83.8203125 128.548828125 c 0
 -80.1572265625 128.548828125 -76.4951171875 128.548828125 -72.8330078125 128.548828125 c 0
 -60.0146484375 128.548828125 -51.5302734375 128.548828125 -38.7119140625 127.918945312 c 0
 -27.7021484375 127.377929688 -30.1533203125 127.2890625 -20.08203125 127.2890625 c 0
 -2.384765625 127.2890625 6 114.8359375 6 98 c 0
 6 84.97265625 5.9287109375 87.5625 5.6826171875 74.6669921875 c 0
EndSplineSet
Comment: "for ascending 2nd B-L in stacked (anticus) style"
EndChar

StartChar: pesFinal8vaBlack
Encoding: 63 63 30
AltUni2: 00f03f.ffffffff.0
Width: 5
Flags: HMW
HStem: -390 42 38 216 351 36
VStem: 8.25 177 551.25 99
LayerCount: 2
Fore
SplineSet
-8.0322265625 -957.616210938 m 0
 -8.0322265625 -954.853515625 -7.2724609375 -949.328125 -7.2724609375 -946.564453125 c 0
 -7.2724609375 -943.80078125 -6.5126953125 -939.65625 -6.5126953125 -936.892578125 c 0
 -4.994140625 -795.977539062 -4.994140625 -473.41796875 -4.994140625 -314.54296875 c 2
 -4.994140625 -311.984375 l 2
 -4.994140625 -166.5390625 -4.99609375 -53.814453125 -5.7509765625 69.7978515625 c 1
 -5.6796875 76.6865234375 -2.5234375 77.7412109375 -0.2451171875 77.7412109375 c 0
 2.890625 77.7412109375 4.880859375 76.4560546875 4.880859375 72.560546875 c 0
 4.880859375 60.169921875 4.8779296875 54.60546875 4.8779296875 40.7900390625 c 0
 4.8779296875 -203.740234375 5.05078125 -742.046875 6.017578125 -876.139648438 c 0
 6.376953125 -926.059570312 8.111328125 -917.505859375 9.2509765625 -954.063476562 c 0
 9.5810546875 -964.649414062 6.2734375 -968.668945312 -0.4375 -968.668945312 c 0
 -4.994140625 -968.668945312 -8.0322265625 -964.524414062 -8.0322265625 -957.616210938 c 0
EndSplineSet
Refer: 279 -1 N 1 0 0 1 0 0 2
EndChar

StartChar: connectingStem2ndUp
Encoding: 64 64 31
AltUni2: 00f040.ffffffff.0
Width: 0
Flags: MW
VStem: -3407 28
LayerCount: 2
Fore
SplineSet
-7.25 213.333007812 m 5
 -4.9130859375 214.75390625 -2.7890625 215.376953125 -0.8154296875 215.376953125 c 4
 2.333984375 215.376953125 5.1025390625 213.791015625 7.75 211.333007812 c 5
 7.75 207.166992188 l 4
 7.75 196.106445312 7.71875 182.841796875 7.71875 173.38671875 c 0
 7.71875 168.66015625 7.7265625 164.010742188 7.75 159.31640625 c 0
 7.8857421875 132.02734375 7.9775390625 103.174804688 7.9775390625 76.4052734375 c 0
 7.9775390625 53.720703125 7.9111328125 34.3466796875 7.75 11.56640625 c 0
 7.697265625 4.1005859375 7.677734375 -3.330078125 7.677734375 -10.7626953125 c 0
 7.677734375 -31.0703125 7.822265625 -44.3984375 7.822265625 -65.525390625 c 0
 7.822265625 -73.2578125 7.802734375 -78.5986328125 7.75 -86.5830078125 c 0
 7.75 -90.75 l 1
 5.8935546875 -93.654296875 2.84765625 -95.1552734375 -0.0966796875 -95.1552734375 c 0
 -2.9794921875 -95.1552734375 -5.7666015625 -93.7177734375 -7.25 -90.75 c 1
 -7.25 -83.9169921875 l 0
 -7.0078125 -74.32421875 -6.916015625 -67.080078125 -6.916015625 -57.2451171875 c 0
 -6.916015625 -44.4189453125 -7.0712890625 -38.4375 -7.25 -25.43359375 c 0
 -7.4619140625 -10.005859375 -7.5322265625 6.7763671875 -7.5322265625 26.6279296875 c 0
 -7.5322265625 66.33203125 -7.25 105.31640625 -7.25 105.31640625 c 1
 -7.25 126.416992188 -7.45703125 149.798828125 -7.45703125 171.609375 c 0
 -7.45703125 182.515625 -7.4052734375 197.028320312 -7.25 208.166992188 c 4
 -7.25 213.333007812 l 5
EndSplineSet
EndChar

StartChar: connectingStem3rdUp
Encoding: 65 65 32
AltUni2: 00f041.ffffffff.0
Width: 0
Flags: MW
HStem: -50 27 203 18 224 29 385 24
VStem: -736 68 -587 65 -455 266 -100 28
LayerCount: 2
Fore
SplineSet
-7.654296875 165.296875 m 0
 -7.654296875 200.768554688 -7.4130859375 236.751953125 -7.4130859375 271.854492188 c 0
 -7.4130859375 289.845703125 -7.8095703125 304.061523438 -7.8095703125 322.26171875 c 0
 -7.8095703125 328.135742188 -7.6015625 333.259765625 -7.5 339.137695312 c 1
 -5.75390625 339.887695312 -3.4990234375 340.663085938 -0.44140625 340.663085938 c 0
 1.755859375 340.663085938 4.8662109375 340.262695312 7.5 338.137695312 c 1
 7.744140625 329.50390625 7.826171875 321.749023438 7.826171875 313.299804688 c 0
 7.826171875 282.543945312 7.55078125 255.39453125 7.55078125 224.5078125 c 0
 7.55078125 209.713867188 7.6845703125 194.885742188 7.6845703125 180.158203125 c 0
 7.6845703125 154.774414062 7.2333984375 129.094726562 7.2333984375 103.205078125 c 0
 7.2333984375 78.53125 7.685546875 53.318359375 7.685546875 28.91015625 c 0
 7.685546875 19.1123046875 7.6923828125 9.390625 7.6923828125 -0.267578125 c 0
 7.6923828125 -20.6484375 7.4814453125 -32.380859375 7.4814453125 -52.3564453125 c 0
 7.4814453125 -61.67578125 7.72265625 -70.732421875 7.72265625 -79.6962890625 c 0
 7.72265625 -84.85546875 7.6669921875 -86.4833984375 7.5 -91.6123046875 c 5
 5.3466796875 -92.6884765625 3.580078125 -93.25 1.921875 -93.25 c 4
 0.64453125 -93.25 -0.568359375 -93.521484375 -1.8427734375 -93.521484375 c 4
 -3.5234375 -93.521484375 -5.3125 -93.0498046875 -7.5 -90.8623046875 c 5
 -7.4638671875 -83.3232421875 -7.4521484375 -78.9404296875 -7.4521484375 -71.0234375 c 0
 -7.4521484375 -41.9853515625 -7.78125 -22.966796875 -7.78125 4.970703125 c 0
 -7.78125 24.9326171875 -7.4287109375 45.6865234375 -7.4287109375 65.884765625 c 0
 -7.4287109375 76.341796875 -7.47265625 86.8154296875 -7.47265625 97.275390625 c 0
 -7.47265625 106.444335938 -7.4296875 115.75 -7.4296875 125.146484375 c 0
 -7.4296875 138.455078125 -7.654296875 151.948242188 -7.654296875 165.296875 c 0
EndSplineSet
EndChar

StartChar: connectingStem4thUp
Encoding: 66 66 33
AltUni2: 00f042.ffffffff.0
Width: 0
Flags: MW
HStem: -50 27 203 18 224 29 385 24
VStem: -736 68 -587 65 -455 266 -100 28
LayerCount: 2
Fore
SplineSet
-8.9111328125 331.70703125 m 4
 -8.9111328125 369.73828125 -8.939453125 400.836914062 -9.189453125 438.701171875 c 4
 -9.2001953125 440.248046875 -9.2041015625 441.794921875 -9.2041015625 443.342773438 c 4
 -9.2041015625 450.022460938 -9.1162109375 456.703125 -9 463.387695312 c 5
 -7.25390625 463.387695312 -4.9990234375 464.163085938 -1.94140625 464.163085938 c 4
 0.255859375 464.163085938 2.8662109375 463.762695312 6 462.387695312 c 5
 6.244140625 453.75390625 6.326171875 445.249023438 6.326171875 436.799804688 c 4
 6.326171875 397.486328125 6.126953125 363.028320312 6.126953125 323.798828125 c 4
 6.126953125 296.518554688 5.796875 270.53515625 5.796875 243.038085938 c 4
 5.796875 218.661132812 6.2431640625 105.54296875 6.2431640625 52.11328125 c 4
 6.2431640625 41.65625 6.2265625 33.486328125 6.185546875 28.71484375 c 4
 6.01953125 9.357421875 5.8818359375 -9.70703125 5.8818359375 -28.5595703125 c 4
 5.8818359375 -38.0439453125 5.916015625 -33.9755859375 6 -43.3623046875 c 4
 6.0966796875 -54.185546875 6.22265625 -64.6279296875 6.22265625 -74.9462890625 c 4
 6.22265625 -80.10546875 6.1669921875 -85.2333984375 6 -90.3623046875 c 5
 3.8466796875 -91.4384765625 2.080078125 -92 0.421875 -92 c 4
 -0.85546875 -92 -2.068359375 -92.271484375 -3.3427734375 -92.271484375 c 4
 -5.0234375 -92.271484375 -6.8125 -91.7998046875 -9 -89.6123046875 c 5
 -8.9638671875 -82.0732421875 -8.9521484375 -74.1904296875 -8.9521484375 -66.2734375 c 4
 -8.9521484375 -25.4345703125 -9.07421875 -1.6005859375 -9.07421875 39.0234375 c 4
 -9.07421875 58.19140625 -8.97265625 77.5078125 -8.97265625 96.775390625 c 4
 -8.97265625 113.07421875 -9.048828125 255.30078125 -9.048828125 272.20703125 c 4
 -9.048828125 292.010742188 -8.9111328125 311.8984375 -8.9111328125 331.70703125 c 4
EndSplineSet
EndChar

StartChar: stemInitialUp
Encoding: 81 81 36
AltUni2: 00f051.ffffffff.0
Width: 0
Flags: HW
VStem: -460 19
LayerCount: 2
Fore
SplineSet
-13.25 551 m 4
 -13.25 556 -9.25 559 -3.25 559 c 4
 5.75 559 12.75 556 12.75 548 c 4
 12.75 518 10.75 497 9.75 461 c 4
 5.75 364 3.75 119 3.75 -58 c 4
 3.75 -68 3.75 -78 3.75 -88 c 6
 3.75 -91.75 l 5
 1.75 -92.75 -0.25 -93 -2.25 -93 c 4
 -5.25 -93 -8.919921875 -91.162109375 -10.25 -86 c 5
 -9.25 4 -9.25 94 -9.25 200 c 4
 -9.25 315 -9.25 434 -11.25 536 c 4
 -11.25 538 -12.25 541 -12.25 543 c 4
 -12.25 545 -13.25 549 -13.25 551 c 4
EndSplineSet
EndChar

StartChar: connectingStemBasisDown
Encoding: 82 82 37
AltUni2: 00f052.ffffffff.0
Width: 6
Flags: HMW
VStem: -2891.42 23.8
LayerCount: 2
Fore
SplineSet
-5.4541015625 90.3330078125 m 1
 -0.296875 94.0224609375 3.634765625 92.3310546875 7.2958984375 88.3330078125 c 1
 7.2958984375 39.81640625 l 0
 7.2958984375 -78.18359375 l 0
 7.2958984375 -214.5 l 5
 4.1728515625 -220.24609375 -2.904296875 -220.5 -5.4541015625 -214.5 c 5
 -5.4541015625 -115.18359375 l 0
 -5.4541015625 18.81640625 l 0
 -5.4541015625 90.3330078125 l 1
EndSplineSet
EndChar

StartChar: connectingStem3rdDown
Encoding: 83 83 38
AltUni2: 00f053.ffffffff.0
Width: 5
Flags: HMW
HStem: -50 27 203 18 224 29 385 24
VStem: -621.633 57.8 -494.983 55.25 -382.783 226.1 -81.0333 23.8
LayerCount: 2
Fore
SplineSet
-5.8095703125 -39 m 0
 -5.8095703125 -1 -5.8095703125 28 -5.8095703125 66 c 0
 -5.8095703125 74 -5.8095703125 82 -5.8095703125 90 c 1
 -4.109375 91 -2.41015625 91 0.140625 91 c 0
 1.83984375 91 4.390625 90 6.9404296875 89 c 1
 6.9404296875 80 6.9404296875 72 6.9404296875 64 c 0
 6.9404296875 25 6.9404296875 -8 6.9404296875 -47 c 0
 6.9404296875 -74 6.9404296875 -101 6.9404296875 -128 c 0
 6.9404296875 -157 6.9404296875 -188 6.9404296875 -217 c 0
 6.9404296875 -246 6.9404296875 -263.75 6.9404296875 -291.75 c 4
 6.9404296875 -302.75 6.9404296875 -313.75 6.9404296875 -323.75 c 4
 6.9404296875 -328.75 6.9404296875 -334.75 6.9404296875 -339.75 c 5
 5.240234375 -340.75 3.5400390625 -341.75 1.83984375 -341.75 c 4
 0.990234375 -341.75 0.140625 -341.75 -0.7099609375 -341.75 c 4
 -2.41015625 -341.75 -4.109375 -341.75 -5.8095703125 -339.75 c 5
 -5.8095703125 -331.75 -5.8095703125 -322.75 -5.8095703125 -314.75 c 4
 -5.8095703125 -273.75 -5.8095703125 -247 -5.8095703125 -206 c 0
 -5.8095703125 -187 -5.8095703125 -168 -5.8095703125 -149 c 0
 -5.8095703125 -133 -5.8095703125 -116 -5.8095703125 -99 c 0
 -5.8095703125 -79 -5.8095703125 -59 -5.8095703125 -39 c 0
EndSplineSet
EndChar

StartChar: connectingStem4thDown
Encoding: 84 84 39
AltUni2: 00f054.ffffffff.0
Width: 7
Flags: HMW
HStem: -166 79 42 89
VStem: -3 28 663 28
LayerCount: 2
Fore
SplineSet
-7 91 m 1
 -4.833984375 91.373046875 -2.4619140625 92.0283203125 0.32421875 92.0283203125 c 0
 2.5751953125 92.0283203125 5.09765625 91.6005859375 8 90.25 c 1
 8 14 l 0
 8 -111 l 0
 8 -227 l 0
 8 -376.25 l 0
 8 -454.75 l 4
 8 -463.25 l 5
 6.6201171875 -465.55078125 4.109375 -467.125 1.4443359375 -467.125 c 4
 -1.6826171875 -467.125 -5.0224609375 -464.95703125 -7 -459.25 c 5
 -7 -451.75 l 4
 -7 -353.25 l 0
 -7 -201 l 0
 -7 -79 l 0
 -7 25 l 0
 -7 91 l 1
EndSplineSet
EndChar

StartChar: connectingStem5thDown
Encoding: 85 85 40
AltUni2: 00f055.ffffffff.0
Width: 6
Flags: HMW
HStem: -2 82 293 85
VStem: 287 82
LayerCount: 2
Fore
SplineSet
-7 91.25 m 1
 -6.0751953125 91.7734375 -2.6064453125 92.5341796875 0.1875 92.5341796875 c 0
 2.453125 92.5341796875 3.7626953125 92.283203125 7 91.25 c 1
 7 -590.25 l 1
 4.986328125 -591.038085938 2.2001953125 -591.44140625 0.1083984375 -591.44140625 c 4
 -2.7998046875 -591.44140625 -4.0810546875 -591.272460938 -7 -589.25 c 1
 -7 91.25 l 1
EndSplineSet
EndChar

StartChar: connectingStem6thDown
Encoding: 86 86 41
AltUni2: 00f056.ffffffff.0
Width: 7
Flags: HW
HStem: -979 20 -695 30 1015 154
VStem: 0 67 247 20 394 44 547 40 601 80
LayerCount: 2
Fore
SplineSet
-6 89.25 m 5
 -4.6298828125 89.7802734375 -2.6279296875 90.4287109375 0.3447265625 90.4287109375 c 4
 2.396484375 90.4287109375 4.9111328125 90.1201171875 8 89.25 c 5
 8 -714.5 l 1
 5.6298828125 -716.220703125 2.474609375 -716.700195312 1.8583984375 -716.69140625 c 0
 -1.119140625 -716.646484375 -4.10546875 -716.611328125 -6 -713.25 c 1
 -6 89.25 l 5
EndSplineSet
EndChar

StartChar: connectingStem7thDown
Encoding: 87 87 42
AltUni2: 00f057.ffffffff.0
Width: 6
Flags: HMW
HStem: -127 15 111 16
VStem: -5 28 79 28 511 28 597 28
LayerCount: 2
Fore
SplineSet
-6.5 91.75 m 1
 -5.14453125 92.3505859375 -2.8134765625 93.1015625 0.1240234375 93.1015625 c 0
 2.2998046875 93.1015625 4.8076171875 92.6904296875 7.5 91.5009765625 c 1
 7.5 -830 l 1
 6.8544921875 -830.12890625 6.224609375 -830.19140625 5.6083984375 -830.19140625 c 0
 1.4501953125 -830.19140625 -2.1455078125 -827.354492188 -6.5 -823 c 1
 -6.5 91.75 l 1
EndSplineSet
EndChar

StartChar: plicaLongaAscBlack
Encoding: 93 93 47
AltUni2: 00f05d.ffffffff.0
Width: 161
VWidth: 1500
Flags: HMW
VStem: -3.09 61.8 281.19 61.8 563.925 61.8
LayerCount: 2
Fore
SplineSet
144.5 456.958007812 m 0
 144.5 461.985351562 149.75 465.001953125 155.75 465.001953125 c 0
 164.423828125 465.001953125 167.521484375 462.190429688 167.521484375 454.794921875 c 0
 167.521484375 452.09765625 167.005859375 449.471679688 166.9765625 446.90234375 c 0
 166.946289062 444.251953125 166.401367188 441.66015625 166.344726562 439.109375 c 0
 165.836914062 416.122070312 165.364257812 396.397460938 164.75 366.458984375 c 0
 163.278214677 294.682141382 161.806429355 202.212623375 161.131671383 87.4478131481 c 0
 161.327673204 85.7796002566 161.360848999 83.992134913 161.360848999 82.2292620556 c 0
 161.360848999 81.7740742389 161.358637124 81.3205260366 161.356445312 80.87109375 c 0
 161.327148438 74.86328125 161.302734375 69.857421875 161.272460938 63.849609375 c 0
 161.232715183 55.6994111792 161.08422818 47.314093734 160.900381049 38.775001184 c 0
 160.803003241 12.0221137112 160.750000061 -15.8326502945 160.75 -44.806640625 c 2
 160.75 -78.744140625 l 2
 160.631835516 -78.8035113547 160.513671031 -78.8602538242 160.395506125 -78.914471289 c 0
 159.32831212 -85.7852058631 153.853474046 -87.6411426332 144.627929688 -88.0595703125 c 0
 141.883171377 -88.1837652336 138.832390471 -88.2323850196 135.561972543 -88.2323850196 c 0
 123.76416434 -88.2323850196 109.108096338 -87.5996684671 95.6491848337 -87.5996684671 c 0
 91.2179923123 -87.5996684671 86.9165691888 -87.6682536908 82.8896484375 -87.8505859375 c 0
 80.5464866971 -87.9567264443 78.3796542538 -87.9920657467 76.3008337928 -87.9920657467 c 0
 72.1575667482 -87.9920657467 68.3639176268 -87.8516842533 64.2206505822 -87.8516842533 c 0
 62.1418301212 -87.8516842533 59.9749976779 -87.8870235557 57.6318359375 -87.9931640625 c 0
 54.82421875 -88.1201171875 53.888671875 -88.162109375 50.146484375 -88.33203125 c 0
 33.3046875 -89.0947265625 14.591796875 -89.94140625 7.091796875 -93.2841796875 c 0
 4.279296875 -94.412109375 4.2744140625 -95.4140625 4.2744140625 -95.4140625 c 1
 3.3388671875 -95.4560546875 l 2
 3.26213612105 -95.4595187988 3.18659325571 -95.4612461822 3.11222241944 -95.4612461822 c 0
 -0.376369013093 -95.4612461822 -1.28606773015 -91.6603708901 -1.28606773015 -85.0231207424 c 0
 -1.28606773015 -84.9011355369 -1.28576044927 -84.7781922519 -1.28515625 -84.654296875 c 2
 -1.28515625 -84.654296875 -1.2802734375 -83.65234375 -1.275390625 -82.6513671875 c 0
 -1.19930157343 -67.0487636699 -0.544881997859 -51.7301833541 0.0441422906924 -36.3794873379 c 0
 0.234985117989 -9.97097486115 0.27734375002 15.0802568945 0.27734375002 42.8729717416 c 0
 0.27734375 42.8740234375 l 2
 0.27734375 56.1857985782 0.166015625 70.212890625 -0.2177734375 82.5546875 c 0
 -0.20703125 84.6796875 -0.215413449705 86.3140822148 0.258652424234 87.5466772659 c 0
 0.253845674005 97.1107077308 0.249999999936 107.115137086 0.249999999936 117.673420808 c 0
 0.25 117.67578125 l 0
 0.25 209.314453125 0.25 240.392578125 -1.75 321.671875 c 0
 -1.75 325.462890625 -3 329.541992188 -3 333.625 c 0
 -3 337.609375 2.25 340 8.25 340 c 0
 16.923828125 340 20.021484375 337.772460938 20.021484375 331.911132812 c 0
 20.021484375 329.7734375 19.505859375 327.693359375 19.4765625 325.65625 c 0
 19.4462890625 323.556640625 18.9013671875 321.502929688 18.8447265625 319.48046875 c 0
 18.3369140625 301.264648438 17.8642578125 285.6328125 17.25 261.907226562 c 0
 16.0893697379 217.051813845 14.9287394758 161.998716248 14.1577178951 95.9149334806 c 0
 14.1577178951 92.8805762561 14.9729318099 92.0783587491 17.2886810762 92.0783587491 c 0
 17.8192671608 92.0783587491 18.4286257895 92.1204721948 19.125 92.1875 c 0
 33.0732421875 93.529296875 49.2696372379 94.8193109057 69.7548828125 95.744140625 c 0
 73.4970703125 95.9130859375 77.240234375 96.0830078125 80.982421875 96.251953125 c 0
 85.9262021561 96.4756652639 91.0023978756 96.5629283007 96.1107996436 96.5629283007 c 0
 104.538207294 96.5629283007 113.053265637 96.3254367113 121.206054688 96.0712890625 c 0
 129.388248416 95.7117339082 135.073242188 95.330078125 142.625976562 95.330078125 c 0
 147.123784904 95.330078125 147.776475025 98.2686650418 147.776475025 102.327399407 c 0
 147.77647456 102.333333333 l 0
 147.772583869 127.195731793 147.75 153.999472597 147.75 184.456054688 c 0
 147.75 300.09375 147.75 339.309570312 145.75 441.875 c 0
 145.75 446.658203125 144.5 451.805664062 144.5 456.958007812 c 0
EndSplineSet
EndChar

StartChar: plicaLongaDescBlack
Encoding: 94 94 48
AltUni2: 00f05e.ffffffff.0
Width: 162
VWidth: 1500
Flags: HW
VStem: -3.09 61.8 281.19 61.8 563.925 61.8
LayerCount: 2
Fore
SplineSet
-4.7529296875 -333.520507812 m 4
 -4.7529296875 -329.465820312 -2.7529296875 -325.284179688 -2.7529296875 -321.37109375 c 4
 -0.755859375 -238.88671875 -0.7529296875 -238.412109375 -0.7529296875 -145.737304688 c 6
 -0.7529296875 -144.921875 l 6
 -0.7529296875 -129.345206476 -0.790219784329 -114.177602874 -0.790219784329 -99.3477081507 c 4
 -0.790219784329 -93.6492801534 -0.784713894649 -88.0007149343 -0.769470808665 -82.3979641089 c 4
 -0.75610350996 -77.4846779191 -0.73586029862 -72.4250025697 -0.73586029862 -67.3612316883 c 4
 -0.73586029862 -62.7687908101 -0.752510460607 -58.1729813323 -0.806040242123 -53.6799469081 c 4
 -1.22150906164 -18.8074767544 -1.00740753708 14.4853781401 -1.30995233512 47.2497493829 c 4
 -1.83361334247 60.8847760245 -2.45997228842 74.6770112077 -3.068359375 87.1044921875 c 4
 -3.07003760943 87.2304007026 -3.07087848548 87.3545807357 -3.07087848548 87.477046522 c 4
 -3.07087848548 92.8190253044 -1.47092723843 94.899273308 2.02093054597 94.899273308 c 4
 2.14376960549 94.899273308 2.2689499784 94.8966989141 2.396484375 94.8916015625 c 4
 8.63951164366 95.0628628197 16.1964304594 95.181616777 24.8610190455 95.181616777 c 4
 36.7991673692 95.181616777 50.8400691309 94.9561792877 66.4443359375 94.33203125 c 4
 70.1591796875 94.1826171875 73.8740234375 94.0341796875 77.587890625 93.8857421875 c 4
 90.5888671875 93.3662109375 104.53125 91.8076171875 117.544921875 90.2861328125 c 4
 128.236036797 88.8993291089 144.017444434 87.2814257652 152.988955838 86.1013741665 c 4
 156.65946306 85.6185806082 159 85.1778316171 159 82.9404296875 c 5
 159 75.359375 158.997070312 71.9541015625 158.997070312 63.501953125 c 4
 158.997070312 25.6653034625 159.51171875 -16.6953125 159.553710938 -60.19921875 c 4
 159.757699068 -66.4040445256 159.785845713 -72.1702292468 159.785845713 -76.966118209 c 4
 159.785845713 -78.7940518656 159.781756787 -80.4810284882 159.781756787 -81.9976103961 c 6
 159.785198175 -187.905679464 l 6
 159.785198175 -271.324673663 159.874664418 -348.373239755 160.497070312 -388.502929688 c 4
 160.970703125 -419.045898438 163.254882812 -433.697265625 164.754882812 -456.064453125 c 4
 164.774624625 -456.358672691 164.784481067 -456.64460104 164.784481067 -456.922384292 c 4
 164.784481067 -462.759356152 160.432537925 -465 151.997070312 -465 c 4
 145.997070312 -465 141.997070312 -462.463867188 141.997070312 -458.237304688 c 4
 141.997070312 -456.546875 142.997070312 -453.166015625 142.997070312 -451.475585938 c 4
 142.997070312 -449.78515625 143.997070312 -447.249023438 143.997070312 -445.55859375 c 4
 145.997070312 -359.341796875 145.997070312 -258.754882812 145.997070312 -161.549804688 c 6
 145.997070312 -159.984375 l 6
 145.997070312 -139.726575499 145.984975855 -120.109891727 145.981808986 -101 c 4
 145.981219843 -97.4449201492 145.90028031 -96.3846454143 140.658203125 -95.92578125 c 4
 124.872070312 -94.5439453125 102.331054688 -91.25 82.830078125 -90.470703125 c 4
 73.5439453125 -90.0986328125 67.0302734375 -88.837890625 57.744140625 -88.4658203125 c 4
 54.9580078125 -88.3544921875 54.029296875 -88.3173828125 50.3154296875 -88.1689453125 c 4
 42.6739595284 -87.8631436499 34.6445350289 -87.5420360559 27.4728937941 -87.5420360559 c 4
 21.8876257257 -87.5420360559 16.8226273193 -87.7367968379 12.866339642 -88.2852278969 c 5
 13.423615708 -158.72399531 14.2649645072 -217.59432002 14.9970703125 -264.674804688 c 4
 15.37890625 -289.241210938 15.2177734375 -302.65234375 15.630859375 -320.563476562 c 4
 15.6728515625 -322.400390625 16.9560546875 -324.28515625 16.9765625 -326.233398438 c 4
 16.9951171875 -327.916015625 17.7548828125 -330.458007812 17.7548828125 -332.248046875 c 4
 17.7548828125 -338.463867188 15.083984375 -340 6.2470703125 -340 c 4
 0.2470703125 -340 -4.7529296875 -337.5703125 -4.7529296875 -333.520507812 c 4
EndSplineSet
EndChar

StartChar: plicaBrevisAscBlack
Encoding: 95 95 49
AltUni2: 00f05f.ffffffff.0
Width: 161
VWidth: 1500
Flags: HMW
VStem: -3.09 61.8 281.19 61.8 563.925 61.8
LayerCount: 2
Fore
SplineSet
159.965820312 -12.2880859375 m 4
 159.862304688 -33.314453125 160.641601562 -65.3115234375 160.587890625 -76.3251953125 c 4
 160.543945312 -85.3369140625 154.919921875 -87.5927734375 144.627929688 -88.0595703125 c 4
 128.721679688 -88.779296875 102.538085938 -86.9609375 82.8896484375 -87.8505859375 c 4
 73.533203125 -88.2744140625 66.98828125 -87.5693359375 57.6318359375 -87.9931640625 c 4
 54.82421875 -88.1201171875 53.888671875 -88.162109375 50.146484375 -88.33203125 c 4
 33.3046875 -89.0947265625 14.591796875 -89.94140625 7.091796875 -93.2841796875 c 4
 4.279296875 -94.412109375 4.2744140625 -95.4140625 4.2744140625 -95.4140625 c 4
 3.3388671875 -95.4560546875 l 4
 -0.4033203125 -95.625 -1.3193359375 -91.6630859375 -1.28515625 -84.654296875 c 4
 -1.28515625 -84.654296875 -1.2802734375 -83.65234375 -1.275390625 -82.6513671875 c 4
 -1.138671875 -54.6162109375 0.865234375 -27.498046875 1.001953125 0.537109375 c 4
 1.119140625 24.5673828125 0.33984375 56.564453125 -0.4677734375 82.5546875 c 4
 -0.4384765625 88.5625 1.4423828125 90.6494140625 5.1845703125 90.8193359375 c 4
 20.16015625 92.498046875 42.62109375 94.515625 69.7548828125 95.744140625 c 4
 73.4970703125 95.9130859375 77.240234375 96.0830078125 80.982421875 96.251953125 c 4
 94.08203125 96.8447265625 108.111328125 96.4794921875 121.206054688 96.0712890625 c 4
 132.428710938 95.578125 142.716796875 95.04296875 153.008789062 95.5087890625 c 4
 161.4296875 95.8896484375 161.390625 87.8798828125 161.356445312 80.87109375 c 4
 161.327148438 74.86328125 161.302734375 69.857421875 161.272460938 63.849609375 c 4
 161.155273438 39.8193359375 160.092773438 13.7451171875 159.965820312 -12.2880859375 c 4
144.75 333.881835938 m 0
 144.75 337.705078125 150 340 156 340 c 0
 164.673828125 340 167.771484375 337.861328125 167.771484375 332.236328125 c 0
 167.771484375 330.185546875 167.255859375 328.188476562 167.2265625 326.234375 c 4
 167.196289062 324.21875 166.651367188 322.247070312 166.594726562 320.307617188 c 0
 166.086914062 302.82421875 165.614257812 287.822265625 165 265.053710938 c 0
 163 190.87109375 161 87.62890625 161 -47.7333984375 c 2
 161 -73.5439453125 l 1
 159 -74.30859375 157 -74.5 155 -74.5 c 0
 152 -74.5 148.580078125 -74.2421875 147.25 -70.2939453125 c 1
 147.916992188 -24.408203125 148.02734375 11.7900390625 148.02734375 54.84375 c 0
 148.02734375 76.3701171875 148 99.6103515625 148 126.631835938 c 0
 148 214.579101562 148 244.404296875 146 322.41015625 c 0
 146 326.048828125 144.75 329.962890625 144.75 333.881835938 c 0
-3.75 456.846679688 m 0
 -3.75 461.942382812 1.5 464.999023438 7.5 464.999023438 c 0
 16.173828125 464.999023438 19.271484375 462.150390625 19.271484375 454.654296875 c 0
 19.271484375 451.920898438 18.755859375 449.260742188 18.7265625 446.65625 c 4
 18.6962890625 443.970703125 18.1513671875 441.344726562 18.0947265625 438.758789062 c 0
 17.5869140625 415.463867188 17.1142578125 395.473632812 16.5 365.133789062 c 0
 14.5 266.288085938 12.5 128.71875 12.5 -51.6494140625 c 2
 12.5 -86.041015625 l 1
 10.5 -87.060546875 8.5 -87.3154296875 6.5 -87.3154296875 c 0
 3.5 -87.3154296875 0.080078125 -86.970703125 -1.25 -81.7109375 c 1
 -0.5830078125 -20.568359375 -0.47265625 27.6650390625 -0.47265625 85.033203125 c 0
 -0.47265625 113.716796875 -0.5 144.684570312 -0.5 180.689453125 c 0
 -0.5 297.877929688 -0.5 337.620117188 -2.5 441.561523438 c 0
 -2.5 446.409179688 -3.75 451.625976562 -3.75 456.846679688 c 0
EndSplineSet
Comment: "plicaBrevisAscBlack"
EndChar

StartChar: plicaBrevisDescBlack
Encoding: 96 96 50
AltUni2: 00f060.ffffffff.0
Width: 161
VWidth: 1500
Flags: HMW
VStem: -3.09 61.8 281.19 61.8 563.925 61.8
LayerCount: 2
Fore
SplineSet
158.765625 -21.4208984375 m 4
 159.045898438 -42.4482421875 160.401367188 -74.5283203125 160.547851562 -85.54296875 c 4
 160.66796875 -94.5546875 155.123046875 -96.333984375 144.908203125 -95.92578125 c 4
 129.122070312 -95.2939453125 103.081054688 -91.25 83.580078125 -90.470703125 c 4
 74.2939453125 -90.0986328125 67.7802734375 -88.837890625 58.494140625 -88.4658203125 c 4
 55.7080078125 -88.3544921875 54.779296875 -88.3173828125 51.0654296875 -88.1689453125 c 4
 34.349609375 -87.5 15.77734375 -86.7578125 8.388671875 -89.4638671875 c 4
 5.6162109375 -90.3544921875 5.6298828125 -91.35546875 5.6298828125 -91.35546875 c 4
 4.701171875 -91.318359375 l 4
 0.986328125 -91.169921875 0.0048828125 -87.126953125 -0.0888671875 -80.1181640625 c 4
 -0.0888671875 -80.1181640625 -0.1025390625 -79.1162109375 -0.115234375 -78.115234375 c 4
 -0.4892578125 -50.078125 1.0078125 -23.1162109375 0.6337890625 4.9208984375 c 4
 0.3134765625 28.953125 -1.0419921875 61.0322265625 -2.318359375 87.1044921875 c 4
 -2.3984375 93.1123046875 -0.5673828125 95.0400390625 3.146484375 94.8916015625 c 4
 17.9912109375 95.298828125 40.2646484375 95.4091796875 67.1943359375 94.33203125 c 4
 70.9091796875 94.1826171875 74.6240234375 94.0341796875 78.337890625 93.8857421875 c 4
 91.3388671875 93.3662109375 105.28125 91.8076171875 118.294921875 90.2861328125 c 4
 129.452148438 88.8388671875 139.6796875 87.4287109375 149.89453125 87.0205078125 c 4
 158.251953125 86.6865234375 158.359375 78.67578125 158.452148438 71.666015625 c 4
 158.533203125 65.658203125 158.599609375 60.6513671875 158.6796875 54.6435546875 c 4
 159 30.611328125 158.41796875 4.6142578125 158.765625 -21.4208984375 c 4
142.997070312 -333.587890625 m 0
 142.997070312 -329.576171875 144.997070312 -325.4375 144.997070312 -321.565429688 c 0
 146.994140625 -239.94140625 146.997070312 -239.471679688 146.997070312 -147.762695312 c 2
 146.997070312 -146.956054688 l 2
 146.997070312 -62.5751953125 146.994140625 9.6748046875 146 81.3896484375 c 1
 147 85.3974609375 151 87 154 87 c 0
 158.129882812 87 160 86.0537109375 160 82.9921875 c 0
 160 75.8037109375 159.997070312 72.5751953125 159.997070312 64.560546875 c 0
 159.997070312 -77.306640625 161.524414062 -187.653320312 162.747070312 -265.459960938 c 4
 163.12890625 -289.770507812 162.967773438 -303.04296875 163.380859375 -320.766601562 c 0
 163.422851562 -322.583984375 164.706054688 -324.44921875 164.7265625 -326.376953125 c 0
 164.745117188 -328.04296875 165.504882812 -330.557617188 165.504882812 -332.329101562 c 0
 165.504882812 -338.48046875 162.833984375 -340 153.997070312 -340 c 0
 147.997070312 -340 142.997070312 -337.595703125 142.997070312 -333.587890625 c 0
-4.0029296875 -458.194335938 m 0
 -4.0029296875 -456.4921875 -3.0029296875 -453.08984375 -3.0029296875 -451.387695312 c 0
 -3.0029296875 -449.686523438 -2.0029296875 -447.133789062 -2.0029296875 -445.432617188 c 0
 -0.0029296875 -358.65625 -0.0029296875 -257.416992188 -0.0029296875 -159.581054688 c 2
 -0.0029296875 -158.005859375 l 2
 -0.0029296875 -68.4404296875 -0.005859375 8.6728515625 -1 84.794921875 c 1
 -0.9052734375 89.0361328125 3.25 89.6865234375 6.25 89.6865234375 c 0
 10.3798828125 89.6865234375 13 88.89453125 13 86.49609375 c 0
 13 78.8662109375 12.9970703125 75.4384765625 12.9970703125 66.931640625 c 0
 12.9970703125 -83.6513671875 13.224609375 -305.431640625 14.4970703125 -388.006835938 c 0
 14.970703125 -418.748046875 17.2548828125 -433.494140625 18.7548828125 -456.006835938 c 0
 19.189453125 -462.525390625 14.833984375 -465 5.9970703125 -465 c 0
 -0.0029296875 -465 -4.0029296875 -462.448242188 -4.0029296875 -458.194335938 c 0
EndSplineSet
EndChar

StartChar: mensuralDragmaBlack
Encoding: 107 107 60
AltUni2: 00f06b.ffffffff.0 00e95a.ffffffff.0
Width: 186
VWidth: 1676
Flags: HMW
HStem: 216.266 127.412
VStem: 28.84 105.07
LayerCount: 2
Fore
SplineSet
104.969726562 720.88671875 m 1
 104.969726562 154.236328125 l 1
 186.099609375 5.029296875 l 1
 174.130859375 -11.734375 146.200195312 -58.6767578125 104.969726562 -134.118164062 c 1
 104.969726562 -714.180664062 l 1
 99.650390625 -720.88671875 93 -722.5625 86.349609375 -719.209960938 c 1
 86.349609375 -139.1484375 l 1
 73.0498046875 -108.971679688 43.7900390625 -62.029296875 -0.099609375 0 c 1
 19.849609375 33.5302734375 47.7802734375 82.1474609375 86.349609375 145.852539062 c 1
 86.349609375 715.856445312 l 1
 91.669921875 725.916015625 98.3193359375 727.592773438 104.969726562 720.88671875 c 1
EndSplineSet
EndChar

StartChar: mensuralSemibrevisObliqueBlack
Encoding: 109 109 61
AltUni2: 00f06d.ffffffff.0 00e95b.ffffffff.0
Width: 178
VWidth: 1676
Flags: HMW
VStem: -13.445 25.27
LayerCount: 2
Fore
SplineSet
-207 -381 m 1
 -137 -255 -41 -74 82 159 c 1
 107.912040308 120.374989721 147.822171352 60.8973132498 178 -5 c 1
 155.896000945 -66.2153077458 129.927429449 -115.100221461 94 -163 c 1
 91.6483545651 -131.000835255 65.6580137884 -91.000637783 22 -33 c 0
 17.9657671526 -27.6404323558 17 -24 14 -24 c 0
 12 -24 10 -26 7 -31 c 0
 -27 -88 -62 -151 -100 -220 c 0
 -124 -264 -149 -311 -175 -360 c 0
 -177 -365 -180 -371 -182 -376 c 0
 -186 -383 -188 -387 -193 -394 c 1
 -195 -395 -196 -395 -198 -395 c 0
 -203 -394 l 0
 -205 -392 -207 -388 -207 -381 c 1
EndSplineSet
EndChar

StartChar: ascii6e
Encoding: 110 110 62
AltUni2: 00f06e.ffffffff.0
Width: 186
VWidth: 1676
Flags: HMW
VStem: -738.47 37.24 -550.94 37.24
LayerCount: 2
Fore
SplineSet
186.19921875 -5.029296875 m 5
 154.685546875 -74.484375 125.55078125 -118.470703125 91.19921875 -170 c 5
 103.182617188 -129.306640625 57.7275390625 -75.2236328125 0 0 c 5
 22.98828125 28.291015625 51.6875 71.4111328125 86.44921875 139.1484375 c 5
 88.9873046875 270.69921875 93.2578125 383.802734375 87.75390625 561.827148438 c 5
 62.626953125 552.982421875 45.3681640625 550.989257812 36.00390625 554.170898438 c 4
 22.6220703125 558.955078125 15.7783203125 570.565429688 15.4453125 590.681640625 c 4
 15.1669921875 607.443359375 20.2080078125 624.303710938 30.568359375 641.26171875 c 4
 54.984375 681.575195312 75.951171875 708.287109375 93.64453125 720.5 c 4
 101.893554688 726.194335938 104.739257812 720.551757812 105.017578125 715.5 c 4
 108.022460938 661.024414062 108.7890625 575.153320312 108.7890625 575.153320312 c 5
 120.702148438 578.2265625 138.3125 585.140625 147.56640625 588.665039062 c 5
 142.653320312 585.6640625 126.021484375 576.82421875 108.873046875 568.875 c 5
 113.31640625 365.330078125 107.237304688 259.387695312 105.069335938 137.118164062 c 5
 133.802734375 100.336914062 165.087890625 50.1396484375 186.19921875 -5.029296875 c 5
87.880859375 569.782226562 m 5
 87.025390625 601.866210938 86.1416015625 645.319335938 84.390625 663.499023438 c 4
 83.62890625 671.41015625 81.1181640625 673.533203125 77.4248046875 670.166992188 c 4
 69.0205078125 662.508789062 64.9775390625 658.010742188 58.3828125 650.228515625 c 4
 41.0498046875 629.771484375 29.7109375 612.740234375 28.576171875 600.982421875 c 4
 27.46875 587.547851562 30.294921875 577.5390625 37.0556640625 570.956054688 c 4
 43.84375 562.698242188 61.3681640625 564.265625 87.880859375 569.782226562 c 5
EndSplineSet
EndChar

StartChar: p
Encoding: 112 112 64
AltUni2: 00f070.ffffffff.0
Width: 186
VWidth: 1676
Flags: HMW
HStem: -281.649 35.2061 -35.2061 85.5005 410.738 50.2944
VStem: -165.34 214.13 282.87 78.47
LayerCount: 2
Fore
SplineSet
186.099609375 5.029296875 m 1
 174.130859375 -11.734375 146.200195312 -58.6767578125 104.969726562 -134.118164062 c 1
 104.969726562 -568.326171875 l 1
 116.940429688 -573.35546875 127.580078125 -578.384765625 136.890625 -583.416015625 c 0
 132.900390625 -581.73828125 122.259765625 -578.384765625 104.969726562 -573.35546875 c 1
 104.969726562 -725.916015625 l 1
 85.01953125 -719.209960938 61.080078125 -690.708984375 30.490234375 -642.092773438 c 0
 19.849609375 -625.327148438 14.5302734375 -608.5625 14.5302734375 -591.797851562 c 0
 14.5302734375 -571.678710938 21.1806640625 -559.944335938 34.48046875 -554.915039062 c 0
 43.7900390625 -551.5625 61.080078125 -553.23828125 86.349609375 -561.620117188 c 1
 86.349609375 -139.1484375 l 1
 73.0498046875 -108.971679688 43.7900390625 -62.029296875 -0.099609375 0 c 1
 21.1806640625 38.5595703125 54.4306640625 92.20703125 98.3193359375 164.295898438 c 1
 186.099609375 5.029296875 l 1
86.349609375 -675.622070312 m 1
 86.349609375 -568.326171875 l 1
 59.75 -563.296875 42.4599609375 -563.296875 35.8095703125 -570.002929688 c 0
 29.16015625 -578.384765625 26.5 -588.444335938 27.830078125 -601.856445312 c 0
 30.490234375 -618.62109375 50.4404296875 -643.768554688 86.349609375 -675.622070312 c 1
EndSplineSet
EndChar

StartChar: q
Encoding: 113 113 65
AltUni2: 00f071.ffffffff.0
Width: 186
VWidth: 1676
Flags: HMW
HStem: -1.67648 33.5296G
VStem: 399.91 25.27
LayerCount: 2
Fore
SplineSet
86.349609375 -570.002929688 m 1
 59.75 -564.97265625 42.4599609375 -564.97265625 35.8095703125 -571.678710938 c 0
 29.16015625 -580.0625 26.5 -590.12109375 27.830078125 -603.533203125 c 0
 30.490234375 -620.297851562 50.4404296875 -645.4453125 86.349609375 -677.297851562 c 1
 86.349609375 -570.002929688 l 1
30.490234375 -643.768554688 m 0
 19.849609375 -627.00390625 14.5302734375 -610.239257812 14.5302734375 -593.474609375 c 0
 14.5302734375 -573.35546875 21.1806640625 -561.620117188 34.48046875 -556.590820312 c 0
 43.7900390625 -553.23828125 61.080078125 -554.915039062 86.349609375 -563.296875 c 1
 86.349609375 -139.1484375 l 1
 73.0498046875 -108.971679688 43.7900390625 -62.029296875 -0.099609375 0 c 1
 19.849609375 33.5302734375 47.7802734375 82.1474609375 86.349609375 145.852539062 c 1
 86.349609375 715.856445312 l 1
 91.669921875 725.916015625 98.3193359375 727.592773438 104.969726562 720.88671875 c 1
 104.969726562 154.236328125 l 1
 186.099609375 5.029296875 l 1
 174.130859375 -11.734375 146.200195312 -58.6767578125 104.969726562 -134.118164062 c 1
 104.969726562 -570.002929688 l 1
 116.940429688 -575.032226562 127.580078125 -580.0625 136.890625 -585.091796875 c 0
 132.900390625 -583.416015625 122.259765625 -580.0625 104.969726562 -575.032226562 c 1
 104.969726562 -729.268554688 l 1
 89.009765625 -727.592773438 63.740234375 -699.090820312 30.490234375 -643.768554688 c 0
EndSplineSet
EndChar

StartChar: r
Encoding: 114 114 66
AltUni2: 00f072.ffffffff.0
Width: 186
VWidth: 1676
Flags: HMW
VStem: -229.18 33.25
LayerCount: 2
Fore
SplineSet
99.650390625 -570.002929688 m 1
 99.650390625 -677.297851562 l 1
 135.559570312 -645.4453125 155.509765625 -620.297851562 158.169921875 -603.533203125 c 0
 159.5 -590.12109375 156.83984375 -580.0625 150.190429688 -571.678710938 c 0
 143.540039062 -564.97265625 126.25 -564.97265625 99.650390625 -570.002929688 c 1
155.509765625 -643.768554688 m 0
 122.259765625 -699.090820312 96.990234375 -727.592773438 81.0302734375 -729.268554688 c 1
 81.0302734375 -575.032226562 l 1
 63.740234375 -580.0625 53.099609375 -583.416015625 49.109375 -585.091796875 c 0
 58.419921875 -580.0625 69.0595703125 -575.032226562 81.0302734375 -570.002929688 c 1
 81.0302734375 -134.118164062 l 1
 39.7998046875 -58.6767578125 11.8701171875 -11.734375 -0.099609375 5.029296875 c 1
 81.0302734375 154.236328125 l 1
 81.0302734375 720.88671875 l 1
 87.6806640625 727.592773438 94.330078125 725.916015625 99.650390625 715.856445312 c 1
 99.650390625 145.852539062 l 1
 138.219726562 82.1474609375 166.150390625 33.5302734375 186.099609375 0 c 1
 142.209960938 -62.029296875 112.950195312 -108.971679688 99.650390625 -139.1484375 c 1
 99.650390625 -563.296875 l 1
 124.919921875 -554.915039062 142.209960938 -553.23828125 151.51953125 -556.590820312 c 0
 164.819335938 -561.620117188 171.469726562 -573.35546875 171.469726562 -593.474609375 c 0
 171.469726562 -610.239257812 166.150390625 -627.00390625 155.509765625 -643.768554688 c 0
EndSplineSet
EndChar

StartChar: s
Encoding: 115 115 67
AltUni2: 00f073.ffffffff.0
Width: 186
VWidth: 1676
Flags: HMW
HStem: -51.9709 174.354 290.031 165.972
VStem: 63.42 75.81 199.08 78.47
LayerCount: 2
Fore
SplineSet
186.099609375 0 m 1
 163.490234375 -30.177734375 135.559570312 -77.1171875 99.650390625 -139.1484375 c 1
 99.650390625 -563.296875 l 1
 124.919921875 -554.915039062 142.209960938 -553.23828125 151.51953125 -556.590820312 c 0
 164.819335938 -561.620117188 171.469726562 -573.35546875 171.469726562 -593.474609375 c 0
 171.469726562 -610.239257812 166.150390625 -627.00390625 155.509765625 -643.768554688 c 0
 122.259765625 -699.090820312 96.990234375 -727.592773438 81.0302734375 -729.268554688 c 1
 81.0302734375 -575.032226562 l 1
 69.0595703125 -578.384765625 58.419921875 -581.73828125 49.109375 -585.091796875 c 0
 53.099609375 -583.416015625 63.740234375 -578.384765625 81.0302734375 -570.002929688 c 1
 81.0302734375 -134.118164062 l 1
 65.0693359375 -102.265625 38.4697265625 -57.0009765625 -0.099609375 5.029296875 c 1
 13.2001953125 28.4990234375 39.7998046875 75.44140625 81.0302734375 144.176757812 c 1
 81.0302734375 570.002929688 l 1
 69.0595703125 575.032226562 58.419921875 580.0625 49.109375 585.091796875 c 0
 53.099609375 583.416015625 63.740234375 580.0625 81.0302734375 575.032226562 c 1
 81.0302734375 729.268554688 l 1
 96.990234375 727.592773438 122.259765625 699.090820312 155.509765625 643.768554688 c 0
 166.150390625 627.00390625 171.469726562 610.239257812 171.469726562 593.474609375 c 0
 171.469726562 573.35546875 164.819335938 561.620117188 151.51953125 556.590820312 c 0
 142.209960938 553.23828125 124.919921875 554.915039062 99.650390625 563.296875 c 1
 99.650390625 139.1484375 l 1
 118.26953125 107.294921875 147.530273438 62.029296875 186.099609375 0 c 1
158.169921875 613.591796875 m 0
 155.509765625 630.35546875 135.559570312 655.50390625 99.650390625 687.356445312 c 1
 99.650390625 580.0625 l 1
 126.25 575.032226562 143.540039062 575.032226562 150.190429688 581.73828125 c 0
 156.83984375 590.12109375 159.5 600.180664062 158.169921875 613.591796875 c 0
158.169921875 -603.533203125 m 0
 159.5 -590.12109375 156.83984375 -580.0625 150.190429688 -573.35546875 c 0
 143.540039062 -564.97265625 126.25 -564.97265625 99.650390625 -570.002929688 c 1
 99.650390625 -677.297851562 l 1
 110.290039062 -668.916015625 119.599609375 -658.857421875 127.580078125 -650.474609375 c 0
 146.200195312 -630.35546875 156.83984375 -615.267578125 158.169921875 -603.533203125 c 0
EndSplineSet
EndChar

StartChar: semibrevisSquareStemUpBlack
Encoding: 116 116 68
AltUni2: 00f074.ffffffff.0
Width: 172
VWidth: 1567
Flags: HMW
HStem: -1267.42 23.4707 -1069.59 206.207 -285.002 206.207 77.1181 206.207 353.737 63.7062
VStem: 190.4 28 376.6 39.2 568.4 204.4 824.6 172.2
LayerCount: 2
Fore
SplineSet
-4.5 557.668945312 m 0
 -4.5 562.71875 -0.5 565.748046875 5.5 565.748046875 c 0
 14.5 565.748046875 21.5 562.71875 21.5 554.638671875 c 0
 21.5 524.33984375 19.5 533.129882812 18.5 496.771484375 c 0
 15.587890625 425.439453125 14.0239023152 244.860204054 12.9429921101 99.1104828825 c 0
 12.9429921101 94.6542613428 14.5554421773 92.538447651 18.2405195202 92.538447651 c 0
 33.4830666866 92.538447651 52.375588732 94.25 74.5 94.25 c 0
 78.5 94.25 82.5 94.25 86.5 94.25 c 0
 100.5 94.25 115.5 94.25 129.5 93.5 c 0
 141.524414062 92.85546875 152.5 92.75 163.5 92.75 c 0
 172.5 92.75 172.5 84.75 172.5 77.75 c 0
 172.5 71.75 172.5 63 172.5 57 c 0
 172.5 33 171.5 7 171.5 -19 c 0
 171.5 -40 172.5 -72 172.5 -83 c 0
 172.5 -92 166.5 -94 155.5 -94 c 0
 138.5 -94 110.5 -91 89.5 -91 c 0
 79.5 -91 72.5 -90 62.5 -90 c 0
 59.5 -90 58.5 -90 54.5 -90 c 0
 36.5 -90 18.981215003 -90.2898771817 11.5 -92.3125 c 0
 8.18704935137 -93.208190015 6.431640625 -93.5 4.25 -93.5 c 0
 0.307270094759 -93.5 -1.50057668096 -89.2801573802 -1.5 -85.6826171875 c 0
 -0.525107086663 5.2174539629 -0.5 96.1123046875 -0.5 203.168945312 c 0
 -0.5 319.315429688 -0.5 439.501953125 -2.5 542.51953125 c 0
 -2.5 544.5390625 -3.5 547.569335938 -3.5 549.588867188 c 0
 -3.5 551.609375 -4.5 555.6484375 -4.5 557.668945312 c 0
EndSplineSet
EndChar

StartChar: clivisInitial4Black
Encoding: 123 123 71
AltUni2: 00f07b.ffffffff.0
Width: 170
VWidth: 1650
Flags: HMW
HStem: -130 19
LayerCount: 2
Fore
SplineSet
-5.33984375 -586.142578125 m 4
 -5.33984375 -584.115234375 -4.447265625 -581.0625 -4.197265625 -579.03515625 c 4
 -3.94921875 -577.0234375 -3.5546875 -572.967773438 -3.5546875 -570.94140625 c 4
 -1.76953125 -467.579101562 -1.76953125 -322.166992188 -1.76953125 -205.630859375 c 2
 -1.76953125 -203.754882812 l 2
 -1.76953125 -97.0693359375 -1.7724609375 -5.216796875 -2.66015625 85.4541015625 c 1
 -2.57421875 90.5068359375 1.1337890625 91.28125 3.8115234375 91.28125 c 0
 7.498046875 91.28125 9.8369140625 90.337890625 9.8369140625 87.48046875 c 0
 9.8369140625 78.392578125 9.833984375 74.310546875 9.833984375 64.1767578125 c 0
 9.833984375 -115.188476562 10.037109375 -418.681640625 11.1728515625 -517.0390625 c 0
 11.6005859375 -554.09765625 15 -564.639648438 15 -584.556640625 c 4
 15 -590.701171875 11.115234375 -592.249023438 3.5859375 -592.249023438 c 4
 -1.76953125 -592.249023438 -5.33984375 -590.708984375 -5.33984375 -586.142578125 c 4
EndSplineSet
Refer: 80 232 N 1 0 0 1 0 0 2
EndChar

StartChar: clivisInitial5Black
Encoding: 124 124 72
AltUni2: 00f07c.ffffffff.0
Width: 170
VWidth: 1650
Flags: HMW
HStem: -130 19
LayerCount: 2
Fore
SplineSet
-4.7451171875 -710.661132812 m 0
 -4.7451171875 -708.263671875 -4.20703125 -704.95703125 -3.958984375 -702.573242188 c 0
 -3.708984375 -700.174804688 -3.171875 -696.579101562 -3.171875 -694.182617188 c 0
 -1.59765625 -571.934570312 -1.59765625 -397.795898438 -1.59765625 -259.966796875 c 2
 -1.59765625 -257.748046875 l 2
 -1.59765625 -131.569335938 -1.599609375 -22.93359375 -2.3828125 84.3037109375 c 1
 -2.3076171875 90.279296875 0.9619140625 91.1953125 3.322265625 91.1953125 c 0
 6.5712890625 91.1953125 8.6337890625 90.0791015625 8.6337890625 86.7001953125 c 0
 8.6337890625 75.951171875 8.6318359375 71.123046875 8.6318359375 59.138671875 c 0
 8.6318359375 -152.999023438 8.810546875 -519.203125 9.810546875 -635.533203125 c 0
 10.1875 -679.298828125 13.1845267999 -682.482355065 13.1845267999 -707.548055744 c 0
 13.1845267999 -715.822879371 9.75965239484 -718.999023438 3.123046875 -718.999023438 c 0
 -1.59765625 -718.999023438 -4.7451171875 -716.653320312 -4.7451171875 -710.661132812 c 0
EndSplineSet
Refer: 80 232 N 1 0 0 1 0 0 2
EndChar

StartChar: clivisInitial6Black
Encoding: 125 125 73
AltUni2: 00f07d.ffffffff.0
Width: 170
VWidth: 1650
Flags: HMW
HStem: -130 19
LayerCount: 2
Fore
SplineSet
-4.2451171875 -836.411132812 m 0
 -4.2451171875 -834.013671875 -3.70703125 -829.95703125 -3.458984375 -827.573242188 c 0
 -3.20940864856 -825.174760501 -3.171875 -819.829101562 -3.171875 -817.432617188 c 0
 -1.59765625 -695.184570312 -1.59765625 -397.795898438 -1.59765625 -259.966796875 c 2
 -1.59765625 -257.748046875 l 2
 -1.59765625 -131.569335938 -1.599609375 -22.93359375 -2.3828125 84.3037109375 c 1
 -2.3076171875 90.279296875 0.9619140625 91.1953125 3.322265625 91.1953125 c 0
 6.5712890625 91.1953125 8.6337890625 90.0791015625 8.6337890625 86.7001953125 c 0
 8.6337890625 75.951171875 8.6318359375 71.123046875 8.6318359375 59.138671875 c 0
 8.6318359375 -152.999023438 8.67998335901 -649.704320629 9.810546875 -766.033203125 c 0
 10.1904296875 -805.12109375 13.1829991741 -811.724002178 13.1829991741 -830.845864172 c 0
 13.1829991741 -839.017890285 10.2455811568 -841.499023438 3.623046875 -841.499023438 c 0
 -1.09765625 -841.499023438 -4.2451171875 -840.653320312 -4.2451171875 -836.411132812 c 0
EndSplineSet
Refer: 80 232 N 1 0 0 1 0 0 2
EndChar

StartChar: clivisInitial7Black
Encoding: 126 126 74
AltUni2: 00f07e.ffffffff.0
Width: 170
VWidth: 1650
Flags: HMW
HStem: -130 19
LayerCount: 2
Fore
SplineSet
-4.4951171875 -962.161132812 m 0
 -4.4951171875 -959.763671875 -3.70703125 -955.70703125 -3.458984375 -953.323242188 c 0
 -3.208984375 -950.924804688 -3.171875 -945.579101562 -3.171875 -943.182617188 c 0
 -1.59765625 -820.934570312 -1.59765625 -397.795898438 -1.59765625 -259.966796875 c 2
 -1.59765625 -257.748046875 l 2
 -1.59765625 -131.569335938 -1.599609375 -22.93359375 -2.3828125 84.3037109375 c 1
 -2.3076171875 90.279296875 0.9619140625 91.1953125 3.322265625 91.1953125 c 0
 6.5712890625 91.1953125 8.6337890625 90.0791015625 8.6337890625 86.7001953125 c 0
 8.6337890625 75.951171875 8.6318359375 71.123046875 8.6318359375 59.138671875 c 0
 8.6318359375 48.1078567406 8.63174606754 35.9676099976 8.63174606754 22.8467792614 c 0
 8.63174606754 -216.363950186 8.66161730213 -781.504010143 9.810546875 -891.783203125 c 0
 10.1911901753 -928.318981267 13.1866228255 -941.601223065 13.1866228255 -956.682220738 c 4
 13.1866228255 -964.784557602 10.2221609071 -967.249023438 3.623046875 -967.249023438 c 0
 -1.09765625 -967.249023438 -4.4951171875 -966.403320312 -4.4951171875 -962.161132812 c 0
EndSplineSet
Refer: 80 232 N 1 0 0 1 0 0 2
EndChar

StartChar: clivisFinal4thBlack
Encoding: 131 201 76
AltUni2: 00f083.ffffffff.0
Width: 169
Flags: HMW
HStem: -177 21 -23 27 236 30 412 24
VStem: 32 62 167 59 439 161 610 25 777 59
LayerCount: 2
Fore
SplineSet
-3.830078125 464.971679688 m 5
 -1.923828125 465.344726562 0.1630859375 466 2.615234375 466 c 4
 4.595703125 466 6.81640625 465.572265625 9.3701171875 464.22265625 c 5
 9.3701171875 388.017578125 l 4
 9.3701171875 263.091796875 l 4
 9.3701171875 147.16015625 l 4
 9.3701171875 -2.0009765625 l 4
 9.3701171875 -80.455078125 l 4
 9.3701171875 -88.9501953125 l 5
 8.1552734375 -91.25 5.9462890625 -92.822265625 3.6005859375 -92.822265625 c 4
 0.849609375 -92.822265625 -2.08984375 -90.65625 -3.830078125 -84.9521484375 c 5
 -3.830078125 -77.4560546875 l 4
 -3.830078125 20.9853515625 l 4
 -3.830078125 173.14453125 l 4
 -3.830078125 295.073242188 l 4
 -3.830078125 399.010742188 l 4
 -3.830078125 464.971679688 l 5
EndSplineSet
Refer: 43 88 N 1 0 0 1 -2 -1.33333 2
EndChar

StartChar: clivisFinal5thBlack
Encoding: 132 209 77
AltUni2: 00f084.ffffffff.0
Width: 167
Flags: HMW
HStem: -177 21 -23 27 236 30 412 24
VStem: 32 62 167 59 439 161 610 25 777 59
LayerCount: 2
Fore
SplineSet
-5.83984375 588.4921875 m 5
 -3.93359375 588.948242188 -1.8466796875 589.75 0.60546875 589.75 c 4
 2.5859375 589.75 4.8056640625 589.2265625 7.3603515625 587.576171875 c 5
 7.3603515625 495.853515625 l 0
 7.3603515625 343.032226562 l 0
 7.3603515625 201.211914062 l 0
 7.3603515625 18.7431640625 l 0
 7.3603515625 -77.2294921875 l 0
 7.3603515625 -87.62109375 l 1
 6.1455078125 -90.4345703125 3.9365234375 -92.359375 1.5908203125 -92.359375 c 0
 -1.1611328125 -92.359375 -4.099609375 -89.7080078125 -5.83984375 -82.7314453125 c 1
 -5.83984375 -73.5615234375 l 0
 -5.83984375 46.861328125 l 0
 -5.83984375 232.999023438 l 0
 -5.83984375 382.154296875 l 0
 -5.83984375 509.301757812 l 0
 -5.83984375 588.4921875 l 5
EndSplineSet
Refer: 43 88 N 1 0 0 1 -3.75 -1.33333 2
EndChar

StartChar: pesInitial3rdBlack
Encoding: 137 226 78
AltUni2: 00f089.ffffffff.0
Width: 171
Flags: HMW
HStem: -177 21 -23 27 236 30 412 24
VStem: 32 62 167 59 439 161 610 25 777 59
LayerCount: 2
Fore
SplineSet
158.690429688 212.53125 m 0
 158.690429688 249.923828125 158.690429688 278.4609375 158.690429688 315.853515625 c 0
 158.690429688 323.725585938 158.690429688 329.84765625 158.690429688 337.719726562 c 1
 160.74590595 338.909801274 163.304710015 339.560351314 166.65848885 339.560351314 c 0
 168.091383051 339.560351314 169.76785973 339.381398193 171.440429688 338.736328125 c 1
 171.440429688 329.879882812 171.440429688 321.7578125 171.440429688 313.885742188 c 0
 171.440429688 275.508789062 171.440429688 243.036132812 171.440429688 204.659179688 c 0
 171.440429688 178.090820312 171.440429688 151.521484375 171.440429688 124.953125 c 0
 171.440429688 96.4169921875 171.440429688 65.912109375 171.440429688 37.375 c 0
 171.440429688 8.8388671875 171.440429688 -8.6279296875 171.440429688 -36.1806640625 c 0
 171.440429688 -47.0048828125 171.440429688 -57.8291015625 171.440429688 -67.6689453125 c 0
 171.440429688 -72.5888671875 171.440429688 -78.4931640625 171.440429688 -83.4130859375 c 1
 169.740234375 -84.3974609375 168.040039062 -85.3818359375 166.33984375 -85.3818359375 c 0
 165.490234375 -85.3818359375 164.640625 -85.3818359375 163.790039062 -85.3818359375 c 0
 162.08984375 -85.3818359375 160.390625 -85.3818359375 158.690429688 -83.4130859375 c 1
 158.690429688 -75.541015625 158.690429688 -66.685546875 158.690429688 -58.8125 c 0
 158.690429688 -18.4677734375 158.690429688 7.8544921875 158.690429688 48.19921875 c 0
 158.690429688 66.8955078125 158.690429688 85.5927734375 158.690429688 104.2890625 c 0
 158.690429688 120.033203125 158.690429688 136.76171875 158.690429688 153.490234375 c 0
 158.690429688 173.169921875 158.690429688 192.850585938 158.690429688 212.53125 c 0
170.5 -21 m 0
 170.5 -42 171.5 -74 171.5 -85 c 0
 171.5 -94 165.5 -96 154.5 -96 c 0
 137.5 -96 109.5 -93 88.5 -93 c 0
 78.5 -93 71.5 -92 61.5 -92 c 0
 58.5 -92 57.5 -92 53.5 -92 c 0
 35.5 -92 15.5 -92 7.5 -95 c 0
 4.5 -96 4.5 -97 4.5 -97 c 0
 3.5 -97 l 0
 -0.5 -97 -1.5 -93 -1.5 -86 c 0
 -1.5 -86 -1.5 -85 -1.5 -84 c 0
 -1.5 -56 0.5 -29 0.5 -1 c 0
 0.5 23 -0.5 55.75 -1.5 81.75 c 0
 -1.5 87.75 0.5 89.75 4.5 89.75 c 0
 20.5 90.75 44.5 92.25 73.5 92.25 c 0
 77.5 92.25 81.5 92.25 85.5 92.25 c 0
 99.5 92.25 114.5 92.25 128.5 91.5 c 0
 140.524414062 90.85546875 151.5 90.75 162.5 90.75 c 0
 171.5 90.75 171.5 82.75 171.5 75.75 c 0
 171.5 69.75 171.5 61 171.5 55 c 0
 171.5 31 170.5 5 170.5 -21 c 0
EndSplineSet
EndChar

StartChar: pesInitial4thBlack
Encoding: 138 228 79
AltUni2: 00f08a.ffffffff.0
Width: 171
Flags: HMW
HStem: -177 21 -23 27 236 30 412 24
VStem: 32 62 167 59 439 161 610 25 777 59
LayerCount: 2
Fore
SplineSet
156.25 462.470703125 m 5
 158.416015625 462.844726562 160.788085938 464.000976562 163.57421875 464.500976562 c 4
 165.790039062 464.8984375 170.28515625 465.415039062 173.1875 464.0625 c 5
 173.568359375 462.889648438 173.712890625 461.606445312 173.712890625 460.338867188 c 4
 173.712890625 459.365234375 173.627929688 458.400390625 173.5 457.5 c 4
 172.92578125 453.466796875 172.927734375 443.4375 172.75 439.583007812 c 4
 172.057617188 424.553710938 171.997922787 412.792877841 171.997922787 399.193004258 c 0
 171.997922787 396.340851517 172.000561302 393.37482853 172.000561302 390.233989186 c 0
 172.000561302 389.458935458 172.000400633 388.673236519 172 387.875976562 c 0
 171.25 262.72265625 l 0
 171.25 146.580078125 l 0
 171.25 -2.853515625 l 0
 171.25 -81.4501953125 l 0
 171.25 -89.9609375 l 1
 169.870117188 -92.2646484375 167.359375 -93.8408203125 164.694335938 -93.8408203125 c 0
 161.567382812 -93.8408203125 158.227539062 -91.669921875 156.25 -85.9560546875 c 1
 156.25 -78.4462890625 l 0
 156.25 20.1748046875 l 0
 156.25 172.611328125 l 0
 156.25 294.76171875 l 0
 156.25 398.889648438 l 0
 156.25 462.470703125 l 5
EndSplineSet
Refer: 43 88 N 1 0 0 1 0.5 -1.33333 2
EndChar

StartChar: porrectusObl2ndCrushedBlack
Encoding: 152 242 81
AltUni2: 00f098.ffffffff.0
Width: 523
Flags: HMW
HStem: -75 21G<475 475> 179 20G<0 0>
LayerCount: 2
Fore
SplineSet
523 -125.4765625 m 1
 514.504882812 -128.975585938 505.329101562 -129.583007812 496.518554688 -129.583007812 c 0
 408.384765625 -129.583007812 311.038085938 -86.1259765625 240.900390625 -55.5 c 0
 172.104492188 -25.4599609375 104.603515625 9.5859375 0 34.5 c 1
 0 216 l 1
 120.62890625 193.03515625 202.093439408 147.844020839 260.700195312 120.75 c 0
 334.684570312 86.546875 423.348632812 41.3525390625 484.083984375 41.3525390625 c 0
 496.184570312 41.3525390625 509.420898438 42.2236328125 523 49.0234375 c 1
 523 -125.4765625 l 1
EndSplineSet
EndChar

StartChar: porrectusObl3rdCrushedBlack
Encoding: 153 244 82
AltUni2: 00f099.ffffffff.0
Width: 628
Flags: HMW
HStem: -75 21G<475 475> 179 20G<0 0>
LayerCount: 2
Fore
SplineSet
627.997070312 -125.548828125 m 1
 617.803710938 -129.27734375 606.39453125 -131.109375 595.822265625 -131.109375 c 0
 490.061523438 -131.109375 373.24609375 -35.7568359375 289.080078125 12.01953125 c 0
 206.525390625 58.8828125 125.524414062 109.494140625 0 159.01953125 c 1
 0 339.66015625 l 1
 144.754882812 295.905273438 242.806510709 233.215349804 312.83984375 189.540039062 c 0
 401.62109375 134.172851562 515.518554688 40.6103515625 580.900390625 40.6103515625 c 0
 595.421875 40.6103515625 611.702148438 41.962890625 627.997070312 49.7705078125 c 1
 627.997070312 -125.548828125 l 1
EndSplineSet
EndChar

StartChar: porrectusObl4thCrushedBlack
Encoding: 154 246 83
AltUni2: 00f09a.ffffffff.0
Width: 725
Flags: HW
HStem: -75 21G<451 451> 179 20G<0 0>
LayerCount: 2
Fore
SplineSet
725 -124 m 1
 710.139282227 -129.341918945 690 -131.5 675.5 -131.5 c 0
 554.5 -131.5 397.5 1 305.5 80 c 0
 217.5 155 143 210 0 283 c 1
 0 465 l 1
 165 396 256.518554688 324.565429688 335.25 259.75 c 0
 436.825717226 176.128090969 578.5 38.25 658.5 38.25 c 0
 659.86 38.25 671.306640625 38.2470703125 672.826171875 38.2470703125 c 0
 690.306640625 38.2470703125 707.52 38.67 725 49.25 c 1
 725 -124 l 1
EndSplineSet
EndChar

StartChar: porrectusObl5thCrushedBlack
Encoding: 155 245 84
AltUni2: 00f09b.ffffffff.0
Width: 819
Flags: HMW
HStem: -75 21G<428 428> 179 20G<0 0>
LayerCount: 2
Fore
SplineSet
819 -124 m 1
 806 -129 771 -133.75 757 -133.75 c 0
 620 -133.75 446.5 23.75 341 120.5 c 0
 238.322973596 214.661159285 143 317 0 410 c 1
 0 590 l 1
 170.5 490 280.395507812 396.416992188 372 313.5 c 0
 489.169921875 207.44140625 646.5 40.5 738 40.5 c 4
 767 40.5 785.270507812 42.44140625 819 53.5 c 5
 819 -124 l 1
EndSplineSet
EndChar

StartChar: porrectusObl6thCrushedBlack
Encoding: 156 250 85
AltUni2: 00f09c.ffffffff.0
Width: 917
Flags: HMW
HStem: -75 21G<479 479> 179 20G<0 0>
LayerCount: 2
Fore
SplineSet
917 -127.25 m 5
 886.095060607 -138.197929707 844 -140 828 -140 c 4
 687.5 -140 497.5 70.5 382 196 c 4
 270.842652223 316.781360571 165.257197188 423.096306192 0 533.5 c 5
 0 715.5 l 5
 195.263365805 593.133353561 328.86328125 486.487304688 426 382.5 c 4
 552.127969994 247.476830449 719 39.5 807 39.5 c 4
 811.607263197 39.5 817.957532615 39.3622742584 825.399923927 39.3622742584 c 0
 851.880104617 39.3622742584 892.186013036 41.1058146235 917 57 c 5
 917 -127.25 l 5
EndSplineSet
EndChar

StartChar: porrectusObl7thCrushedBlack
Encoding: 157 249 86
AltUni2: 00f09d.ffffffff.0
Width: 1018
Flags: HMW
HStem: -75 21G<479 479> 179 20G<0 0>
LayerCount: 2
Fore
SplineSet
1018 -127.25 m 1
 994.732436538 -137.712166309 976.604865158 -142.385252683 953.179439906 -142.385252683 c 0
 945.066313895 -142.385252683 936.317708521 -141.824714393 926.5 -140.75 c 0
 882.208984375 -135.903320312 829.450266694 -116.246218848 774.500005188 -80.1139026283 c 0
 651.037461631 1.06838009264 514.652647944 148.525272918 424 250.25 c 0
 298.073685011 391.556628271 181.717142563 519.960823531 0 659.75 c 1
 0 841.25 l 1
 216.028006896 685.591790196 376.505859375 527.493164062 487.5 408 c 0
 628.677734375 256.012695312 802.875663856 48.6601817215 903.5 39.25 c 0
 921.422103727 37.5739615846 935.243323999 36.5749406265 947.428417955 36.5749406265 c 0
 971.102785166 36.5749406265 988.60103097 40.3460887752 1018 50.25 c 1
 1018 -127.25 l 1
EndSplineSet
EndChar

StartChar: porrectusObl8vaCrushedBlack
Encoding: 158 251 87
AltUni2: 00f09e.ffffffff.0
Width: 1120
Flags: HMW
HStem: -75 21G<527 527> 179 20G<0 0>
LayerCount: 2
Fore
SplineSet
1120 -127.25 m 1
 1090.93225098 -142.210189819 1048.25 -143.25 1020 -143.25 c 0
 892 -143.25 649 119.5 505 285 c 0
 363.62890625 447.478515625 195.5 627.75 0 793.75 c 1
 0 970 l 1
 229 792 424.5 599.5 543.5 463.5 c 0
 703.657334632 280.463046135 897.5 45 994 37.5 c 0
 1003.12768208 36.7905946566 1015.37901106 35.843265905 1029.8380397 35.843265905 c 0
 1054.86208017 35.843265905 1086.49878716 38.6807755757 1120 50.5 c 1
 1120 -127.25 l 1
EndSplineSet
EndChar

StartChar: obliqueDesc6thBlack
Encoding: 164 167 92
AltUni2: 00f0a4.ffffffff.0
Width: 668
Flags: HMW
HStem: 0 13 166 17 211 114
VStem: 2 75 175 63
LayerCount: 2
Fore
SplineSet
0 716.5 m 1
 79.2157260707 698.602199357 277.720703125 550.532226562 396.5 436.25 c 0
 504.984375 331.873046875 592.920898438 216.952148438 660.984375 106.25 c 0
 664.997070312 99.724609375 668 95.5732421875 668 84.5 c 2
 668 -90.75 l 1
 589 37.25 452.702148438 186.456054688 366 272 c 0
 269.752929688 366.9609375 92.73828125 497.880859375 0 531.75 c 5
 0 716.5 l 1
EndSplineSet
EndChar

StartChar: obliqueDesc7thBlack
Encoding: 165 8226 93
AltUni2: 00f0a5.ffffffff.0
Width: 764
Flags: HMW
HStem: 0 18 310 17
VStem: 0 31 232 32
LayerCount: 2
Fore
SplineSet
0 842.25 m 1
 144.597518987 783.116515468 310.453125 654.616210938 455 502.958007812 c 0
 579.344197141 372.495592419 687.565907319 223.071715037 753.62890625 111.833007812 c 0
 759.557926833 101.849558749 764 96.2568359375 764 80.0830078125 c 2
 764 -91.5 l 1
 679 35.5 567.806640625 174.233398438 455 290 c 0
 320.76953125 427.75390625 122.477539062 595.698242188 0 656.5 c 5
 0 842.25 l 1
EndSplineSet
EndChar

StartChar: obliqueDesc8vaBlack
Encoding: 166 182 94
AltUni2: 00f0a6.ffffffff.0
Width: 868
Flags: HMW
HStem: 262 25
LayerCount: 2
Fore
SplineSet
0 970.25 m 1
 187.244826096 872.344361381 377.76953125 711.571289062 516 569.75 c 0
 684.386441491 399.439142035 799.07421875 234.359375 860.953125 109.5 c 0
 864.989257812 101.356445312 868 97.134765625 868 84.5 c 2
 868 -93 l 1
 782.493335078 44.2390782579 609 259.674804688 489 386.674804688 c 0
 352 532.674804688 114.005859375 724.701171875 0 786.5 c 5
 0 970.25 l 1
EndSplineSet
EndChar

StartChar: copyright
Encoding: 169 169 96
AltUni2: 00f0a9.ffffffff.0
Width: 128
Flags: MW
VStem: 130 19
LayerCount: 2
Fore
SplineSet
107.5 -16.9482421875 m 6
 107.5 16.9404296875 l 6
 107.5 27.8447265625 104.557617188 36.400390625 97.58203125 39.6064453125 c 4
 86.7607421875 44.580078125 75.185546875 47.35546875 63.673828125 47.35546875 c 4
 53.0146484375 47.35546875 42.4091796875 44.9765625 32.505859375 39.759765625 c 4
 25.544921875 36.09375 20.5 26.4267578125 20.5 14.677734375 c 6
 20.5 -17.83984375 l 6
 20.5 -31.998046875 31.7099609375 -34.8369140625 41.2119140625 -36.0390625 c 4
 49.09765625 -37.037109375 56.5341796875 -37.5654296875 64.0595703125 -37.5654296875 c 4
 71.5322265625 -37.5654296875 79.091796875 -37.0439453125 87.263671875 -35.94140625 c 4
 97.30859375 -34.5859375 107.5 -30.4794921875 107.5 -16.9482421875 c 6
128 -32 m 1
 128 -70 l 1
 128 -176 l 1
 125.404269126 -179.114877049 122.808538252 -180.882190343 120.352723892 -180.882190343 c 0
 118.078051003 -180.882190343 115.923415301 -179.365976777 114 -176 c 1
 114 -78.3544921875 l 2
 114 -65.091796875 107.689193323 -62.2525303418 98.6666672248 -58.9372464636 c 0
 88.4131593791 -55.1696442547 77.9047931367 -53 70 -53 c 0
 50 -53 20 -57 0 -70 c 1
 0 57 l 1
 33.1052631579 72.2105263158 49.3984375 73.5107421875 68.220703125 73.5107421875 c 0
 93.2880859375 73.5107421875 107.374639524 68.4585335979 128 57 c 1
 128 -32 l 1
EndSplineSet
Validated: 1
EndChar

StartChar: mensuralLongaWhite
Encoding: 170 8482 97
AltUni2: 00e95d.ffffffff.0 00f0aa.ffffffff.0
Width: 180
VWidth: 1567
Flags: HMW
HStem: -410.85 44.55 39.6 227.7 369.6 37.95
VStem: -6.72335 206.91 628.527 116.16
LayerCount: 2
Fore
SplineSet
79 53.5 m 0
 61 53.5 54.5 53.5 42.5 52.5 c 0
 26.5 51.5 13.5 41.5 13.5 29.5 c 0
 13.5 17.5 13.5 10 13.5 -1 c 0
 13.5 -3 13.5 -7.5 13.5 -9.5 c 0
 13.5 -22.5 13.5 -28.5 14.5 -41.5 c 0
 14.5 -47.5 17.5 -55.5 26.5 -56.5 c 0
 40.5 -57.5 64 -58.5 80 -58.5 c 0
 81 -58.5 85.5 -58.5 86.5 -58.5 c 0
 100.5 -58.5 112.5 -57.5 129.5 -55.5 c 0
 143.5 -53.5 155.5 -42.5 155.5 -26.5 c 2
 155.5 -26.5 155.5 0.5 155.5 12.5 c 0
 155.5 22.5 155.5 29.5 155.5 37.5 c 0
 155.5 46.5 148.5 51.5 139.5 51.5 c 0
 123.5 52.5 98 53.5 79 53.5 c 0
8.76171875 -97.375 m 1048
169.237304688 -560.393554688 m 0
 159.737304688 -560.393554688 158.787109375 -554.526367188 158.787109375 -545.723632812 c 0
 158.787109375 -543.767578125 161.637695312 -527.141601562 162.587890625 -511.494140625 c 0
 164.487304688 -474.330078125 165.4375 -429.341796875 165.4375 -368.706054688 c 0
 165.4375 -341.322265625 165.4375 -309.047851562 165.4375 -269.927734375 c 0
 165.4375 -196.578125 163.302734375 -143.899414062 162.887695312 -120.293945312 c 0
 162.559570312 -101.66015625 163.76953125 -96.064453125 151.5 -93.5 c 0
 140.706054688 -91.244140625 116.715820312 -89.6376953125 79.4873046875 -89.6376953125 c 0
 79.3056640625 -89.6376953125 79.123046875 -89.6376953125 78.9404296875 -89.6376953125 c 0
 56.9814453125 -89.646484375 33.5810546875 -90.3564453125 14.89453125 -92.541015625 c 0
 10.458984375 -93.0595703125 9.3525390625 -99.3056640625 5.43359375 -99.3056640625 c 0
 4.93359375 -99.3056640625 4.3876953125 -99.2041015625 3.7841796875 -98.9765625 c 0
 1.9609375 -98.2890625 0.7294921875 -97.021484375 -0.615234375 -95.7822265625 c 0
 -2.60546875 -93.9482421875 -3.6513671875 -91.013671875 -3.6513671875 -86.6083984375 c 0
 -3.6513671875 -58.24609375 -1.935546875 -29.33984375 -1.935546875 0 c 0
 -1.935546875 26.7734375 -3.6513671875 60.01953125 -3.6513671875 89.564453125 c 0
 -3.6513671875 93.212890625 -2.03515625 96.998046875 0.5947265625 98.380859375 c 0
 2.15625 99.203125 4.07421875 99.6171875 6.224609375 99.6171875 c 0
 6.2763671875 99.6171875 6.328125 99.6162109375 6.380859375 99.6162109375 c 0
 8.1396484375 99.599609375 9.7998046875 93.37109375 11.3740234375 93.306640625 c 0
 33.3173828125 92.4072265625 41.626953125 89.09375 85.6279296875 89.09375 c 0
 111.629882812 89.09375 129.293945312 91.8876953125 156.887695312 92.3876953125 c 0
 160.385742188 92.451171875 167.670898438 97.2734375 171.4921875 97.2734375 c 4
 171.8203125 97.2734375 172.13671875 97.2373046875 172.4375 97.16015625 c 4
 174.584960938 96.607421875 176.264648438 95.5859375 177.573242188 94.25 c 4
 180.893554688 90.859375 181.571289062 84.6943359375 181.6875 79.7841796875 c 4
 181.993164062 66.861328125 182.047851562 50.3515625 182.047851562 32.75 c 4
 182.047851562 23.044921875 182.03125 13.0068359375 182.03125 3.056640625 c 4
 182.03125 -24.939453125 181.912109375 -53.24609375 181.912109375 -84.5419921875 c 4
 181.912109375 -147.133789062 181.912109375 -218.09375 181.912109375 -271.883789062 c 4
 181.912109375 -285.576171875 181.912109375 -298.290039062 181.912109375 -310.026367188 c 4
 181.912109375 -379.463867188 180.487304688 -433.25390625 180.487304688 -473.3515625 c 4
 180.487304688 -475.307617188 180.487304688 -476.286132812 180.487304688 -478.2421875 c 4
 180.487304688 -501.713867188 182.387695312 -519.318359375 182.387695312 -534.965820312 c 4
 182.387695312 -536.831054688 182.418945312 -538.918945312 182.418945312 -541.001953125 c 4
 182.418945312 -544.379882812 182.337890625 -547.745117188 181.912109375 -550.125 c 4
 180.302734375 -559.1328125 178.737304688 -560.393554688 169.237304688 -560.393554688 c 0
EndSplineSet
EndChar

StartChar: acute
Encoding: 171 180 98
AltUni2: 00f0ab.ffffffff.0
Width: 128
Flags: MW
HStem: -121 21G 90 20G
LayerCount: 2
Fore
SplineSet
107.5 -18.9482421875 m 6
 107.5 14.9404296875 l 6
 107.5 25.8447265625 104.557617188 34.400390625 97.58203125 37.6064453125 c 4
 86.7607421875 42.580078125 75.185546875 45.35546875 63.673828125 45.35546875 c 4
 53.0146484375 45.35546875 42.4091796875 42.9765625 32.505859375 37.759765625 c 4
 25.544921875 34.09375 20.5 24.4267578125 20.5 12.677734375 c 6
 20.5 -19.83984375 l 6
 20.5 -33.998046875 31.7099609375 -36.8369140625 41.2119140625 -38.0390625 c 4
 49.09765625 -39.037109375 56.5341796875 -39.5654296875 64.0595703125 -39.5654296875 c 4
 71.5322265625 -39.5654296875 79.091796875 -39.0439453125 87.263671875 -37.94140625 c 4
 97.30859375 -36.5859375 107.5 -32.4794921875 107.5 -18.9482421875 c 6
128 -450 m 1
 126.320550528 -451.679449472 124.01431205 -453.04550444 121.256727977 -453.04550444 c 0
 119.088440591 -453.04550444 116.641101056 -452.200917547 114 -450 c 1
 114 -86 l 2
 114 -71.91015625 108.136276121 -67.7463326273 98 -65.6883909152 c 0
 87.0661859596 -63.4685271587 77.2673565591 -63 67 -63 c 0
 47 -63 21 -69 0 -76 c 1
 0 59 l 1
 19 71 48 75.75 70 75.75 c 0
 92 75.75 105 72 128 62 c 1
 128 -450 l 1
EndSplineSet
Validated: 1
EndChar

StartChar: dieresis
Encoding: 172 168 99
AltUni2: 00f0ac.ffffffff.0
Width: 128
Flags: MW
HStem: 213 85
VStem: 83 85
LayerCount: 2
Fore
SplineSet
107.5 -20.6982421875 m 6
 107.5 13.1904296875 l 6
 107.5 24.0947265625 104.557617188 32.650390625 97.58203125 35.8564453125 c 4
 86.7607421875 40.830078125 75.185546875 43.60546875 63.673828125 43.60546875 c 4
 53.0146484375 43.60546875 42.4091796875 41.2265625 32.505859375 36.009765625 c 4
 25.544921875 32.34375 20.5 22.6767578125 20.5 10.927734375 c 6
 20.5 -21.58984375 l 6
 20.5 -35.748046875 31.7099609375 -38.5869140625 41.2119140625 -39.7890625 c 4
 49.09765625 -40.787109375 56.5341796875 -41.3154296875 64.0595703125 -41.3154296875 c 4
 71.5322265625 -41.3154296875 79.091796875 -40.7939453125 87.263671875 -39.69140625 c 4
 97.30859375 -38.3359375 107.5 -34.2294921875 107.5 -20.6982421875 c 6
128 -75 m 1
 110 -69 82 -63 67 -63 c 0
 47 -63 24 -68 0 -76 c 1
 0 59 l 1
 26 73 48 75 70 75 c 0
 83.6149813768 75 94.0229088109 73.7171784229 105.333333333 70.6378413898 c 0
 106.354120756 70.3599253392 107.258550949 70.2279942653 108.059580004 70.2279942653 c 0
 113.357652443 70.2279942653 114.132329309 75.999462955 114.132329309 83.4760403925 c 0
 114.132329309 86.5661263794 114 89.9474768563 114 93.3330078125 c 2
 114 430 l 1
 116.641101056 432.200917547 119.088440591 433.04550444 121.256727977 433.04550444 c 0
 124.01431205 433.04550444 126.320550528 431.679449472 128 430 c 1
 128 379 128 -32 128 -75 c 1
EndSplineSet
Validated: 1
EndChar

StartChar: plicaLongaDescWhite
Encoding: 174 198 100
AltUni2: 00f0ae.ffffffff.0
Width: 161
VWidth: 1500
Flags: HMW
VStem: -3.09 61.8 281.19 61.8 563.925 61.8
LayerCount: 2
Fore
SplineSet
-4.7529296875 -333.520507812 m 0
 -4.7529296875 -329.465820312 -2.7529296875 -325.284179688 -2.7529296875 -321.37109375 c 0
 -0.755859375 -238.88671875 -0.7529296875 -238.412109375 -0.7529296875 -145.737304688 c 2
 -0.7529296875 -144.921875 l 2
 -0.7529296875 -129.345206476 -0.790219784329 -114.177602874 -0.790219784329 -99.3477081507 c 0
 -0.790219784329 -93.6492801534 -0.784713894649 -88.0007149343 -0.769470808665 -82.3979641089 c 0
 -0.75610350996 -77.4846779191 -0.73586029862 -72.4250025697 -0.73586029862 -67.3612316883 c 0
 -0.73586029862 -62.7687908101 -0.752510460607 -58.1729813323 -0.806040242123 -53.6799469081 c 0
 -1.22150906164 -18.8074767544 -1.00740753708 14.4853781401 -1.30995233512 47.2497493829 c 0
 -1.83361334247 60.8847760245 -2.45997228842 74.6770112077 -3.068359375 87.1044921875 c 0
 -3.07003760943 87.2304007026 -3.07087848548 87.3545807357 -3.07087848548 87.477046522 c 0
 -3.07087848548 92.8190253044 -1.47092723843 94.899273308 2.02093054597 94.899273308 c 0
 2.14376960549 94.899273308 2.2689499784 94.8966989141 2.396484375 94.8916015625 c 0
 8.63951164366 95.0628628197 16.1964304594 95.181616777 24.8610190455 95.181616777 c 0
 36.7991673692 95.181616777 50.8400691309 94.9561792877 66.4443359375 94.33203125 c 0
 70.1591796875 94.1826171875 73.8740234375 94.0341796875 77.587890625 93.8857421875 c 0
 90.5888671875 93.3662109375 104.53125 91.8076171875 117.544921875 90.2861328125 c 0
 128.236036797 88.8993291089 144.017444434 87.2814257652 152.988955838 86.1013741665 c 0
 156.65946306 85.6185806082 159 85.1778316171 159 82.9404296875 c 1
 159 75.359375 158.997070312 71.9541015625 158.997070312 63.501953125 c 0
 158.997070312 25.6653034625 159.51171875 -16.6953125 159.553710938 -60.19921875 c 0
 159.757699068 -66.4040445256 159.785845713 -72.1702292468 159.785845713 -76.966118209 c 0
 159.785845713 -78.7940518656 159.781756787 -80.4810284882 159.781756787 -81.9976103961 c 2
 159.785198175 -187.905679464 l 2
 159.785198175 -271.324673663 159.874664418 -348.373239755 160.497070312 -388.502929688 c 0
 160.970703125 -419.045898438 163.254882812 -433.697265625 164.754882812 -456.064453125 c 0
 164.774624625 -456.358672691 164.784481067 -456.64460104 164.784481067 -456.922384292 c 0
 164.784481067 -462.759356152 160.432537925 -465 151.997070312 -465 c 0
 145.997070312 -465 141.997070312 -462.463867188 141.997070312 -458.237304688 c 0
 141.997070312 -456.546875 142.997070312 -453.166015625 142.997070312 -451.475585938 c 0
 142.997070312 -449.78515625 143.997070312 -447.249023438 143.997070312 -445.55859375 c 0
 145.997070312 -359.341796875 145.997070312 -258.754882812 145.997070312 -161.549804688 c 2
 145.997070312 -159.984375 l 2
 145.997070312 -139.726575499 145.984975855 -120.109891727 145.981808986 -101 c 0
 145.981219843 -97.4449201492 145.90028031 -96.3846454143 140.658203125 -95.92578125 c 0
 124.872070312 -94.5439453125 102.331054688 -91.25 82.830078125 -90.470703125 c 0
 73.5439453125 -90.0986328125 67.0302734375 -88.837890625 57.744140625 -88.4658203125 c 0
 54.9580078125 -88.3544921875 54.029296875 -88.3173828125 50.3154296875 -88.1689453125 c 0
 42.6739595284 -87.8631436499 34.6445350289 -87.5420360559 27.4728937941 -87.5420360559 c 0
 21.8876257257 -87.5420360559 16.8226273193 -87.7367968379 12.866339642 -88.2852278969 c 1
 13.423615708 -158.72399531 14.2649645072 -217.59432002 14.9970703125 -264.674804688 c 0
 15.37890625 -289.241210938 15.2177734375 -302.65234375 15.630859375 -320.563476562 c 0
 15.6728515625 -322.400390625 16.9560546875 -324.28515625 16.9765625 -326.233398438 c 0
 16.9951171875 -327.916015625 17.7548828125 -330.458007812 17.7548828125 -332.248046875 c 0
 17.7548828125 -338.463867188 15.083984375 -340 6.2470703125 -340 c 0
 0.2470703125 -340 -4.7529296875 -337.5703125 -4.7529296875 -333.520507812 c 0
84.064453125 56 m 4
 65.064453125 56 42.064453125 55 26.064453125 54 c 4
 17.064453125 54 15.564453125 49 15.564453125 40 c 4
 15.564453125 32 15.564453125 25 15.564453125 15 c 6
 15.564453125 -17.2587890625 l 6
 15.583984375 -20.3818359375 15.60546875 -23.5234375 15.6279296875 -26.6865234375 c 4
 16.330078125 -41.224609375 22.8623046875 -51.1142578125 36.064453125 -53 c 4
 53.064453125 -55 65.064453125 -56 79.064453125 -56 c 4
 80.064453125 -56 82.064453125 -56 83.064453125 -56 c 4
 99.064453125 -56 120.064453125 -55 134.064453125 -54 c 4
 143.064453125 -53 146.064453125 -45 146.064453125 -39 c 4
 147.064453125 -26 147.064453125 -20 147.064453125 -7 c 4
 147.064453125 -5 147.064453125 -3 147.064453125 -1 c 4
 147.064453125 6.3330078125 147.5 12.4619140625 147.5 19.27734375 c 4
 147.5 22.6845703125 147.390625 26.263671875 147.064453125 30.25 c 4
 146.081054688 42.25 134.028320312 51.1806640625 118.064453125 53.5 c 4
 106.045898438 55.24609375 102.064453125 56 84.064453125 56 c 4
EndSplineSet
EndChar

StartChar: plicaBrevisAscWhite
Encoding: 175 216 101
AltUni2: 00f0af.ffffffff.0
Width: 161
VWidth: 1500
Flags: HMW
VStem: -3.09 61.8 281.19 61.8 563.925 61.8
LayerCount: 2
Fore
SplineSet
79 56 m 4
 61 56 57.0185546875 55.24609375 45 53.5 c 4
 29.0361328125 51.1806640625 16.9833984375 42.25 16 30.25 c 4
 15.6735026042 26.2633463542 15.5646701389 22.6844618056 15.5646701389 19.2770543981 c 4
 15.5646701389 12.4622395833 16 6.33333333333 16 -1 c 4
 16 -3 16 -5 16 -7 c 4
 16 -20 16 -26 17 -39 c 4
 17 -45 20 -53 29 -54 c 4
 43 -55 64 -56 80 -56 c 4
 81 -56 83 -56 84 -56 c 4
 98 -56 110 -55 127 -53 c 4
 140.202016571 -51.1139976328 146.734648899 -41.2247341748 147.436461149 -26.6864694526 c 4
 147.459047348 -23.5231833841 147.480198829 -20.382101281 147.5 -17.2590700821 c 6
 147.5 15 l 6
 147.5 25 147.5 32 147.5 40 c 4
 147.5 49 146 54 137 54 c 4
 121 55 98 56 79 56 c 4
159.965820312 -12.2880859375 m 0
 159.862304688 -33.314453125 160.641601562 -65.3115234375 160.587890625 -76.3251953125 c 0
 160.543945312 -85.3369140625 154.919921875 -87.5927734375 144.627929688 -88.0595703125 c 0
 128.721679688 -88.779296875 102.538085938 -86.9609375 82.8896484375 -87.8505859375 c 0
 73.533203125 -88.2744140625 66.98828125 -87.5693359375 57.6318359375 -87.9931640625 c 0
 54.82421875 -88.1201171875 53.888671875 -88.162109375 50.146484375 -88.33203125 c 0
 33.3046875 -89.0947265625 14.591796875 -89.94140625 7.091796875 -93.2841796875 c 0
 4.279296875 -94.412109375 4.2744140625 -95.4140625 4.2744140625 -95.4140625 c 0
 3.3388671875 -95.4560546875 l 0
 -0.4033203125 -95.625 -1.3193359375 -91.6630859375 -1.28515625 -84.654296875 c 0
 -1.28515625 -84.654296875 -1.2802734375 -83.65234375 -1.275390625 -82.6513671875 c 0
 -1.138671875 -54.6162109375 0.865234375 -27.498046875 1.001953125 0.537109375 c 0
 1.119140625 24.5673828125 0.33984375 56.564453125 -0.4677734375 82.5546875 c 0
 -0.4384765625 88.5625 1.4423828125 90.6494140625 5.1845703125 90.8193359375 c 0
 20.16015625 92.498046875 42.62109375 94.515625 69.7548828125 95.744140625 c 0
 73.4970703125 95.9130859375 77.240234375 96.0830078125 80.982421875 96.251953125 c 0
 94.08203125 96.8447265625 108.111328125 96.4794921875 121.206054688 96.0712890625 c 0
 132.428710938 95.578125 142.716796875 95.04296875 153.008789062 95.5087890625 c 0
 161.4296875 95.8896484375 161.390625 87.8798828125 161.356445312 80.87109375 c 0
 161.327148438 74.86328125 161.302734375 69.857421875 161.272460938 63.849609375 c 0
 161.155273438 39.8193359375 160.092773438 13.7451171875 159.965820312 -12.2880859375 c 0
144.75 333.881835938 m 0
 144.75 337.705078125 150 340 156 340 c 0
 164.673828125 340 167.771484375 337.861328125 167.771484375 332.236328125 c 0
 167.771484375 330.185546875 167.255859375 328.188476562 167.2265625 326.234375 c 0
 167.196289062 324.21875 166.651367188 322.247070312 166.594726562 320.307617188 c 0
 166.086914062 302.82421875 165.614257812 287.822265625 165 265.053710938 c 0
 163 190.87109375 161 87.62890625 161 -47.7333984375 c 2
 161 -73.5439453125 l 1
 159 -74.30859375 157 -74.5 155 -74.5 c 0
 152 -74.5 148.580078125 -74.2421875 147.25 -70.2939453125 c 1
 147.916992188 -24.408203125 148.02734375 11.7900390625 148.02734375 54.84375 c 0
 148.02734375 76.3701171875 148 99.6103515625 148 126.631835938 c 0
 148 214.579101562 148 244.404296875 146 322.41015625 c 0
 146 326.048828125 144.75 329.962890625 144.75 333.881835938 c 0
-3.75 456.846679688 m 0
 -3.75 461.942382812 1.5 464.999023438 7.5 464.999023438 c 0
 16.173828125 464.999023438 19.271484375 462.150390625 19.271484375 454.654296875 c 0
 19.271484375 451.920898438 18.755859375 449.260742188 18.7265625 446.65625 c 0
 18.6962890625 443.970703125 18.1513671875 441.344726562 18.0947265625 438.758789062 c 0
 17.5869140625 415.463867188 17.1142578125 395.473632812 16.5 365.133789062 c 0
 14.5 266.288085938 12.5 128.71875 12.5 -51.6494140625 c 2
 12.5 -86.041015625 l 1
 10.5 -87.060546875 8.5 -87.3154296875 6.5 -87.3154296875 c 0
 3.5 -87.3154296875 0.080078125 -86.970703125 -1.25 -81.7109375 c 1
 -0.5830078125 -20.568359375 -0.47265625 27.6650390625 -0.47265625 85.033203125 c 0
 -0.47265625 113.716796875 -0.5 144.684570312 -0.5 180.689453125 c 0
 -0.5 297.877929688 -0.5 337.620117188 -2.5 441.561523438 c 0
 -2.5 446.409179688 -3.75 451.625976562 -3.75 456.846679688 c 0
EndSplineSet
EndChar

StartChar: plicaBrevisDescWhite
Encoding: 176 8734 102
AltUni2: 00f0b0.ffffffff.0
Width: 161
VWidth: 1500
Flags: HMW
VStem: -3.09 61.8 281.19 61.8 563.925 61.8
LayerCount: 2
Fore
SplineSet
84.064453125 56 m 0
 65.064453125 56 42.064453125 55 26.064453125 54 c 0
 17.064453125 54 15.564453125 49 15.564453125 40 c 0
 15.564453125 32 15.564453125 25 15.564453125 15 c 2
 15.564453125 -17.2587890625 l 2
 15.583984375 -20.3818359375 15.60546875 -23.5234375 15.6279296875 -26.6865234375 c 0
 16.330078125 -41.224609375 22.8623046875 -51.1142578125 36.064453125 -53 c 0
 53.064453125 -55 65.064453125 -56 79.064453125 -56 c 0
 80.064453125 -56 82.064453125 -56 83.064453125 -56 c 0
 99.064453125 -56 120.064453125 -55 134.064453125 -54 c 0
 143.064453125 -53 146.064453125 -45 146.064453125 -39 c 0
 147.064453125 -26 147.064453125 -20 147.064453125 -7 c 0
 147.064453125 -5 147.064453125 -3 147.064453125 -1 c 0
 147.064453125 6.3330078125 147.5 12.4619140625 147.5 19.27734375 c 0
 147.5 22.6845703125 147.390625 26.263671875 147.064453125 30.25 c 0
 146.081054688 42.25 134.028320312 51.1806640625 118.064453125 53.5 c 0
 106.045898438 55.24609375 102.064453125 56 84.064453125 56 c 0
158.765625 -21.4208984375 m 0
 159.045898438 -42.4482421875 160.401367188 -74.5283203125 160.547851562 -85.54296875 c 0
 160.66796875 -94.5546875 155.123046875 -96.333984375 144.908203125 -95.92578125 c 0
 129.122070312 -95.2939453125 103.081054688 -91.25 83.580078125 -90.470703125 c 0
 74.2939453125 -90.0986328125 67.7802734375 -88.837890625 58.494140625 -88.4658203125 c 0
 55.7080078125 -88.3544921875 54.779296875 -88.3173828125 51.0654296875 -88.1689453125 c 0
 34.349609375 -87.5 15.77734375 -86.7578125 8.388671875 -89.4638671875 c 0
 5.6162109375 -90.3544921875 5.6298828125 -91.35546875 5.6298828125 -91.35546875 c 0
 4.701171875 -91.318359375 l 0
 0.986328125 -91.169921875 0.0048828125 -87.126953125 -0.0888671875 -80.1181640625 c 0
 -0.0888671875 -80.1181640625 -0.1025390625 -79.1162109375 -0.115234375 -78.115234375 c 0
 -0.4892578125 -50.078125 1.0078125 -23.1162109375 0.6337890625 4.9208984375 c 0
 0.3134765625 28.953125 -1.0419921875 61.0322265625 -2.318359375 87.1044921875 c 0
 -2.3984375 93.1123046875 -0.5673828125 95.0400390625 3.146484375 94.8916015625 c 0
 17.9912109375 95.298828125 40.2646484375 95.4091796875 67.1943359375 94.33203125 c 0
 70.9091796875 94.1826171875 74.6240234375 94.0341796875 78.337890625 93.8857421875 c 0
 91.3388671875 93.3662109375 105.28125 91.8076171875 118.294921875 90.2861328125 c 0
 129.452148438 88.8388671875 139.6796875 87.4287109375 149.89453125 87.0205078125 c 0
 158.251953125 86.6865234375 158.359375 78.67578125 158.452148438 71.666015625 c 0
 158.533203125 65.658203125 158.599609375 60.6513671875 158.6796875 54.6435546875 c 0
 159 30.611328125 158.41796875 4.6142578125 158.765625 -21.4208984375 c 0
142.997070312 -333.587890625 m 0
 142.997070312 -329.576171875 144.997070312 -325.4375 144.997070312 -321.565429688 c 0
 146.994140625 -239.94140625 146.997070312 -239.471679688 146.997070312 -147.762695312 c 2
 146.997070312 -146.956054688 l 2
 146.997070312 -62.5751953125 146.994140625 9.6748046875 146 81.3896484375 c 1
 147 85.3974609375 151 87 154 87 c 0
 158.129882812 87 160 86.0537109375 160 82.9921875 c 0
 160 75.8037109375 159.997070312 72.5751953125 159.997070312 64.560546875 c 0
 159.997070312 -77.306640625 161.524414062 -187.653320312 162.747070312 -265.459960938 c 0
 163.12890625 -289.770507812 162.967773438 -303.04296875 163.380859375 -320.766601562 c 0
 163.422851562 -322.583984375 164.706054688 -324.44921875 164.7265625 -326.376953125 c 0
 164.745117188 -328.04296875 165.504882812 -330.557617188 165.504882812 -332.329101562 c 0
 165.504882812 -338.48046875 162.833984375 -340 153.997070312 -340 c 0
 147.997070312 -340 142.997070312 -337.595703125 142.997070312 -333.587890625 c 0
-4.0029296875 -458.194335938 m 0
 -4.0029296875 -456.4921875 -3.0029296875 -453.08984375 -3.0029296875 -451.387695312 c 0
 -3.0029296875 -449.686523438 -2.0029296875 -447.133789062 -2.0029296875 -445.432617188 c 0
 -0.0029296875 -358.65625 -0.0029296875 -257.416992188 -0.0029296875 -159.581054688 c 2
 -0.0029296875 -158.005859375 l 2
 -0.0029296875 -68.4404296875 -0.005859375 8.6728515625 -1 84.794921875 c 1
 -0.9052734375 89.0361328125 3.25 89.6865234375 6.25 89.6865234375 c 0
 10.3798828125 89.6865234375 13 88.89453125 13 86.49609375 c 0
 13 78.8662109375 12.9970703125 75.4384765625 12.9970703125 66.931640625 c 0
 12.9970703125 -83.6513671875 13.224609375 -305.431640625 14.4970703125 -388.006835938 c 0
 14.970703125 -418.748046875 17.2548828125 -433.494140625 18.7548828125 -456.006835938 c 0
 19.189453125 -462.525390625 14.833984375 -465 5.9970703125 -465 c 0
 -0.0029296875 -465 -4.0029296875 -462.448242188 -4.0029296875 -458.194335938 c 0
EndSplineSet
EndChar

StartChar: plusminus
Encoding: 177 177 103
AltUni2: 00f0b1.ffffffff.0
Width: 128
Flags: HMW
HStem: -130 19
LayerCount: 2
Fore
SplineSet
107.5 -20.6982421875 m 6
 107.5 13.1904296875 l 6
 107.5 24.0947265625 104.557617188 32.650390625 97.58203125 35.8564453125 c 4
 86.7607421875 40.830078125 75.185546875 43.60546875 63.673828125 43.60546875 c 4
 53.0146484375 43.60546875 42.4091796875 41.2265625 32.505859375 36.009765625 c 4
 25.544921875 32.34375 20.5 22.6767578125 20.5 10.927734375 c 6
 20.5 -21.58984375 l 6
 20.5 -35.748046875 31.7099609375 -38.5869140625 41.2119140625 -39.7890625 c 4
 49.09765625 -40.787109375 56.5341796875 -41.3154296875 64.0595703125 -41.3154296875 c 4
 71.5322265625 -41.3154296875 79.091796875 -40.7939453125 87.263671875 -39.69140625 c 4
 97.30859375 -38.3359375 107.5 -34.2294921875 107.5 -20.6982421875 c 6
128 -75 m 1
 110 -69 82 -63 67 -63 c 0
 47 -63 24 -68 0 -76 c 1
 0 425 l 1
 2.25708114823 426.354248689 4.51416229645 426.893390928 6.67925537462 426.893390928 c 0
 9.31038568406 426.893390928 11.8056649186 426.097167541 14 425 c 1
 14 83.3330078125 l 2
 14 72.2934917237 15.9624855889 69.2625042354 20.4602552365 69.2625042354 c 0
 22.7410907725 69.2625042354 25.6738851036 70.0419352203 29.3333333333 70.951706859 c 0
 43.425228475 74.4550783321 56.7126142375 75 70 75 c 0
 79.1424323776 75 86.8387735826 74.4215635309 94.3333333333 73.109151878 c 0
 98.7437637391 72.3368182852 102.613252584 71.3362360755 105.726817772 71.3362360755 c 0
 110.911407893 71.3362360755 114 74.1106145542 114 85.3330078125 c 2
 114 430 l 1
 116.641101056 432.200917547 119.088440591 433.04550444 121.256727977 433.04550444 c 0
 124.01431205 433.04550444 126.320550528 431.679449472 128 430 c 1
 128 -75 l 1
EndSplineSet
EndChar

StartChar: ascii178
Encoding: 178 8804 104
AltUni2: 00f0b2.ffffffff.0
Width: 128
Flags: MW
HStem: -14 21G 435 20G
LayerCount: 2
Fore
SplineSet
107.5 -20.6982421875 m 6
 107.5 13.1904296875 l 6
 107.5 24.0947265625 104.557617188 32.650390625 97.58203125 35.8564453125 c 4
 86.7607421875 40.830078125 75.185546875 43.60546875 63.673828125 43.60546875 c 4
 53.0146484375 43.60546875 42.4091796875 41.2265625 32.505859375 36.009765625 c 4
 25.544921875 32.34375 20.5 22.6767578125 20.5 10.927734375 c 6
 20.5 -21.58984375 l 6
 20.5 -35.748046875 31.7099609375 -38.5869140625 41.2119140625 -39.7890625 c 4
 49.09765625 -40.787109375 56.5341796875 -41.3154296875 64.0595703125 -41.3154296875 c 4
 71.5322265625 -41.3154296875 79.091796875 -40.7939453125 87.263671875 -39.69140625 c 4
 97.30859375 -38.3359375 107.5 -34.2294921875 107.5 -20.6982421875 c 6
128 -450 m 1
 126.320550528 -451.679449472 124.01431205 -453.04550444 121.256727977 -453.04550444 c 0
 119.088440591 -453.04550444 116.641101056 -452.200917547 114 -450 c 1
 114 -86.6669921875 l 2
 114 -72.6181640625 109.693525417 -68.187167723 99.3333333333 -65.9666324473 c 0
 87.8586398872 -63.5072222965 77.6829310919 -63 67 -63 c 0
 54.0261760475 -63 39.7373512517 -64.972501265 24.6666690325 -68.3843603751 c 0
 14.9715908968 -70.5792338506 14 -75.61328125 14 -88 c 2
 14 -449 l 1
 11.2570811482 -450.097167541 8.51416229645 -450.893390928 5.93633652285 -450.893390928 c 0
 3.81510644955 -450.893390928 1.80566491858 -450.354248689 0 -449 c 1
 0 -76 l 1
 0 -48 l 1
 0 59 l 1
 26 73 48 75 70 75 c 0
 92 75 105 72 128 62 c 1
 128 -450 l 1
EndSplineSet
Validated: 1
EndChar

StartChar: mensuralMaximaWhite
Encoding: 179 8805 105
AltUni2: 00e95c.ffffffff.0 00f0b3.ffffffff.0
Width: 390
Flags: HMW
HStem: -340.109 36.8902 32.3914 188.05 305.918 31.4916
VStem: -6.174 179.046 543.312 100.548
LayerCount: 2
Fore
SplineSet
378.858398438 -551.10546875 m 0
 371.669921875 -551.10546875 368.141601562 -546.606445312 368.141601562 -539.408203125 c 0
 368.141601562 -538.508789062 368.141601562 -537.609375 368.141601562 -536.708984375 c 0
 372.552734375 -495.3203125 376.961914062 -363.055664062 376.961914062 -239.788085938 c 0
 376.961914062 -179.504882812 376.080078125 -147.215820312 373.43359375 -126.520507812 c 0
 371.669921875 -116.624023438 372.91796875 -108.881835938 363.280273438 -104.9765625 c 0
 358.255859375 -102.940429688 348.8203125 -102.596679688 344.75 -102.21875 c 0
 300.35546875 -98.09765625 245.364257812 -96.3515625 196.991210938 -96.3515625 c 0
 178.71875 -96.3515625 161.9765625 -97.0908203125 143.356445312 -97.0908203125 c 0
 105.608398438 -97.0908203125 64.6328125 -99.50390625 21.625 -100.875 c 0
 18.2783203125 -100.981445312 12.78125 -102.20703125 9.82421875 -102.20703125 c 0
 1.849609375 -102.20703125 -1.763671875 -100.566599539 -1.763671875 -90.5302734375 c 0
 -1.763671875 -62.638671875 0 -24.7451171875 0 4.9462890625 c 0
 0 29.2392578125 -0.8828125 65.5322265625 -1.763671875 92.5244140625 c 0
 -1.763671875 93.4248046875 -1.763671875 92.5244140625 -1.763671875 93.4248046875 c 0
 -1.763671875 99.72265625 6.173828125 100.123046875 13.23046875 100.123046875 c 0
 18.5224609375 100.123046875 24.7470703125 96.908203125 42.3359375 95.5732421875 c 0
 91.7275390625 91.8232421875 125.73046875 89.6943359375 173.358398438 89.6943359375 c 4
 236.26171875 89.6943359375 289.765625 91.8583984375 351.75 93.3447265625 c 0
 358.014648438 93.4951171875 367.818359375 96.927734375 374.369140625 96.927734375 c 0
 374.803710938 96.927734375 377.98828125 96.9248046875 378.419921875 96.880859375 c 0
 389.401367188 95.765625 389.751860097 90.8816232977 389.810546875 82.783203125 c 0
 390.456054688 -6.29296875 390.456054688 -197.5 390.456054688 -298.2734375 c 0
 390.456054688 -419.740234375 388.69140625 -500.71875 387.810546875 -538.508789062 c 0
 387.810546875 -549.305664062 385.796875 -551.10546875 378.858398438 -551.10546875 c 0
367.94921875 -48.5947265625 m 2
 367.94921875 23.0908203125 l 2
 367.94921875 34.5791015625 364.640625 52.96875 342.4140625 52.96875 c 0
 342.041992188 52.96875 338.6640625 52.9638671875 338.282226562 52.953125 c 0
 299.16796875 51.8857421875 253.392578125 48.7939453125 201.065429688 48.7939453125 c 0
 149.810546875 48.7939453125 87.783203125 50.9814453125 38.400390625 52.7138671875 c 0
 37.8857421875 52.7333984375 37.3828125 52.7431640625 36.8896484375 52.7431640625 c 0
 22.3505859375 52.7431640625 16.7900390625 44.9326171875 16.7900390625 31.0712890625 c 2
 16.7900390625 -33.98828125 l 2
 16.7900390625 -49.4990234375 30.9658203125 -62.1884765625 49.833984375 -63.6689453125 c 0
 65.56640625 -64.904296875 81.1357421875 -65.310546875 97.19140625 -65.310546875 c 0
 128.114257812 -65.310546875 160.840820312 -63.802734375 200.01171875 -63.802734375 c 0
 228.532226562 -63.802734375 260.904296875 -64.748046875 291.787109375 -64.748046875 c 0
 308.849609375 -64.748046875 329.20703125 -64.4599609375 344.458984375 -63.5634765625 c 0
 361.215820312 -62.5791015625 367.94921875 -60.2509765625 367.94921875 -48.5947265625 c 2
EndSplineSet
EndChar

StartChar: mensuralMaximaStemlessWhite
Encoding: 180 165 106
AltUni2: 00f0b4.ffffffff.0
Width: 392
VWidth: 1365
Flags: HMW
HStem: -120 31.5G<192.75 212.25> -115.5 198
LayerCount: 2
Fore
SplineSet
367.94921875 -46.0947265625 m 2
 367.94921875 -57.7509765625 361.215820312 -60.0791015625 344.458984375 -61.0634765625 c 0
 329.20703125 -61.9599609375 308.849336914 -62.2484184314 291.787086692 -62.2484184314 c 0
 260.904347632 -62.2484184314 228.53202241 -61.302734375 200.01171875 -61.302734375 c 0
 160.841237422 -61.302734375 128.114333062 -62.8102834419 97.1916647599 -62.8102834419 c 0
 81.1358308111 -62.8102834419 65.5664098582 -62.4038557711 49.833984375 -61.1689453125 c 0
 30.9658203125 -59.6884765625 16.7900390625 -46.9990234375 16.7900390625 -31.48828125 c 2
 16.7900390625 31.0712890625 l 2
 16.7900390625 44.9326171875 22.3505859375 52.7431640625 36.8896484375 52.7431640625 c 0
 86.8079331823 52.7431640625 149.241058657 50.0439453125 201.065429688 50.0439453125 c 4
 255.396071944 50.0439453125 300.965121757 52.96875 342.4140625 52.96875 c 0
 364.640625 52.96875 367.94921875 34.5791015625 367.94921875 23.0908203125 c 2
 367.94921875 -46.0947265625 l 2
394.20703125 -88.734375 m 0
 394.20703125 -86.03515625 394.20703125 -83.3359375 394.20703125 -77.9375 c 0
 394.20703125 -59.04296875 392.481445312 -25.7021484375 392.481445312 -11.3056640625 c 0
 392.481445312 16.5869140625 393.34375 33.6328125 393.34375 51.6279296875 c 0
 393.34375 58.826171875 392.481445312 74.0693359375 392.481445312 83.0673828125 c 0
 392.481445312 91.1650390625 389.900390625 94.09375 375.228515625 94.9130859375 c 0
 360.437135792 95.7389815098 344.60857796 96.0258590415 328.392182556 96.0258590415 c 0
 291.491174425 96.0258590415 252.581916686 94.5403874607 219.315514323 94.5403874607 c 0
 203.939829309 94.5403874607 188.855802584 94.6708984375 173.381835938 94.6708984375 c 0
 127.258770789 94.6708984375 81.6123479958 96.1029798214 45.2734361177 96.1029798214 c 0
 32.679864363 96.1029798214 21.2041529749 95.930982492 11.2138671875 95.4677734375 c 0
 5.17578125 95.4677734375 -1.7255859375 94.41796875 -1.7255859375 89.9189453125 c 0
 -1.7255859375 89.01953125 -1.7255859375 89.01953125 -1.7255859375 88.1201171875 c 0
 -0.86328125 61.1259765625 0 29.18359375 0 4.8896484375 c 0
 0 -24.802734375 -1.7255859375 -54.1728515625 -1.7255859375 -82.0654296875 c 0
 -1.7255859375 -91.0625 2.587890625 -93.7626953125 10.3505859375 -93.7626953125 c 0
 65.9697265625 -93.7626953125 101.274414062 -93.3798828125 147.450195312 -93.3798828125 c 0
 154.3515625 -93.3798828125 184.594726562 -93.5458984375 190.633789062 -93.5458984375 c 0
 238.939453125 -94.4453125 307.947265625 -93.083984375 351.076171875 -95.783203125 c 0
 358.83984375 -96.6826171875 369.19140625 -96.83203125 377.817382812 -96.83203125 c 0
 386.442382812 -96.83203125 393.34375 -95.033203125 394.20703125 -88.734375 c 0
EndSplineSet
EndChar

StartChar: mensuralBrevisSlantedUpWhite
Encoding: 182 8706 107
AltUni2: 00f0b6.ffffffff.0
Width: 170
VWidth: 1409
Flags: HMW
HStem: -351 38 34 195 316 32
VStem: -5 145 441 81
LayerCount: 2
Fore
SplineSet
12.1767578125 -46.65234375 m 4
 12.1767578125 -52.9438673219 15.3938560075 -60.8532706163 24.9633272459 -60.8532706163 c 4
 62.7706109279 -60.8532706163 98.2992290282 -58.6347264194 131.884765625 -52.31640625 c 4
 145.850585938 -49.3349609375 157.821289062 -37.470703125 157.821289062 -21.431640625 c 6
 157.821289062 42.724609375 l 6
 157.821289062 51.1950319212 151.666304731 55.7001331398 143.48468257 55.7001331398 c 4
 114.278658435 55.7001331398 65.9697780737 53.505052295 40.1083984375 49.5302734375 c 4
 24.1474609375 47.4111328125 11.1787109375 36.48046875 11.1787109375 24.451171875 c 6
 11.1787109375 -14.64453125 l 6
 11.1787109375 -27.67578125 11.1787109375 -33.6904296875 12.1767578125 -46.65234375 c 4
4 -103.4609375 m 6
 3.49320300966 -103.514388745 2.97252282892 -103.597199996 2.43336292304 -103.597199996 c 4
 -1.09560084161 -103.597199996 -2 -99.7487900972 -2 -93.091796875 c 6
 -2 -93.091796875 -2 -92.091796875 -2 -91.091796875 c 4
 -2 -63.091796875 0 -35.880859375 0 -7.880859375 c 4
 0 16.119140625 -1 48.013671875 -2 73.908203125 c 4
 -2 79.908203125 0 82.119140625 4 82.5390625 c 4
 32.3723811817 87.2943456253 88.5270007072 94.2423647699 128 95.572265625 c 4
 140.471531784 95.8432534982 151.901248923 97.2221180626 163.393745993 97.2221180626 c 4
 171 97.2221180626 171 89.7100109617 171 83.091796875 c 4
 171 77.091796875 171 72.091796875 171 66.091796875 c 4
 171 42.091796875 170 15.986328125 170 -10.013671875 c 4
 170 -31.013671875 171 -62.908203125 171 -73.908203125 c 4
 171 -82.908203125 165 -85.5390625 154 -86.6953125 c 4
 125.147363301 -89.728419414 82.7941301762 -90.1827451231 53 -93.310546875 c 4
 35 -95.203125 15 -97.3046875 7 -101.145507812 c 4
 4 -102.4609375 4 -103.4609375 4 -103.4609375 c 6
EndSplineSet
EndChar

StartChar: mensuralBrevisSlantedDownWhite
Encoding: 183 8721 108
AltUni2: 00f0b7.ffffffff.0
Width: 170
VWidth: 1409
Flags: HMW
HStem: -351 38 34 195 316 32
VStem: -5 145 441 81
LayerCount: 2
Fore
SplineSet
157.720703125 23.2158203125 m 6
 157.720703125 49.4438976906 119.090229532 50.6881169435 89.9794921875 53.234375 c 4
 70.1657571375 54.9681534875 42.0465588788 56.8068259125 25.2160991931 56.8068259125 c 4
 17.2356297604 56.8068259125 11.279296875 52.4078668502 11.279296875 44.05859375 c 6
 11.279296875 -20.185546875 l 6
 11.279296875 -56.2697773647 60.4234001905 -56.6149337467 91.4736328125 -59.32421875 c 4
 107.412109375 -60.71875 130.823242188 -61.7626953125 144.76953125 -61.9794921875 c 4
 153.735351562 -61.759765625 156.723632812 -53.990234375 156.723632812 -47.9677734375 c 4
 157.720703125 -35.0048828125 157.720703125 -28.982421875 157.720703125 -15.9326171875 c 6
 157.720703125 23.2158203125 l 6
4.0126953125 -87.95703125 m 5
 -0.971492701457 -87.5189678503 -1.9873046875 -84.2700272424 -1.9873046875 -76.4287109375 c 6
 -1.9873046875 -74.4287109375 l 6
 -1.9873046875 -46.4248046875 0.0126953125 -19.5966796875 0.0126953125 8.408203125 c 4
 0.0126953125 32.4111328125 -0.9873046875 64.50390625 -1.9873046875 90.5966796875 c 4
 -1.9873046875 96.1306916634 -0.286453475676 98.1126818458 3.11524894797 98.1126818458 c 4
 34.2720057877 98.1126818458 94.4157168763 92.543446117 127.993164062 87.2001953125 c 4
 139.991210938 85.1484375 150.990234375 83.18359375 161.98828125 82.2197265625 c 4
 170.987304688 81.4296875 170.987304688 73.4287109375 170.987304688 66.427734375 c 6
 170.987304688 49.4248046875 l 6
 170.987304688 25.421875 169.987304688 -0.494140625 169.987304688 -26.498046875 c 4
 169.987304688 -47.501953125 170.987304688 -79.5947265625 170.987304688 -90.595703125 c 4
 170.987304688 -98.083710073 166.835755063 -100.36268446 159.109337128 -100.36268446 c 4
 116.423901204 -100.36268446 65.6679851402 -85.1135691707 19.0503985007 -85.1135691707 c 4
 14.5067853432 -85.1135691707 9.70318912338 -85.4463657572 7.01171875 -86.2197265625 c 4
 4.0126953125 -86.95703125 4.0126953125 -87.95703125 4.0126953125 -87.95703125 c 5
EndSplineSet
EndChar

StartChar: mensuralSemibrevisWhite
Encoding: 184 8719 109
AltUni2: 00e957.ffffffff.0 00f0b8.ffffffff.0
Width: 168
VWidth: 1622
Flags: HMW
VStem: -12 22
LayerCount: 2
Fore
SplineSet
83 98 m 1
 64 56 58 45 34 13 c 1
 50.3372225957 -12.4134573711 80.6787116 -62.5403260516 90.6310761309 -88.7812493601 c 0
 92.0394006098 -92.4945111212 93.0267311132 -95.0768189782 93.7674728119 -98.5312499558 c 0
 94.0631708412 -99.9102305559 94.2703687603 -101.157858464 94.7080023455 -101.157858464 c 0
 95.6810010086 -101.157858464 99.3535290263 -95.4298996619 100.100190695 -94.46875 c 0
 115.869283121 -74.169786654 129.34329508 -55.2579637065 142 -20 c 1
 132 8 108 56 83 98 c 1
89 153 m 1
 127 89 154 41 169 -2 c 1
 144 -67 110 -113 77 -151 c 1
 77 -150 77 -148 77 -147 c 0
 77 -109 28 -44 -0 0 c 1
 38 46 62 88 89 153 c 1
EndSplineSet
EndChar

StartChar: ordmasculine
Encoding: 188 186 113
AltUni2: 00f0bc.ffffffff.0
Width: 165
Flags: MW
HStem: -5 17 295 17
VStem: -4 63 197 63
LayerCount: 2
Fore
SplineSet
302 232 m 1
 178 49 141 -2 74 -98 c 1
 48 -67 32 -37 0 0 c 1
 0 0 49 63 64 94 c 1
 85.8966877884 60.7170345616 102.423368292 38.9412275898 121.643038513 17.25 c 0
 124.412357857 14.124559476 126.801780343 12.7897563086 129.026162084 12.7897563086 c 0
 133.440968539 12.7897563086 137.205651482 18.0477725536 142 25 c 2
 290 240 l 1
 292.75 240.25 294.6875 240.4375 296.09375 240.4375 c 0
 300.3125 240.4375 299.75 238.75 302 232 c 1
107.745117188 7.7548828125 m 4
 91.7783203125 25.5302734375 91.7158203125 25.646484375 79.75 42.4169921875 c 4
 76.1487151357 47.4643161076 72.1798939925 49.2968527013 68.6338115454 49.2968527013 c 4
 64.5333046387 49.2968527013 60.9980592773 46.8464915771 59.25 44.0830078125 c 4
 49.119140625 28.0693359375 40.0828090651 14.7166751699 31.7900390625 3.9677734375 c 4
 29.714570486 1.2775978061 28.8670310478 -1.27851047209 28.8670310478 -3.73335074599 c 4
 28.8670310478 -8.20295572427 31.6766778006 -12.3368508741 35 -16.3330078125 c 4
 44.3325206341 -27.5549763269 49.0613207798 -34.5665588241 62.2490234375 -52.0830078125 c 4
 64.6691198194 -55.2974793487 67.3739520856 -56.9796424229 70.0350431103 -56.9796424229 c 4
 72.5754837383 -56.9796424229 75.0760595521 -55.4465556587 77.2509765625 -52.25 c 6
 107.633789062 -7.58984375 l 6
 109.6640625 -4.6064453125 110.75 -1.85546875 110.75 0.75 c 4
 110.75 3.1650390625 109.80078125 5.466796875 107.745117188 7.7548828125 c 4
EndSplineSet
Validated: 1
EndChar

StartChar: ascii190
Encoding: 190 230 114
AltUni2: 00f0be.ffffffff.0
Width: 160
Flags: MW
HStem: -1 21G 613 20G
LayerCount: 2
Fore
SplineSet
108.001953125 -2.044921875 m 4
 94.5283203125 13.732421875 88.5498046875 23.5361328125 74.1005859375 46.46875 c 4
 71.2578125 50.98046875 69.6884765625 53.484375 67.9794921875 53.484375 c 4
 66.580078125 53.484375 65.0869140625 51.8056640625 62.7236328125 48.1748046875 c 4
 52.6025390625 32.625 41.5380859375 22.7763671875 32.3828125 11.7451171875 c 4
 29.3505859375 8.08984375 27.9658203125 6.06640625 27.9658203125 4.203125 c 4
 27.9658203125 2.408203125 29.2509765625 0.76171875 31.5859375 -2.05078125 c 4
 48.5234375 -22.4501953125 57.740234375 -36.00390625 69.87109375 -53.6650390625 c 4
 72.2568359375 -57.1396484375 74.0849609375 -58.8466796875 75.896484375 -58.8466796875 c 4
 77.783203125 -58.8466796875 79.65234375 -56.9931640625 82.115234375 -53.3544921875 c 6
 106.651367188 -18.787109375 l 6
 109.389648438 -14.701171875 111.19140625 -11.8203125 111.19140625 -8.9111328125 c 4
 111.19140625 -6.7958984375 110.239257812 -4.6650390625 108.001953125 -2.044921875 c 4
140 -3 m 1
 74 -98 l 1
 48 -67 32 -37 0 0 c 1
 0 0 49 54 65 83 c 1
 65 335 l 1
 54.2522729151 332.133939444 43.5045458303 329.781272832 34.963945946 329.781272832 c 0
 31.5849094967 329.781272832 28.5513637491 330.149545417 26 331 c 0
 16 334 11 343 11 353 c 0
 11 369 15 373 23 383 c 0
 30 392 64 429 79 433 c 1
 79 342 l 1
 92 345 103 348 103 348 c 1
 103 348 93 344 79 339 c 1
 79 80 l 1
 100 50 116 24 140 -3 c 1
65 339 m 1
 65 382 l 2
 65 382.627701913 65.0004519647 383.240462488 65.0004519647 383.837776783 c 0
 65.0004519647 393.059772173 64.8927190218 398.599902253 61.3506536811 398.599902253 c 0
 59.538352083 398.599902253 56.8269874605 397.149569109 52.7709833657 394.000000292 c 0
 40.4293359649 384.416462679 22.9213467226 369.24718252 21 359 c 0
 20.7101020514 356.97071436 20.5042449235 354.94142872 20.5042449235 352.985232865 c 0
 20.5042449235 348.193551182 21.7393876913 343.840408206 26 341 c 0
 29.9445582883 338.182458366 36.7469912869 336.952624903 44.7968627993 336.952624903 c 0
 51.0322664607 336.952624903 58.0161332303 337.690524981 65 339 c 1
EndSplineSet
Validated: 1
EndChar

StartChar: questiondown
Encoding: 192 191 116
AltUni2: 00f0c0.ffffffff.0
Width: 160
Flags: MW
VStem: 5 259
LayerCount: 2
Fore
SplineSet
108.751953125 -0.544921875 m 4
 95.2783203125 15.232421875 89.2998046875 25.0361328125 74.8505859375 47.96875 c 4
 72.0078125 52.48046875 70.4384765625 54.984375 68.7294921875 54.984375 c 4
 67.330078125 54.984375 65.8369140625 53.3056640625 63.4736328125 49.6748046875 c 4
 53.3525390625 34.125 43.7880859375 21.7763671875 34.6328125 10.7451171875 c 4
 31.6005859375 7.08984375 30.2158203125 5.06640625 30.2158203125 3.203125 c 4
 30.2158203125 1.408203125 31.5009765625 -0.23828125 33.8359375 -3.05078125 c 4
 50.7734375 -23.4501953125 58.490234375 -34.50390625 70.62109375 -52.1650390625 c 4
 73.0068359375 -55.6396484375 74.8349609375 -57.3466796875 76.646484375 -57.3466796875 c 4
 78.533203125 -57.3466796875 80.40234375 -55.4931640625 82.865234375 -51.8544921875 c 6
 107.401367188 -17.287109375 l 6
 110.139648438 -13.201171875 111.94140625 -10.3203125 111.94140625 -7.4111328125 c 4
 111.94140625 -5.2958984375 110.989257812 -3.1650390625 108.751953125 -0.544921875 c 4
140 0 m 1
 115 -28 97 -55 79 -80 c 1
 79 -339 l 1
 93 -344 103 -348 103 -348 c 1
 103 -348 92 -345 79 -342 c 1
 79 -433 l 1
 64 -429 30 -392 23 -383 c 0
 15 -373 11 -369 11 -353 c 0
 11 -343 16 -334 26 -331 c 0
 28.5513637491 -330.149545417 31.5849094967 -329.781272832 34.963945946 -329.781272832 c 0
 43.5045458303 -329.781272832 54.2522729151 -332.133939444 65 -335 c 1
 65 -83 l 1
 49 -54 0 0 0 0 c 1
 32 37 50 65 74 98 c 1
 140 0 l 1
65 -373.666992188 m 2
 65 -339 l 1
 58.0161332303 -337.690524981 51.0322664607 -336.952624903 44.7968627993 -336.952624903 c 0
 36.7469912869 -336.952624903 29.9445582883 -338.182458366 26 -341 c 0
 21.7393876913 -343.840408206 20.5042449235 -348.193551182 20.5042449235 -352.985232865 c 0
 20.5042449235 -354.94142872 20.7101020514 -356.97071436 21 -359 c 0
 22.7718625136 -368.449933406 37.7993780436 -382.085862501 49.8063327377 -391.666666348 c 0
 54.3663948672 -395.305312608 57.5584196047 -396.942450375 59.7926596074 -396.942450375 c 0
 64.8597488381 -396.942450375 65.000486877 -388.521857209 65.000486877 -375.93106951 c 0
 65.000486877 -375.190515389 65 -374.435534665 65 -373.666992188 c 2
EndSplineSet
Validated: 1
EndChar

StartChar: exclamdown
Encoding: 193 161 117
AltUni2: 00f0c1.ffffffff.0
Width: 160
Flags: MW
HStem: 0 315
LayerCount: 2
Fore
SplineSet
109.251953125 -0.544921875 m 4
 95.7783203125 15.232421875 88.0498046875 25.0361328125 73.6005859375 47.96875 c 4
 70.7578125 52.48046875 69.1884765625 54.984375 67.4794921875 54.984375 c 4
 66.080078125 54.984375 64.5869140625 53.3056640625 62.2236328125 49.6748046875 c 4
 52.1025390625 34.125 42.5380859375 21.7763671875 33.3828125 10.7451171875 c 4
 30.3505859375 7.08984375 28.9658203125 5.06640625 28.9658203125 3.203125 c 4
 28.9658203125 1.408203125 30.2509765625 -0.23828125 32.5859375 -3.05078125 c 4
 49.5234375 -23.4501953125 57.240234375 -34.50390625 69.37109375 -52.1650390625 c 4
 71.7568359375 -55.6396484375 73.5849609375 -57.3466796875 75.396484375 -57.3466796875 c 4
 77.283203125 -57.3466796875 79.15234375 -55.4931640625 81.615234375 -51.8544921875 c 6
 107.901367188 -17.287109375 l 6
 110.639648438 -13.201171875 112.44140625 -10.3203125 112.44140625 -7.4111328125 c 4
 112.44140625 -5.2958984375 111.489257812 -3.1650390625 109.251953125 -0.544921875 c 4
65 -340 m 1
 49 -337 33 -337 26 -342 c 0
 20 -346 20 -353 21 -360 c 0
 24 -376 65 -404 65 -404 c 1
 65 -340 l 1
23 -384 m 0
 15 -374 11 -370 11 -354 c 0
 11 -344 16 -335 26 -332 c 0
 35 -329 50 -332 65 -336 c 1
 65 -83 l 1
 49 -54 0 0 0 0 c 1
 26 29 46 57 65 87 c 1
 65 427 l 1
 70 434 75 433 79 430 c 1
 79 89 l 1
 94 65 124 21 140 0 c 1
 115 -31 99 -50 79 -80 c 1
 79 -340 l 1
 93 -345 103 -349 103 -349 c 1
 103 -349 92 -346 79 -343 c 1
 79 -435 l 1
 67 -433 28 -391 23 -384 c 0
EndSplineSet
Validated: 33
EndChar

StartChar: logicalnot
Encoding: 194 172 118
AltUni2: 00f0c2.ffffffff.0
Width: 160
Flags: MW
HStem: -120 19 101 19
VStem: -3 19 302 19
LayerCount: 2
Fore
SplineSet
108.001953125 4.455078125 m 4
 94.5283203125 20.232421875 86.7998046875 30.0361328125 72.3505859375 52.96875 c 4
 69.5078125 57.48046875 67.9384765625 59.984375 66.2294921875 59.984375 c 4
 64.830078125 59.984375 63.3369140625 58.3056640625 60.9736328125 54.6748046875 c 4
 50.8525390625 39.125 41.2880859375 26.7763671875 32.1328125 15.7451171875 c 4
 29.1005859375 12.08984375 27.7158203125 10.06640625 27.7158203125 8.203125 c 4
 27.7158203125 6.408203125 29.0009765625 4.76171875 31.3359375 1.94921875 c 4
 48.2734375 -18.4501953125 55.990234375 -29.50390625 68.12109375 -47.1650390625 c 4
 70.5068359375 -50.6396484375 72.3349609375 -52.3466796875 74.146484375 -52.3466796875 c 4
 76.033203125 -52.3466796875 77.90234375 -50.4931640625 80.365234375 -46.8544921875 c 6
 106.651367188 -12.287109375 l 6
 109.389648438 -8.201171875 111.19140625 -5.3203125 111.19140625 -2.4111328125 c 4
 111.19140625 -0.2958984375 110.239257812 1.8349609375 108.001953125 4.455078125 c 4
75 -340 m 1
 75 -381.333007812 l 2
 75 -398.067382812 74.1180803252 -405.220482611 87.6574645356 -394.666666963 c 0
 99.9718826134 -385.06770026 117.100781815 -370.129163654 119 -360 c 0
 119.289897949 -357.97071436 119.495755077 -355.94142872 119.495755077 -353.985232865 c 0
 119.495755077 -349.193551182 118.260612309 -344.840408206 114 -342 c 0
 110.055441712 -339.182458366 103.253008713 -337.952624903 95.2031372007 -337.952624903 c 0
 88.9677335393 -337.952624903 81.9838667697 -338.690524981 75 -340 c 1
117 -384 m 0
 111 -391 73 -433 61 -435 c 1
 61 -343 l 1
 47 -346 37 -349 37 -349 c 1
 37 -349 47 -345 61 -340 c 1
 61 -80 l 1
 44.9124491413 -54.0662814577 25 -24 0 3 c 1
 20.620582282 30.4203695318 41.1110403779 58.858314891 61 92 c 1
 61 430 l 1
 62.7936105065 431.34520788 64.7882859287 432.288285929 66.8938682301 432.288285929 c 0
 69.4840262664 432.288285929 72.2420131332 430.861181614 75 427 c 1
 75 87 l 1
 96 60 112 32 140 0 c 1
 140 0 91 -54 75 -83 c 1
 75 -336 l 1
 85.7477270849 -333.133939444 96.4954541697 -330.781272832 105.036054054 -330.781272832 c 0
 108.415090503 -330.781272832 111.448636251 -331.149545417 114 -332 c 0
 124 -335 129 -344 129 -354 c 0
 129 -370 125 -374 117 -384 c 0
EndSplineSet
Validated: 1
EndChar

StartChar: radical
Encoding: 195 8730 119
AltUni2: 00f0c3.ffffffff.0
Width: 160
Flags: MW
HStem: -153 21G 86 194
LayerCount: 2
Fore
SplineSet
108.251953125 0.955078125 m 4
 94.7783203125 16.732421875 87.0498046875 26.5361328125 72.6005859375 49.46875 c 4
 69.7578125 53.98046875 68.1884765625 56.484375 66.4794921875 56.484375 c 4
 65.080078125 56.484375 63.5869140625 54.8056640625 61.2236328125 51.1748046875 c 4
 51.1025390625 35.625 42.7880859375 25.2763671875 33.6328125 14.2451171875 c 4
 30.6005859375 10.58984375 29.2158203125 8.56640625 29.2158203125 6.703125 c 4
 29.2158203125 4.908203125 30.5009765625 3.26171875 32.8359375 0.44921875 c 4
 49.7734375 -19.9501953125 56.490234375 -31.50390625 68.62109375 -49.1650390625 c 4
 71.0068359375 -52.6396484375 72.8349609375 -54.3466796875 74.646484375 -54.3466796875 c 4
 76.533203125 -54.3466796875 78.40234375 -52.4931640625 80.865234375 -48.8544921875 c 6
 106.901367188 -15.787109375 l 6
 109.639648438 -11.701171875 111.44140625 -8.8203125 111.44140625 -5.9111328125 c 4
 111.44140625 -3.7958984375 110.489257812 -1.6650390625 108.251953125 0.955078125 c 4
140 0 m 1
 140 0 91 -54 75 -83 c 1
 75 -336 l 1
 85.7477270849 -333.133939444 96.4954541697 -330.781272832 105.036054054 -330.781272832 c 0
 108.415090503 -330.781272832 111.448636251 -331.149545417 114 -332 c 0
 124 -335 129 -344 129 -354 c 0
 129 -370 125 -374 117 -384 c 0
 111 -391 73 -433 61 -435 c 1
 61 -343 l 1
 47 -346 37 -349 37 -349 c 1
 37 -349 47 -345 61 -340 c 1
 61 -80 l 1
 43.4659907023 -52.0054550171 25 -24 0 3 c 1
 18.0775546033 19.8492906128 61 83.8661430895 61 86 c 2
 61 340 l 1
 47 345 37 349 37 349 c 1
 37 349 48 346 61 343 c 1
 61 435 l 1
 73 433 112 391 117 384 c 0
 125 374 129 370 129 354 c 0
 129 344 124 335 114 332 c 0
 111.448636251 331.149545417 108.415090503 330.781272832 105.036054054 330.781272832 c 0
 96.4954541697 330.781272832 85.7477270849 333.133939444 75 336 c 1
 75 36 75 96 75 83 c 1
 97 56 117 27 140 0 c 1
119 366 m 0
 117.010379767 376.611307908 98.3067184807 392.500734044 85.933866543 401.999999722 c 0
 83.1914952672 404.105457176 81.1332484133 405.032524731 79.5892584255 405.032524731 c 0
 75.3399865336 405.032524731 74.9858287098 398.010676092 74.9858287098 389.205892265 c 0
 74.9858287098 387.444626175 75 385.612017621 75 383.75 c 2
 75 346 l 1
 81.9838667697 344.690524981 88.9677335393 343.952624903 95.2031372007 343.952624903 c 0
 103.253008713 343.952624903 110.055441712 345.182458366 114 348 c 0
 118.260612309 350.840408206 119.495755077 355.193551182 119.495755077 359.985232865 c 0
 119.495755077 361.94142872 119.289897949 363.97071436 119 366 c 0
119 -360 m 0
 119.289897949 -357.97071436 119.495755077 -355.94142872 119.495755077 -353.985232865 c 0
 119.495755077 -349.193551182 118.260612309 -344.840408206 114 -342 c 0
 110.055441712 -339.182458366 103.253008713 -337.952624903 95.2031372007 -337.952624903 c 0
 88.9677335393 -337.952624903 81.9838667697 -338.690524981 75 -340 c 1
 75 -404 l 1
 75 -404 116 -376 119 -360 c 0
EndSplineSet
Validated: 1
EndChar

StartChar: florin
Encoding: 196 402 120
AltUni2: 00f0c4.ffffffff.0
Width: 160
Flags: MW
HStem: 240 18 321 125
VStem: -785 93 -513 93 -295 25 -23 25
LayerCount: 2
Fore
SplineSet
108.251953125 0.955078125 m 4
 94.7783203125 16.732421875 86.069236515 29.190364386 76.9990234375 43 c 4
 73.6682351433 48.0712119172 70.389295066 50.1723902318 67.1077519712 50.1723902318 c 4
 63.0001814276 50.1723902318 58.8885324735 46.8802619666 54.666015625 42 c 4
 45.494140625 31.3994140625 39.0355291536 27.2784886639 29.8828125 16.2451171875 c 4
 26.8505859375 12.58984375 25.4658203125 10.56640625 25.4658203125 8.703125 c 4
 25.4658203125 6.908203125 26.7508348471 5.26160109066 29.0859375 2.44921875 c 4
 46.0234375 -17.9501953125 53.0122401885 -27.2928760993 66.0009765625 -44.3330078125 c 4
 68.4398842598 -47.5326499641 71.5747707113 -49.4841177828 74.9255342874 -49.4841177828 c 4
 78.0032437317 -49.4841177828 81.2630801566 -47.8377416693 84.3330078125 -44 c 6
 106.901367188 -15.787109375 l 6
 109.961711165 -11.9613483406 111.44140625 -8.8203125 111.44140625 -5.9111328125 c 4
 111.44140625 -3.7958984375 110.489396059 -1.66492100799 108.251953125 0.955078125 c 4
-7.33333333333 -6.59566074951 m 6
 -169 -152 l 5
 -170.454545455 -152 -171.776859504 -152.26446281 -172.822689707 -152.26446281 c 4
 -174.274743372 -152.26446281 -175.193814796 -151.754653711 -175.193814796 -149.31937517 c 4
 -175.193814796 -148.685170918 -175.131482908 -147.920380357 -175 -147 c 5
 -118.20095421 -94.9342080262 -4.94460537518 7.31585332148 55.3333318578 72.3712800994 c 4
 62.7910670372 80.4200980777 65 82.7838102606 65 99 c 6
 65 429 l 5
 67.3245553203 429.774851773 69.0487153699 430.249505911 70.6376974889 430.249505911 c 4
 73.1500988177 430.249505911 75.3245553203 429.062870566 79 426 c 5
 79 80 l 5
 100 50 115 24 140 -3 c 5
 117.652082924 -28.3099326915 94.3918515662 -56.4032640595 69 -91 c 5
 46.6414619416 -61.5193737158 23.7547710434 -30.2151168696 5.17070983468 -6.33333333333 c 4
 3.46944729593 -4.14709517836 1.63855230458 -3.11428296632 -0.342439552467 -3.11428296632 c 0
 -2.48799986566 -3.11428296632 -4.80963112481 -4.32582207675 -7.33333333333 -6.59566074951 c 6
EndSplineSet
Validated: 1
EndChar

StartChar: obliqueConcaveDesc2ndWhite
Encoding: 200 187 121
AltUni2: 00f0c8.ffffffff.0
Width: 509
Flags: HMW
HStem: -911 34 1340 209
VStem: 219 51 374 46
LayerCount: 2
Fore
SplineSet
16.8369140625 174.018554688 m 0
 16.5009765625 174.162109375 16.2626953125 174.216796875 16.091796875 174.216796875 c 0
 15.7744140625 174.216796875 15.689453125 174.05078125 15.689453125 174.05078125 c 0
 15.4951171875 174.055664062 15.33203125 174.060546875 15.197265625 174.060546875 c 0
 14.5419921875 174.060546875 14.5380859375 173.956054688 14.5107421875 173.34765625 c 0
 14.4453125 171.881835938 14.263671875 170.41796875 14.216796875 166.75 c 0
 13.9521484375 146.443359375 14.0224609375 91.8876953125 12.849609375 65.599609375 c 0
 12.8076171875 64.6591796875 12.787109375 63.7744140625 12.787109375 62.9404296875 c 0
 12.787109375 50.05078125 17.7666015625 49.298828125 28.2109375 44.3330078125 c 0
 88.0205078125 15.8974609375 168.327383539 -7.05707446643 248.52734375 -26.982421875 c 4
 324.715820312 -45.9111328125 404.991210938 -63.7587890625 491.388671875 -63.7587890625 c 0
 493.239257812 -63.7587890625 494.666992188 -61.9228515625 494.658203125 -60.8291015625 c 2
 493.762695312 51.599609375 l 2
 493.729492188 55.6591796875 490.861328125 62.376953125 481.810546875 62.875 c 0
 427.119140625 65.8857421875 356.971724793 75.8227917337 297.831054688 89.5322265625 c 4
 201.09765625 111.956054688 95.7548828125 140.248046875 16.8369140625 174.018554688 c 0
70 186.5 m 0
 100 175.5 134 162.5 169 151.5 c 0
 213 138.5 249 128.5 299 117.5 c 0
 336 109.5 379 101.5 417 96.5 c 0
 445 92.5 474 90.75 505 90.75 c 0
 509 90.75 509 89.75 509 87.75 c 0
 509 86.75 509 86.75 509 84.75 c 2
 509 -90.25 l 2
 509 -91.25 507.25 -91.5 506.25 -91.5 c 0
 474.25 -90.5 442 -89.25 413 -86.5 c 0
 364.956054688 -81.9443359375 321 -73.5 290 -66.5 c 0
 258 -59.5 224 -50.5 188 -39.5 c 0
 124 -19.5 63 -1.5 17 21.5 c 0
 9 25.5 0 28.5 0 35.5 c 0
 0 36.5 0 41.5 0 42.5 c 0
 0 46.5 0 58.5 0 85.5 c 0
 0 124.5 0 183.5 0 205.5 c 0
 0 210.5 0 211.5 0 213.5 c 0
 0 214.5 -0.0107421875 214.822265625 0.9892578125 214.822265625 c 0
 0.9892578125 214.822265625 1.4208984375 214.790039062 2 214.5 c 0
 17.9912109375 206.482421875 52 192.5 70 186.5 c 0
EndSplineSet
EndChar

StartChar: brevisStemUpRightShort3rdWhite
Encoding: 207 339 128
AltUni2: 00f0cf.ffffffff.0
Width: 164
Flags: HMW
HStem: -177 21 -23 27 236 30 412 24
VStem: 32 62 167 59 439 161 610 25 777 59
LayerCount: 2
Fore
SplineSet
164.440429688 303.719726562 m 0
 164.560835416 306.423211439 164.887449725 314.411019174 165 318.4375 c 1
 166.43359375 318.4375 169.767578125 318.381835938 171.440429688 317.736328125 c 1
 171.440429688 308.879882812 171.440429688 300.7578125 171.440429688 292.885742188 c 0
 171.440429688 254.508789062 171.440429688 243.036132812 171.440429688 204.659179688 c 0
 171.440429688 178.090820312 171.440429688 151.521484375 171.440429688 124.953125 c 0
 171.440429688 96.4169921875 171.440429688 65.912109375 171.440429688 37.375 c 0
 171.440429688 8.8388671875 171.440429688 -8.6279296875 171.440429688 -36.1806640625 c 0
 171.440429688 -47.0048828125 171.440429688 -57.8291015625 171.440429688 -67.6689453125 c 0
 171.440429688 -72.5888671875 171.440429688 -78.4931640625 171.440429688 -83.4130859375 c 1
 169.740234375 -84.3974609375 168.040039062 -85.3818359375 166.33984375 -85.3818359375 c 0
 165.490234375 -85.3818359375 164.640625 -85.3818359375 163.790039062 -85.3818359375 c 0
 162.08984375 -85.3818359375 160.390625 -85.3818359375 158.690429688 -83.4130859375 c 1
 158.690429688 -75.541015625 158.690429688 -66.685546875 158.690429688 -58.8125 c 0
 158.690429688 -18.4677734375 158.690429688 7.8544921875 158.690429688 48.19921875 c 0
 158.690429688 66.8955078125 158.690429688 85.5927734375 158.690429688 104.2890625 c 0
 158.690429688 120.033203125 158.690429688 136.76171875 158.690429688 153.490234375 c 0
 158.690429688 211.649516032 161.994189845 248.793997594 164.440429688 303.719726562 c 0
EndSplineSet
Refer: 142 64258 S 1 0 0 1 0 0 2
EndChar

StartChar: brevisStemUpRightShort5thWhite
Encoding: 209 8212 129
AltUni2: 00f0d1.ffffffff.0
Width: 163
Flags: HMW
HStem: -177 21 -23 27 236 30 412 24
VStem: 32 62 167 59 439 161 610 25 777 59
LayerCount: 2
Fore
SplineSet
164.440429688 555.969726562 m 0
 164.560546875 558.672851562 164.887695312 566.661132812 165 570.6875 c 1
 166.43359375 570.6875 169.767578125 570.631835938 171.440429688 569.986328125 c 1
 171.440429688 561.129882812 171.440429688 553.0078125 171.440429688 545.135742188 c 0
 171.440429688 506.758789062 171.440429688 495.286132812 171.440429688 456.909179688 c 0
 171.440429688 430.340820312 171.440429688 151.521484375 171.440429688 124.953125 c 0
 171.440429688 96.4169921875 171.440429688 65.912109375 171.440429688 37.375 c 0
 171.440429688 8.8388671875 171.440429688 -8.6279296875 171.440429688 -36.1806640625 c 0
 171.440429688 -47.0048828125 171.440429688 -57.8291015625 171.440429688 -67.6689453125 c 0
 171.440429688 -72.5888671875 171.440429688 -78.4931640625 171.440429688 -83.4130859375 c 1
 169.740234375 -84.3974609375 168.040039062 -85.3818359375 166.33984375 -85.3818359375 c 0
 165.490234375 -85.3818359375 163.390625 -85.3818359375 162.540039062 -85.3818359375 c 0
 160.83984375 -85.3818359375 159.140625 -85.3818359375 157.440429688 -83.4130859375 c 1
 157.440429688 -75.541015625 157.440429688 -66.685546875 157.440429688 -58.8125 c 0
 157.440429688 -18.4677734375 157.440429688 7.8544921875 157.440429688 48.19921875 c 0
 157.440429688 66.8955078125 157.440429688 85.5927734375 157.440429688 104.2890625 c 0
 157.440429688 120.033203125 158.474609375 389.012695312 158.690429688 405.740234375 c 0
 159.440429688 463.899414062 161.994140625 501.043945312 164.440429688 555.969726562 c 0
EndSplineSet
Refer: 142 64258 S 1 0 0 1 0 0 2
EndChar

StartChar: clivisFinal4thWhite
Encoding: 211 8221 131
AltUni2: 00f0d3.ffffffff.0
Width: 169
Flags: HMW
HStem: -177 21 -23 27 236 30 412 24
VStem: 32 62 167 59 439 161 610 25 777 59
LayerCount: 2
Fore
SplineSet
-1.830078125 465.221679688 m 5
 0.076171875 465.594726562 2.1630859375 466.25 4.615234375 466.25 c 4
 6.595703125 466.25 8.81640625 465.822265625 11.3701171875 464.47265625 c 5
 11.3701171875 388.267578125 l 4
 11.3701171875 263.341796875 l 4
 11.3701171875 147.41015625 l 4
 11.3701171875 -1.7509765625 l 4
 11.3701171875 -80.205078125 l 4
 11.3701171875 -88.7001953125 l 5
 10.1552734375 -91 7.9462890625 -92.572265625 5.6005859375 -92.572265625 c 4
 2.849609375 -92.572265625 -0.08984375 -90.40625 -1.830078125 -84.7021484375 c 5
 -1.830078125 -77.2060546875 l 4
 -1.830078125 21.2353515625 l 4
 -1.830078125 173.39453125 l 4
 -1.830078125 295.323242188 l 4
 -1.830078125 399.260742188 l 4
 -1.830078125 465.221679688 l 5
EndSplineSet
Refer: 142 64258 N 1 0 0 1 0 0 2
EndChar

StartChar: clivisFinal5thWhite
Encoding: 212 8216 132
AltUni2: 00f0d4.ffffffff.0
Width: 170
Flags: HMW
HStem: -177 21 -23 27 236 30 412 24
VStem: 32 62 167 59 439 161 610 25 777 59
LayerCount: 2
Fore
SplineSet
-2.08984375 589.9921875 m 5
 -0.18359375 590.448242188 1.9033203125 591.25 4.35546875 591.25 c 4
 6.3359375 591.25 8.5556640625 590.7265625 11.1103515625 589.076171875 c 5
 11.1103515625 497.353515625 l 4
 11.1103515625 344.532226562 l 4
 11.1103515625 202.711914062 l 4
 11.1103515625 20.2431640625 l 4
 11.1103515625 -75.7294921875 l 4
 11.1103515625 -86.12109375 l 5
 9.8955078125 -88.9345703125 7.6865234375 -90.859375 5.3408203125 -90.859375 c 4
 2.5888671875 -90.859375 -0.349609375 -88.2080078125 -2.08984375 -81.2314453125 c 5
 -2.08984375 -72.0615234375 l 4
 -2.08984375 48.361328125 l 4
 -2.08984375 234.499023438 l 4
 -2.08984375 383.654296875 l 4
 -2.08984375 510.801757812 l 4
 -2.08984375 589.9921875 l 5
EndSplineSet
Refer: 142 64258 N 1 0 0 1 0 0 2
EndChar

StartChar: clivisFinal6thWhite
Encoding: 213 8217 133
AltUni2: 00f0d5.ffffffff.0
Width: 170
Flags: HMW
HStem: -177 21 -23 27 236 30 412 24
VStem: 32 62 167 59 439 161 610 25 777 59
LayerCount: 2
Fore
SplineSet
-1.83984375 715.01171875 m 5
 0.06640625 715.551757812 2.1533203125 716.5 4.60546875 716.5 c 4
 6.5859375 716.5 8.8056640625 715.880859375 11.3603515625 713.926757812 c 5
 11.3603515625 603.625 l 4
 11.3603515625 422.802734375 l 4
 11.3603515625 255.000976562 l 4
 11.3603515625 39.099609375 l 4
 11.3603515625 -74.45703125 l 4
 11.3603515625 -86.75390625 l 5
 10.1455078125 -90.08203125 7.9365234375 -92.359375 5.5908203125 -92.359375 c 4
 2.8388671875 -92.359375 -0.099609375 -89.2236328125 -1.83984375 -80.9677734375 c 5
 -1.83984375 -70.1171875 l 4
 -1.83984375 72.3701171875 l 4
 -1.83984375 292.612304688 l 4
 -1.83984375 469.09375 l 4
 -1.83984375 619.538085938 l 4
 -1.83984375 715.01171875 l 5
EndSplineSet
Refer: 142 64258 N 1 0 0 1 0 0 2
EndChar

StartChar: clivisFinal7thWhite
Encoding: 214 247 134
AltUni2: 00f0d6.ffffffff.0
Width: 169
Flags: HMW
HStem: -177 21 -23 27 236 30 412 24
VStem: 32 62 167 59 439 161 610 25 777 59
LayerCount: 2
Fore
SplineSet
-1.83984375 842.01171875 m 5
 0.06640625 842.551757812 2.1533203125 843.5 4.60546875 843.5 c 4
 6.5859375 843.5 8.8056640625 842.880859375 11.3603515625 840.926757812 c 5
 11.3603515625 730.625 l 4
 11.3603515625 423.302734375 l 4
 11.3603515625 255.500976562 l 4
 11.3603515625 39.599609375 l 4
 11.3603515625 -73.95703125 l 4
 11.3603515625 -86.25390625 l 5
 10.1455078125 -89.58203125 7.9365234375 -91.859375 5.5908203125 -91.859375 c 4
 2.8388671875 -91.859375 -0.099609375 -88.7236328125 -1.83984375 -80.4677734375 c 5
 -1.83984375 -69.6171875 l 4
 -1.83984375 72.8701171875 l 4
 -1.83984375 293.112304688 l 4
 -1.83984375 469.59375 l 4
 -1.83984375 746.538085938 l 4
 -1.83984375 842.01171875 l 5
EndSplineSet
Refer: 142 64258 N 1 0 0 1 0 0 2
EndChar

StartChar: clivisFinal8veWhite
Encoding: 215 9674 135
AltUni2: 00f0d7.ffffffff.0
Width: 169
Flags: HMW
HStem: -177 21 -23 27 236 30 412 24
VStem: 32 62 167 59 439 161 610 25 777 59
LayerCount: 2
Fore
SplineSet
-2.08984375 972.26171875 m 5
 -0.18359375 972.301757812 1.9033203125 972.25 4.35546875 972 c 4
 6.328125 971.798828125 8.5556640625 971.630859375 11.1103515625 969.676757812 c 5
 11.1103515625 793.125 l 4
 11.1103515625 429.552734375 l 4
 11.1103515625 261.750976562 l 4
 11.1103515625 45.849609375 l 4
 11.1103515625 -67.70703125 l 4
 11.1103515625 -80.00390625 l 5
 9.8955078125 -83.33203125 7.6865234375 -85.609375 5.3408203125 -85.609375 c 4
 2.5888671875 -85.609375 -0.349609375 -82.4736328125 -2.08984375 -74.2177734375 c 5
 -2.08984375 -63.3671875 l 4
 -2.08984375 79.1201171875 l 4
 -2.08984375 299.362304688 l 4
 -2.08984375 475.84375 l 4
 -2.08984375 809.038085938 l 4
 -2.08984375 972.26171875 l 5
EndSplineSet
Refer: 142 64258 N 1 0 0 1 0 0 2
EndChar

StartChar: pesFinal2ndWhite
Encoding: 216 255 136
AltUni2: 00f0d8.ffffffff.0
Width: 6
Flags: HMW
HStem: -390 42 38 216 351 36
VStem: 26.8343 177 569.834 99
LayerCount: 2
Fore
SplineSet
-78.7001953125 1.099609375 m 4
 -61.599609375 1.099609375 -36.400390625 2 -22 2.900390625 c 4
 -13.900390625 2.900390625 -7.599609375 7.400390625 -7.599609375 15.5 c 6
 -7.599609375 63.099609375 l 6
 -7.599609375 77.5 -18.400390625 87.400390625 -31 89.2001953125 c 4
 -46.2998046875 91 -57.099609375 91.900390625 -69.7001953125 91.900390625 c 4
 -70.599609375 91.900390625 -79.150390625 91.900390625 -80.0498046875 91.900390625 c 4
 -94.4501953125 91.900390625 -115.599609375 91 -128.200195312 90.099609375 c 4
 -136.299804688 89.2001953125 -139 82 -139 76.599609375 c 4
 -139.900390625 64.900390625 -139.900390625 59.5 -139.900390625 47.7998046875 c 6
 -139.900390625 22.7001953125 l 6
 -139.900390625 11.900390625 -128.200195312 2.900390625 -113.799804688 2 c 4
 -103 1.099609375 -94.900390625 1.099609375 -78.7001953125 1.099609375 c 4
5.6826171875 74.6669921875 m 0
 5.6962890625 45.884765625 6 6.7314453125 6 -21.2412109375 c 0
 6 -58.009765625 5.7216796875 -92.5322265625 5.7216796875 -124.772460938 c 0
 5.7216796875 -169.413085938 6.01138742778 -168.676532822 6.05078125 -204.465820312 c 0
 6.052734375 -206.240234375 6.580078125 -209.500976562 6.58007863941 -211.812028794 c 0
 6.58007863941 -215.490821819 6.56366138671 -216.5 0.6650390625 -216.5 c 0
 -3.630859375 -216.5 -5.74609375 -215.287109375 -5.74609375 -212.43359375 c 0
 -5.74609375 -209.5703125 -5.0634765625 -206.620117188 -5.0634765625 -203.87109375 c 0
 -3.630859375 -145.6484375 -3.630859375 -161.022460938 -3.630859375 -95.3798828125 c 2
 -3.630859375 -94.3232421875 l 2
 -3.630859375 -88.052734375 -3.060546875 -67.9541015625 -3.060546875 -52.6708984375 c 0
 -3.060546875 -45.01171875 -3.2041015625 -41.0615234375 -3.6337890625 -38.16796875 c 0
 -4.275390625 -33.853515625 -7.5205078125 -27.5810546875 -14.65625 -27.5810546875 c 0
 -30.2216796875 -27.5810546875 -50.8583984375 -26.810546875 -70.0859375 -26.810546875 c 0
 -79.2421875 -26.810546875 -85.6513671875 -26.470703125 -94.8076171875 -26.470703125 c 0
 -97.5537109375 -26.470703125 -98.4697265625 -26.470703125 -102.131835938 -26.470703125 c 0
 -118.61328125 -26.470703125 -136.424804688 -27.220703125 -143.75 -28.7412109375 c 0
 -146.713867188 -29.3564453125 -146.703125 -29.427734375 -147.438476562 -29.427734375 c 0
 -152.029296875 -29.427734375 -152.490234375 -27.7744140625 -152.490234375 -21.1806640625 c 2
 -152.490234375 -21.1806640625 -152.490234375 -20.3408203125 -152.490234375 -19.5009765625 c 0
 -152.490234375 4.0185546875 -150.659179688 26.69921875 -150.659179688 50.21875 c 0
 -150.659179688 70.37890625 -151.57421875 97.888671875 -152.490234375 119.728515625 c 0
 -152.490234375 124.768554688 -150.659179688 126.44921875 -146.99609375 126.44921875 c 0
 -132.346679688 127.2890625 -110.372070312 128.548828125 -83.8203125 128.548828125 c 0
 -80.1572265625 128.548828125 -76.4951171875 128.548828125 -72.8330078125 128.548828125 c 0
 -60.0146484375 128.548828125 -51.5302734375 128.548828125 -38.7119140625 127.918945312 c 0
 -27.7021484375 127.377929688 -30.1533203125 127.2890625 -20.08203125 127.2890625 c 0
 -2.384765625 127.2890625 6 114.8359375 6 98 c 0
 6 84.97265625 5.9287109375 87.5625 5.6826171875 74.6669921875 c 0
EndSplineSet
EndChar

StartChar: pesFinal8vaWhite
Encoding: 222 64257 141
AltUni2: 00f0de.ffffffff.0
Width: 5
Flags: HMW
HStem: -390 42 38 216 351 36
VStem: 8.25 177 551.25 99
LayerCount: 2
Fore
SplineSet
-8.0322265625 -957.616210938 m 0
 -8.0322265625 -954.853515625 -7.2724609375 -949.328125 -7.2724609375 -946.564453125 c 0
 -7.2724609375 -943.80078125 -6.5126953125 -939.65625 -6.5126953125 -936.892578125 c 0
 -4.994140625 -795.977539062 -4.994140625 -473.41796875 -4.994140625 -314.54296875 c 2
 -4.994140625 -311.984375 l 2
 -4.994140625 -166.5390625 -4.99609375 -53.814453125 -5.7509765625 69.7978515625 c 1
 -5.6796875 76.6865234375 -2.5234375 77.7412109375 -0.2451171875 77.7412109375 c 0
 2.890625 77.7412109375 4.880859375 76.4560546875 4.880859375 72.560546875 c 0
 4.880859375 60.169921875 4.8779296875 54.60546875 4.8779296875 40.7900390625 c 0
 4.8779296875 -203.740234375 5.05078125 -742.046875 6.017578125 -876.139648438 c 0
 6.376953125 -926.059570312 8.111328125 -917.505859375 9.2509765625 -954.063476562 c 0
 9.5810546875 -964.649414062 6.2734375 -968.668945312 -0.4375 -968.668945312 c 0
 -4.994140625 -968.668945312 -8.0322265625 -964.524414062 -8.0322265625 -957.616210938 c 0
EndSplineSet
Refer: 306 -1 S 1 0 0 1 0 0 2
EndChar

StartChar: mensuralBrevisWhite
Encoding: 223 64258 142
AltUni2: 00e9ee.ffffffff.0 00f0df.ffffffff.0
Width: 171
VWidth: 1330
Flags: HMW
HStem: -509 113 -113 109
VStem: 363 103
LayerCount: 2
Fore
SplineSet
79 88 m 0
 105 88 141 89 163 90 c 0
 166 91 l 0
 169 91 171 90 171 86 c 0
 171 86 171 85 171 82 c 0
 170 67 170 26 170 -6 c 27
 170 -35 171 -69 171 -83 c 0
 171 -86 171 -88 171 -88 c 2
 171 -93 171 -93 168 -93 c 0
 167 -93 165 -92 164 -92 c 0
 138 -91 114 -89 84 -89 c 0
 60 -89 29 -91 8 -92 c 0
 6 -92 5 -94 3 -94 c 0
 -2 -94 -2 -92 -2 -85 c 1
 -2 -68 -1 -50 -1 -32 c 0
 -1 -19 -1 -7 -1 6 c 0
 -1 32 -2 57 -2 85 c 0
 -2 86 l 0
 -2 90 -1 91 2 91 c 0
 3 91 4 90 4 90 c 0
 29 88 54 88 79 88 c 0
79 53.5 m 4
 61 53.5 52 53.5 40 52.5 c 4
 24 51.5 11 41.5 11 29.5 c 4
 11 17.5 11 10 11 -1 c 4
 11 -3 11 -7.5 11 -9.5 c 4
 11 -22.5 11 -28.5 12 -41.5 c 4
 12 -47.5 15 -55.5 24 -56.5 c 4
 38 -57.5 61.5 -58.5 77.5 -58.5 c 4
 78.5 -58.5 88 -58.5 89 -58.5 c 4
 103 -58.5 115 -57.5 132 -55.5 c 4
 146 -53.5 158 -42.5 158 -26.5 c 6
 158 -26.5 158 0.5 158 12.5 c 4
 158 22.5 158 29.5 158 37.5 c 4
 158 46.5 151 51.5 142 51.5 c 4
 126 52.5 98 53.5 79 53.5 c 4
EndSplineSet
EndChar

StartChar: porrectusObl2ndCrushedWhite
Encoding: 232 203 143
AltUni2: 00f0e8.ffffffff.0
Width: 432
Flags: MW
HStem: -121 85
VStem: 86 85
LayerCount: 2
Fore
SplineSet
432 -75 m 1
 348 -69 275 -53 201 -26 c 0
 129 0 68 34 0 59 c 1
 0 199 l 1
 75 169 140 124 192 101 c 0
 262 70 339 28 432 57 c 1
 432 -75 l 1
207.299804688 -6.8837890625 m 0
 263.2421875 -26.6279296875 329.036132812 -41.337890625 390.86328125 -47.8994140625 c 0
 401.038085938 -48.9794921875 405.000976562 -45.689453125 405.000976562 -34.400390625 c 2
 405.000976562 17.509765625 l 2
 405.000976562 27.7939453125 401.690429688 35.26171875 393.038085938 34.09765625 c 0
 282.177734375 19.1875 135.679611582 115.298661976 37.916015625 159.969726562 c 0
 31.771484375 162.77734375 28.1279296875 156.376953125 28.1279296875 147.586914062 c 2
 28.1279296875 87.537109375 l 2
 28.1279296875 73.607421875 40.615234375 64.3056640625 47.333984375 61.599609375 c 0
 100.141601562 40.33203125 149.818123014 13.4036271908 207.299804688 -6.8837890625 c 0
EndSplineSet
Validated: 33
EndChar

StartChar: porrectusObl3rdCrushedWhite
Encoding: 233 200 144
AltUni2: 00f0e9.ffffffff.0
Width: 448
Flags: MW
VStem: -117 14 -46 14
LayerCount: 2
Fore
SplineSet
448 -75 m 1
 307 -69 255 -16 184 33 c 0
 116 80 59 131 0 183 c 1
 0 324 l 1
 87 236 124 213 175 169 c 0
 222.151206401 127.53945644 322.834558305 41.7992369711 399.682845238 41.7992369711 c 0
 417.364496823 41.7992369711 433.784339422 46.3382545666 448 57 c 1
 448 -75 l 1
400.333984375 -47.333984375 m 0
 416.225255966 -47.4495910009 426.541015625 -39.154296875 426.541015625 -22.009765625 c 2
 426.541015625 -4.4853515625 l 2
 426.541015625 21.0166015625 413.323612549 23.599609375 394.5 23.599609375 c 0
 318.697265625 23.599609375 217.244060708 108.590276532 170.059570312 149.751953125 c 0
 130.21484375 184.510742188 100.416015625 204.5859375 45.4404296875 256.473632812 c 0
 41.2197265625 260.456054688 37.15625 264.264648438 34.0888671875 264.264648438 c 0
 30.83203125 264.264648438 28.7001953125 259.969726562 28.7001953125 247.029296875 c 2
 28.7001953125 203.669921875 l 2
 28.7001953125 181.795898438 38.818359375 169.68359375 50.08984375 159.971679688 c 0
 111.999023438 106.627929688 175.149481811 57.2065911144 241.669921875 10.251953125 c 0
 286.251752674 -21.2169265768 344.49292403 -46.9277490064 400.333984375 -47.333984375 c 0
EndSplineSet
Validated: 33
EndChar

StartChar: porrectusObl4thCrushedWhite
Encoding: 234 205 145
AltUni2: 00f0ea.ffffffff.0
Width: 538
Flags: MW
HStem: -223 21 -76 51 190 30 231 18 413 24
VStem: 2 93 275 161 492 25 613 59
LayerCount: 2
Fore
SplineSet
538 -75 m 1
 535.746038646 -75.0834800501 533.484672817 -75.1247110302 531.216447916 -75.1247110302 c 0
 424.801225836 -75.1247110302 303.288658972 15.6278609776 223 92 c 0
 143 168 81 239 0 308 c 1
 0 449 l 1
 92 364 168 282 229 225 c 0
 298.026803741 160.341981306 393.010952072 45.2961760559 493.94031695 45.2961760559 c 0
 508.522889366 45.2961760559 523.229570098 47.6977943941 538 53 c 1
 538 28.3333333333 538.444444444 -9.66666666667 538.444444444 -39.3703703704 c 0
 538.444444444 -54.2222222222 538.333333333 -67 538 -75 c 1
232 102 m 5
 307.414498293 31.2989078502 413.043025148 -47.4000153895 506.999995907 -59.5404290277 c 4
 533.320568533 -62.9413756137 525.385492823 -14.9917215288 524.134765625 0.6669921875 c 4
 521.992794325 27.4838035855 521.368981301 30.9153343479 494.263387293 30.9153343479 c 4
 387.072053547 30.9153343479 290.449617063 148.130486595 219 215 c 4
 167.734558419 263.469144768 104.305798819 329.314458133 30.3333520298 401.198524292 c 4
 26.5910313815 404.835192223 23.4028385477 407.02414814 20.8634726662 407.02414814 c 4
 16.4531908787 407.02414814 14 400.421485121 14 383.333007812 c 6
 14 334.333007812 l 6
 14 313.375 22.7830936518 306.582261773 33.3333333333 297.241170806 c 4
 103.250930542 235.33673494 160.478885061 170.770302826 232 102 c 5
EndSplineSet
Validated: 33
EndChar

StartChar: porrectusObl5thCrushedWhite
Encoding: 235 206 146
AltUni2: 00f0eb.ffffffff.0
Width: 550
Flags: MW
HStem: 240 18 422 24
VStem: -1407 93 -1135 93 -917 25 -863 93 -645 25 -425 77
LayerCount: 2
Fore
SplineSet
550 -75 m 1
 429 -78 284 17 219 111 c 0
 144 218 77 327 0 433 c 1
 0 574 l 1
 87 462 143 380 202 297 c 0
 318 136 372 25 550 51 c 1
 550 -75 l 1
230 119 m 0
 291 31 424 -57 536 -61 c 1
 536 35 l 1
 352 16 281 164 191 289 c 0
 138 364 87 437 14 533 c 1
 14 438 l 1
 90 333 156 225 230 119 c 0
EndSplineSet
Validated: 33
EndChar

StartChar: porrectusObl6thCrushedWhite
Encoding: 236 207 147
AltUni2: 00f0ec.ffffffff.0
Width: 668
Flags: MW
HStem: 240 18 422 24
VStem: -930 93 -440 25 -386 93 -168 25 104 25
LayerCount: 2
Fore
SplineSet
668 -75 m 1
 433 -40 368 40 271 163 c 0
 178 281 87 444 0 558 c 1
 0 699 l 1
 118 562 194 443 266 348 c 0
 352 233 494 0 668 65 c 1
 668 -75 l 1
282 172 m 0
 376 53 437 -23 654 -59 c 1
 654 46 l 1
 479 0 342 223 254 340 c 0
 188 428 118 536 14 661 c 1
 14 563 l 1
 100 449 190 288 282 172 c 0
EndSplineSet
Validated: 33
EndChar

StartChar: porrectusObl7thCrushedWhite
Encoding: 237 204 148
AltUni2: 00f0ed.ffffffff.0
Width: 764
Flags: MW
VStem: 16 19
LayerCount: 2
Fore
SplineSet
764 -75 m 1
 552 -38 421 44 313 188 c 0
 211 324 99 540 0 683 c 1
 0 824 l 1
 132 684 221 507 304 387 c 0
 402 246 593 14 764 54 c 1
 764 -75 l 1
324 196 m 0
 427 59 551 -20 750 -58 c 1
 750 37 l 1
 573 13 385 245 292 379 c 0
 198 515 124 662 14 788 c 1
 14 687 l 1
 112 544 223 331 324 196 c 0
EndSplineSet
Validated: 33
EndChar

StartChar: porrectusObl8vaCrushedWhite
Encoding: 238 211 149
AltUni2: 00f0ee.ffffffff.0
Width: 868
Flags: MW
HStem: 1 108
VStem: -132 281
LayerCount: 2
Fore
SplineSet
868 -75 m 1
 619 -81 454 125 336 289 c 0
 221 449 126 636 0 808 c 1
 0 949 l 1
 146 771 266 588 345 447 c 0
 443 271 665 12 868 52 c 1
 868 -75 l 1
347 297 m 0
 464 135 621 -59 854 -61 c 1
 854 36 l 1
 645 10 428 271 333 440 c 0
 259 572 148 742 14 909 c 1
 14 813 l 1
 139 642 233 456 347 297 c 0
EndSplineSet
Validated: 33
EndChar

StartChar: obliqueDesc6thWhite
Encoding: 244 217 153
AltUni2: 00f0f4.ffffffff.0
Width: 668
Flags: HMW
HStem: 0 13 166 17 211 114
VStem: 2 75 175 63
LayerCount: 2
Fore
SplineSet
653.650390625 -34.1435546875 m 4
 657.410126638 -34.1435546875 656.525390625 39.2772122418 656.525390625 53.3525390625 c 4
 656.525390625 67.5146484375 641.4375 98.2109375 624.541015625 126.8515625 c 4
 604.862304688 160.208984375 580.322265625 193.395507812 545.634765625 236.874023438 c 4
 487.173828125 310.151367188 409.01953125 396.231445312 323.001953125 469.227539062 c 4
 213.90625 561.807617188 94.3154296875 649.502929688 16.314453125 681.997070312 c 4
 15.091796875 682.506835938 14.080078125 682.75390625 13.345703125 682.75390625 c 4
 12.4931640625 682.75390625 12.0146484375 682.419921875 12.0146484375 681.763671875 c 6
 13.19140625 570.060546875 l 6
 13.2392578125 565.5703125 13.8671875 549.254882812 33.1640625 538.330078125 c 4
 146.025390625 474.432617188 241.756835938 410.225585938 319.25 341.5 c 4
 444.9765625 229.998046875 544.9921875 113.450195312 651.19921875 -32.6533203125 c 4
 651.76953125 -33.4384765625 652.814453125 -34.1435546875 653.650390625 -34.1435546875 c 4
0 716.5 m 1
 79.2157260707 698.602199357 276.621976251 549.379165542 396.5 436.25 c 0
 504.984375 333.873046875 618.782994429 195.010848003 660.984375 106.25 c 0
 664.273684088 99.331698749 668 95.5732421875 668 84.5 c 2
 668 -90.75 l 1
 589 37.25 452.702148438 186.456054688 366 272 c 0
 269.752929688 366.9609375 92.73828125 497.880859375 0 531.75 c 1
 0 716.5 l 1
EndSplineSet
EndChar

StartChar: obliqueDesc7thWhite
Encoding: 245 305 154
AltUni2: 00f0f5.ffffffff.0
Width: 764
Flags: HMW
HStem: 0 18 310 17
VStem: 0 31 232 32
LayerCount: 2
Fore
SplineSet
742.669921875 -25.080078125 m 4
 746.91796875 -25.080078125 745.918945312 60.822265625 745.918945312 77.291015625 c 4
 745.918945312 93.8603515625 728.869140625 129.775390625 709.776367188 163.284179688 c 4
 687.5390625 202.3125 659.80859375 241.140625 620.612304688 292.010742188 c 4
 554.551757812 377.745117188 466.237304688 478.458984375 369.037109375 563.864257812 c 4
 245.758789062 672.182617188 110.62109375 774.786132812 22.48046875 812.8046875 c 4
 21.0986328125 813.401367188 19.955078125 813.690429688 19.1259765625 813.690429688 c 4
 18.162109375 813.690429688 17.62109375 813.299804688 17.62109375 812.53125 c 6
 18.951171875 681.838867188 l 6
 19.0048828125 676.584960938 19.71484375 657.49609375 41.5205078125 644.713867188 c 4
 169.053710938 569.954101562 277.23046875 494.83203125 364.797851562 414.422851562 c 4
 506.868164062 283.965820312 619.885742188 147.604492188 739.900390625 -23.3359375 c 4
 740.544921875 -24.2548828125 741.725585938 -25.080078125 742.669921875 -25.080078125 c 4
0 842.25 m 1
 144.597518987 783.116515468 310.453125 654.616210938 455 502.958007812 c 0
 579.344197141 372.495592419 687.565907319 223.071715037 753.62890625 111.833007812 c 0
 759.557926833 101.849558749 764 96.2568359375 764 80.0830078125 c 2
 764 -91.5 l 1
 679 35.5 567.806640625 174.233398438 455 290 c 0
 320.76953125 427.75390625 122.477539062 595.698242188 0 656.5 c 1
 0 842.25 l 1
EndSplineSet
EndChar

StartChar: obliqueDesc8vaWhite
Encoding: 246 710 155
AltUni2: 00f0f6.ffffffff.0
Width: 868
Flags: MW
HStem: 262 25
LayerCount: 2
Fore
SplineSet
0 970.25 m 1
 187.244826096 872.344361381 377.76953125 711.571289062 516 569.75 c 0
 684.386441491 399.439142035 799.07421875 234.359375 860.953125 109.5 c 0
 864.989257812 101.356445312 868 97.134765625 868 84.5 c 2
 868 -93 l 1
 782.493335078 44.2390782579 609 259.674804688 489 386.674804688 c 0
 352 532.674804688 114.005859375 724.701171875 0 786.5 c 5
 0 970.25 l 1
EndSplineSet
EndChar

StartChar: breve
Encoding: 249 728 156
AltUni2: 00f0f9.ffffffff.0
Width: 53
Flags: MW
HStem: -34 76
VStem: 146 79
LayerCount: 2
Fore
SplineSet
41 -296 m 5
 41.9462890625 -62.5859375 l 6
 41.9566037252 -59.9897817539 42.0428955842 -57.5512811637 42.0428955842 -55.3695547105 c 0
 42.0428955842 -49.3289080408 41.3813860653 -45.2566803806 36.614192766 -45.2566803806 c 0
 35.6045344249 -45.2566803806 34.4107103416 -45.4393454055 33 -45.824662163 c 4
 21.3643768756 -49.0027777849 10.3643768756 -55.2301426437 0 -64 c 5
 0 33.4140625 l 6
 0 42.544921875 1.6383084328 48.7339754845 6 52.7961735139 c 4
 22.6180367444 68.2731404373 37.8090183722 77.5320642271 53 82 c 5
 53 -292 l 5
 50.5313730334 -294.468626967 47.3856217223 -296.260129589 43.5627460668 -296.260129589 c 0
 42.7398704113 -296.260129589 41.8856217223 -296.177124344 41 -296 c 5
EndSplineSet
Validated: 1
EndChar

StartChar: ascii189
Encoding: 189 937 160
AltUni2: 00f0bd.ffffffff.0
Width: 165
Flags: W
HStem: 272 17
LayerCount: 2
Fore
SplineSet
114.495117188 7.2548828125 m 4
 98.5283203125 25.0302734375 98.4658203125 25.146484375 86.5 41.9169921875 c 4
 82.8984375 46.9638671875 78.9296875 48.796875 75.3837890625 48.796875 c 4
 71.283203125 48.796875 67.748046875 46.3466796875 66 43.5830078125 c 4
 55.869140625 27.5693359375 46.8330078125 14.216796875 38.5400390625 3.4677734375 c 4
 36.46484375 0.77734375 35.6171875 -1.7783203125 35.6171875 -4.2333984375 c 4
 35.6171875 -8.703125 38.4267578125 -12.8369140625 41.75 -16.8330078125 c 4
 51.0830078125 -28.0546875 55.3115234375 -32.06640625 68.4990234375 -49.5830078125 c 4
 70.9189453125 -52.7978515625 73.6240234375 -54.4794921875 76.28515625 -54.4794921875 c 4
 78.8251953125 -54.4794921875 81.326171875 -52.9462890625 83.5009765625 -49.75 c 6
 114.383789062 -8.08984375 l 6
 116.4140625 -5.1064453125 117.5 -2.35546875 117.5 0.25 c 4
 117.5 2.6650390625 116.55078125 4.966796875 114.495117188 7.2548828125 c 4
-172 -227 m 1
 -106.935749405 -134.810615456 4.15635373936 -1.6972144816 68 95 c 1
 92.6126376246 62.4241077787 113.363805051 31.0055702913 148 -3 c 1
 148.016658179 -2.9547502537 148.024902668 -2.92002827374 148.024902668 -2.89564724038 c 0
 148.024902668 -2.86659268447 148.013194526 -2.85222348733 147.99006459 -2.85222348733 c 0
 146.503227189 -2.85222348733 97.8196038581 -62.2281779487 78 -97 c 1
 55.0549790697 -65.7056349608 37.1606034705 -37.2189335216 12 -11 c 1
 -21.4592132568 -55.0577087402 -128 -191 -160 -235 c 1
 -161.788061474 -235.76631206 -163.445626465 -236.141134672 -164.922694459 -236.141134672 c 0
 -169.228132327 -236.141134672 -172 -232.956501172 -172 -227 c 1
EndSplineSet
Validated: 1
EndChar

StartChar: plicaLongaAscWhite
Encoding: 173 8800 162
AltUni2: 00f0ad.ffffffff.0
Width: 161
VWidth: 1500
Flags: HW
VStem: -3.09 61.8 281.19 61.8 563.925 61.8
LayerCount: 2
Fore
SplineSet
144.5 456.958007812 m 0
 144.5 461.985351562 149.75 465.001953125 155.75 465.001953125 c 0
 164.423828125 465.001953125 167.521484375 462.190429688 167.521484375 454.794921875 c 0
 167.521484375 452.09765625 167.005859375 449.471679688 166.9765625 446.90234375 c 0
 166.946289062 444.251953125 166.401367188 441.66015625 166.344726562 439.109375 c 0
 165.836914062 416.122070312 165.364257812 396.397460938 164.75 366.458984375 c 0
 163.266988976 294.134680135 161.914789005 195.359783232 161.356445312 80.87109375 c 0
 161.327148438 74.86328125 161.302734375 69.857421875 161.272460938 63.849609375 c 0
 161.232715183 55.6994111792 161.08422818 47.314093734 160.900381049 38.775001184 c 0
 160.803003241 12.0221137112 160.750000061 -15.8326502945 160.75 -44.806640625 c 2
 160.75 -78.744140625 l 2
 160.631835516 -78.8035113547 160.513671031 -78.8602538242 160.395506125 -78.914471289 c 0
 159.32831212 -85.7852058631 153.853474046 -87.6411426332 144.627929688 -88.0595703125 c 0
 141.883171377 -88.1837652336 138.832390471 -88.2323850196 135.561972543 -88.2323850196 c 0
 123.76416434 -88.2323850196 109.108096338 -87.5996684671 95.6491848337 -87.5996684671 c 0
 91.2179923123 -87.5996684671 86.9165691888 -87.6682536908 82.8896484375 -87.8505859375 c 0
 80.5464866971 -87.9567264443 78.3796542538 -87.9920657467 76.3008337928 -87.9920657467 c 0
 72.1575667482 -87.9920657467 68.3639176268 -87.8516842533 64.2206505822 -87.8516842533 c 0
 62.1418301212 -87.8516842533 59.9749976779 -87.8870235557 57.6318359375 -87.9931640625 c 0
 54.82421875 -88.1201171875 53.888671875 -88.162109375 50.146484375 -88.33203125 c 0
 33.3046875 -89.0947265625 14.591796875 -89.94140625 7.091796875 -93.2841796875 c 0
 4.279296875 -94.412109375 4.2744140625 -95.4140625 4.2744140625 -95.4140625 c 1
 3.3388671875 -95.4560546875 l 2
 -0.376369013093 -95.4612461822 -1.28606773015 -91.6603708901 -1.28606773015 -85.0231207424 c 0
 -1.28606773015 -84.9011355369 -1.28576044927 -84.7781922519 -1.28515625 -84.654296875 c 2
 -1.28515625 -84.654296875 -1.2802734375 -83.65234375 -1.275390625 -82.6513671875 c 0
 -1.19930157343 -67.0487636699 -0.544881997859 -51.7301833541 0.0441422906924 -36.3794873379 c 0
 0.234985117989 -9.97097486115 0.27734375002 15.0802568945 0.27734375002 42.8729717416 c 0
 0.27734375 42.8740234375 l 0
 0.27734375 47.1920113042 0.274693774428 51.5762311179 0.274693774428 56.0420321983 c 0
 0.0494739470148 65.191426204 -0.207681117315 74.1845580574 -0.4677734375 82.5546875 c 0
 -0.457411173975 84.6796423402 -0.215413449705 86.3140822148 0.258652424234 87.5466772659 c 0
 0.253845674005 97.1107077308 0.249999999936 107.115137086 0.249999999936 117.673420808 c 0
 0.25 117.67578125 l 0
 0.25 209.314453125 0.25 240.392578125 -1.75 321.671875 c 0
 -1.75 325.462890625 -3 329.541992188 -3 333.625 c 0
 -3 337.609375 2.25 340 8.25 340 c 0
 16.923828125 340 20.021484375 337.772460938 20.021484375 331.911132812 c 0
 20.021484375 329.7734375 19.505859375 327.693359375 19.4765625 325.65625 c 0
 19.4462890625 323.556640625 18.9013671875 321.502929688 18.8447265625 319.48046875 c 0
 18.3369140625 301.264648438 17.8642578125 285.6328125 17.25 261.907226562 c 0
 16.0638547611 216.065724775 14.8777095221 159.573243522 14.1087732353 91.7648560366 c 1
 28.50894921 93.2077735643 47.570051477 94.7396951393 69.7548828125 95.744140625 c 0
 73.4970703125 95.9130859375 77.240234375 96.0830078125 80.982421875 96.251953125 c 0
 85.9262021561 96.4756652639 91.0023978756 96.5629283007 96.1107996436 96.5629283007 c 0
 104.538207294 96.5629283007 113.053265637 96.3254367113 121.206054688 96.0712890625 c 0
 129.388248416 95.7117339082 137.073666637 95.3298575974 144.626011377 95.3298575974 c 0
 145.67861164 95.3298575974 146.728626936 95.3372755842 147.777041937 95.3532058633 c 1
 147.777041937 122.175252936 147.75 151.128696784 147.75 184.456054688 c 0
 147.75 300.09375 147.75 339.309570312 145.75 441.875 c 0
 145.75 446.658203125 144.5 451.805664062 144.5 456.958007812 c 0
79 56 m 4
 61 56 57.0185546875 55.24609375 45 53.5 c 4
 29.0361328125 51.1806640625 16.9833984375 42.25 16 30.25 c 4
 15.6735026042 26.2633463542 15.5646701389 22.6844618056 15.5646701389 19.2770543981 c 4
 15.5646701389 12.4622395833 16 6.33333333333 16 -1 c 4
 16 -3 16 -5 16 -7 c 4
 16 -20 16 -26 17 -39 c 4
 17 -45 20 -53 29 -54 c 4
 43 -55 64 -56 80 -56 c 4
 81 -56 83 -56 84 -56 c 4
 98 -56 110 -55 127 -53 c 4
 140.202016571 -51.1139976328 146.734648899 -41.2247341748 147.436461149 -26.6864694526 c 4
 147.459047348 -23.5231833841 147.480198829 -20.382101281 147.5 -17.2590700821 c 6
 147.5 15 l 6
 147.5 25 147.5 32 147.5 40 c 4
 147.5 49 146 54 137 54 c 4
 121 55 98 56 79 56 c 4
EndSplineSet
EndChar

StartChar: chantCclef_smufl
Encoding: 257 59654 165
Width: 136
Flags: W
HStem: -679 123G -463 123G -298 38G
VStem: 604 223 975 146G 1158 123G
LayerCount: 2
Fore
SplineSet
82 -208.799804688 m 4
 37 -208.799804688 0 -192.309570312 0 -131.200195312 c 4
 0 -80.759765625 -1.3330078125 -29.0263671875 -1.3330078125 21.701171875 c 4
 -1.3330078125 47.064453125 -1 72.1767578125 0 96.75 c 4
 4 202.48046875 34 208.299804688 84 208.299804688 c 4
 87.7521228807 208.299804688 91.9470651218 208.393634426 96.2827237648 208.393634426 c 0
 114.85090553 208.393634426 136 206.672681067 136 188.490234375 c 6
 136 75.609375 l 5
 123.42578125 81.9580078125 110.568359375 84.5888671875 98.2373046875 84.5888671875 c 4
 70.3623046875 84.5888671875 47.4228515625 71.142578125 34.25 56.791015625 c 4
 20.443359375 42.029296875 16.876953125 19.11328125 16.876953125 -2.4189453125 c 4
 16.876953125 -37.0517578125 26.4541015625 -57.9619140625 42.25 -68.3486328125 c 4
 55.9248046875 -77.3408203125 75.576171875 -84.1025390625 99.08984375 -84.1025390625 c 4
 111.190429688 -84.1025390625 123.768554688 -82.2333984375 136 -77.7578125 c 5
 136 -182.009765625 l 6
 136 -207.159457902 109.215412707 -208.799804687 82 -208.799804688 c 4
EndSplineSet
EndChar

StartChar: chantFclef_smufl
Encoding: 258 59650 166
Width: 271
Flags: W
HStem: -709 128G -484 128G -313 40G
VStem: 864 244 1271 160G 1471 135G
LayerCount: 2
Fore
SplineSet
114 -222 m 1
 113.732050808 -222.267949192 113.410254038 -222.392304845 113.044228634 -222.392304845 c 0
 110.67820323 -222.392304845 106.464101615 -217.196152423 103 -212 c 1
 103 -84 l 2
 103 -72.375 100.309856769 -67.7832680783 94 -63.8314984679 c 0
 84.3301821332 -57.7754351083 77.5770673101 -55.7797333918 69 -55 c 1
 50 -55 18 -61 0 -73 c 1
 0 44 l 1
 26 59 47 59 67 59 c 0
 79.978092673 59 90.6249619629 55.5031649253 102.5 50.2891908412 c 0
 109.479688773 47.2246182257 114 43.357421875 114 32.25 c 2
 114 -222 l 1
133 -130.684570312 m 0
 133 -80.2451171875 131.666992188 -28.51171875 131.666992188 22.2158203125 c 0
 131.666992188 47.5791015625 132 72.6923828125 133 97.2646484375 c 0
 136.90273128 189.067445342 159.478515625 206.78515625 253.8203125 206.78515625 c 0
 264.172851562 206.78515625 271 198.438476562 271 187 c 2
 271 73.7744140625 l 1
 258.243164062 78.19140625 245.807617188 80.8896484375 234.081054688 80.8896484375 c 0
 204.44140625 80.8896484375 180.344726562 70.5439453125 167 56.34375 c 0
 153.875 42.376953125 150.2421875 26.6005859375 150.2421875 -2.5439453125 c 0
 150.2421875 -27.6279296875 153.8203125 -52.0830078125 175 -66.2158203125 c 0
 187.915039062 -75.1416015625 205.501953125 -80.724609375 229.068359375 -80.724609375 c 0
 241.99609375 -80.724609375 256.12109375 -78.1953125 271 -74.4306640625 c 1
 271 -187.25 l 2
 271 -198.872545984 264.2421875 -205.359375 252.668945312 -205.359375 c 0
 195.650390625 -205.053710938 133 -200.699140055 133 -130.684570312 c 0
EndSplineSet
EndChar

StartChar: mensuralFclef_smufl
Encoding: 259 59651 167
Width: 414
Flags: HW
LayerCount: 2
Fore
SplineSet
413.982421875 117.5078125 m 0
 413.994140625 117.438476562 414 117.36328125 414 117.283203125 c 0
 414 115.970703125 412.221679688 113.40625 412.221679688 113.40625 c 0
 412.221679688 113.40625 394.107421875 87.447265625 394.107421875 87.447265625 c 0
 388.963867188 80.1513671875 380.833984375 68.30859375 378.833007812 65.5615234375 c 0
 378.03515625 64.466796875 376.047851562 62.234375 374.999023438 62.234375 c 0
 374.971679688 62.234375 374.9453125 62.236328125 374.918945312 62.2392578125 c 0
 374.165039062 62.33203125 372.61328125 62.984375 371.30859375 64.626953125 c 0
 361.924804688 76.4375 347.1796875 92.7255859375 327.053710938 113.965820312 c 0
 326.245117188 114.818359375 325.754882812 115.76171875 325.754882812 116.8046875 c 0
 325.754882812 116.823242188 325.754882812 116.841796875 325.754882812 116.860351562 c 0
 325.763671875 117.529296875 327.044921875 119.515625 328.330078125 121.107421875 c 0
 337.462890625 132.416015625 348.072265625 148.010742188 360.594726562 167.91015625 c 0
 361.743164062 169.732421875 363.708007812 171.330078125 364.336914062 171.330078125 c 0
 364.336914062 171.330078125 364.33984375 171.330078125 364.33984375 171.330078125 c 0
 364.529296875 171.326171875 366.122070312 170.857421875 368.948242188 167.848632812 c 0
 379.333007812 156.791015625 403.469760953 129.971478157 411.67578125 120.76953125 c 0
 413.220703125 119.037109375 413.764648438 117.772460938 413.982421875 117.5078125 c 0
364.640625 -54.072265625 m 4
 366.377929688 -54.205078125 368.856445312 -57.208984375 370.955078125 -59.951171875 c 4
 384.619140625 -77.8232421875 398.435546875 -93.876953125 413.390625 -107.62109375 c 4
 413.724609375 -107.927734375 413.959960938 -108.3125 414 -108.57421875 c 4
 414 -108.838867188 413.641601562 -109.514648438 413.641601562 -109.514648438 c 4
 413.641601562 -109.514648438 397.762695312 -130.099609375 397.762695312 -130.099609375 c 4
 389.197265625 -141.221679688 373.032226562 -161.965820312 372.018554688 -163.471679688 c 4
 371.834960938 -163.743164062 371.524414062 -164.077148438 371.1875 -164.077148438 c 4
 371.162109375 -164.077148438 371.13671875 -164.075195312 371.111328125 -164.072265625 c 4
 370.806640625 -164.021484375 370.302734375 -163.6171875 369.892578125 -163.069335938 c 4
 361.150390625 -151.354492188 346.232421875 -133.47265625 325.134765625 -109.407226562 c 4
 324.419921875 -108.590820312 323.360351562 -107.44140625 323.315429688 -106.918945312 c 4
 323.315429688 -106.912109375 323.315429688 -106.905273438 323.315429688 -106.897460938 c 4
 323.315429688 -106.389648438 324.578125 -105.078125 325.384765625 -104.129882812 c 4
 334.942382812 -92.876953125 346.178710938 -77.79296875 359.545898438 -58.8818359375 c 4
 361.182617188 -56.568359375 363.009765625 -54.068359375 364.53515625 -54.068359375 c 4
 364.5703125 -54.068359375 364.60546875 -54.0693359375 364.640625 -54.072265625 c 4
0.5810546875 124.21875 m 0
 0.2705078125 125.182617188 -0.001953125 128.09375 -0.001953125 130.33984375 c 0
 -0.001953125 131.65234375 0.0244140625 132.793945312 0.3232421875 133.075195312 c 0
 19.939453125 151.473632812 50.078125 168.896484375 90.412109375 168.896484375 c 0
 149.622070312 168.896484375 204.048828125 153.606445312 241.74609375 121.659179688 c 0
 274.228515625 94.1318359375 294.291015625 54.2353515625 294.291015625 1.095703125 c 0
 294.291015625 -59.810546875 274.912109375 -90.2470703125 234.970703125 -127.114257812 c 0
 208.248046875 -149.725585938 158.247070312 -163.810546875 108.911132812 -163.810546875 c 0
 65.7431640625 -163.810546875 30.798828125 -153.837890625 6.1298828125 -135.336914062 c 0
 3.12109375 -133.83203125 1.212890625 -131.225585938 1.212890625 -128.323242188 c 0
 1.212890625 -124.489257812 7.248046875 -120.647460938 10.0068359375 -120.647460938 c 0
 10.111328125 -120.647460938 10.2119140625 -120.653320312 10.3056640625 -120.6640625 c 0
 18.58984375 -121.647460938 28.1923828125 -127.951171875 37.9697265625 -130.6640625 c 0
 51.2626953125 -134.352539062 64.740234375 -136.0390625 79.251953125 -136.0390625 c 0
 133.036132812 -136.0390625 178.413085938 -123.4453125 206.637695312 -90.560546875 c 0
 225.946289062 -68.0634765625 236.581054688 -36.3837890625 236.581054688 4.9384765625 c 0
 236.581054688 42.306640625 225.140625 72.8505859375 199.359375 100.615234375 c 0
 169.330078125 132.955078125 138.405273438 146.310546875 84.8291015625 146.310546875 c 0
 56.3310546875 146.310546875 39.7373046875 138.936523438 12.3046875 122.166992188 c 0
 11.294921875 121.548828125 7.615234375 120.66796875 6.1376953125 120.66796875 c 0
 2.9580078125 120.66796875 1.2578125 122.118164062 0.5810546875 124.21875 c 0
EndSplineSet
EndChar

StartChar: mensuralGclef_smufl
Encoding: 260 59648 168
Width: 355
Flags: HW
LayerCount: 2
Fore
SplineSet
348.22265625 116.319335938 m 4
 347.118161366 110.609554047 336.657935003 108.987191921 330.435773328 108.987191921 c 4
 328.807357608 108.987191921 327.469220856 109.098312831 326.665039062 109.276367188 c 4
 322.254882812 110.252929688 317.709960938 114.193359375 312.713867188 121.584960938 c 4
 310.828125 124.374023438 308.333007812 126.256835938 305.296875 127.689453125 c 4
 297.26171875 131.482421875 287.6015625 137.318359375 272.94921875 142.365234375 c 4
 261.088741726 146.449807032 237.202386277 150.504265521 221.531400978 150.504265521 c 4
 220.507060306 150.504265521 219.517820948 150.486942283 218.569335938 150.451171875 c 4
 180.196289062 149.00390625 145.961914062 142.870117188 120.58203125 120.190429688 c 4
 93.7374370923 96.2023494955 77.0789013166 60.4885038414 77.0789013166 20.5456070632 c 4
 77.0789013166 14.6474502271 77.4421385365 8.65707947766 78.189453125 2.5986328125 c 4
 90.150390625 -94.3681640625 136.181640625 -120.76171875 161 -135 c 4
 176.758791659 -144.040569951 222.042168468 -159.96776364 248.570738728 -159.96776364 c 4
 254.839149907 -159.96776364 260.060432894 -159.078508211 263.59765625 -156.999023438 c 4
 281.688896449 -146.36343311 288.420083323 -133.046244126 288.420083323 -114.394270686 c 4
 288.420083323 -66.2696749792 245.737606015 -2.40597009187 244.1796875 -0.4873046875 c 4
 243.05413775 0.898873950271 242.564330773 2.89005535552 242.564330773 5.74484096523 c 4
 242.564330773 5.74484096523 242.564453125 5.8232421875 242.564453125 5.8232421875 c 4
 242.572855088 8.52381855816 244.42008353 12.1575952394 245.994140625 15.6357421875 c 4
 259.557601825 45.6065172743 285.383676674 50.6474586481 302.421758585 50.6474586481 c 4
 310.374810993 50.6474586481 315.523233023 49.3878425931 318.573872359 49.3878425931 c 4
 320.184586811 49.3878425931 321.588030045 50.0191290341 323.361328125 50.0185546875 c 4
 328.664858227 50.0168369477 332.143554688 45.9150390625 334.483398438 39.4736328125 c 6
 334.483398438 39.4736328125 354.612984742 -1.45144785905 354.612984742 -49.5264221485 c 4
 354.612984742 -63.9337974473 353.629254659 -74.1249423352 349.249023438 -90.7197265625 c 4
 342.17578125 -117.514648438 318.0703125 -155.998046875 281.002929688 -180.756835938 c 4
 254.101754273 -198.723865988 213.829103835 -206.26574567 182.232335528 -206.26574567 c 4
 178.82889832 -206.26574567 175.526122706 -206.178241298 172.3515625 -206.006835938 c 4
 140.896484375 -204.30859375 106.2734375 -199.361328125 75.1552734375 -178.419921875 c 4
 19.5226939754 -140.980593799 0.450988885671 -69.8508350234 0.450988885671 -0.00652434421197 c 4
 0.450988885671 61.1247420993 37.5806711163 139.40681929 92.990234375 168.52734375 c 4
 137.095698928 191.849137047 167.959391592 203.985269222 205.120021643 203.985269222 c 4
 213.369350137 203.985269222 221.928991961 203.387200134 231.012695312 202.180664062 c 4
 277.919921875 195.94921875 319.553710938 166.860351562 334.674804688 150.790039062 c 4
 343.010260024 141.929865374 348.86119543 131.773791532 348.86119543 122.724280527 c 4
 348.86119543 120.685679743 348.655733284 118.55746572 348.22265625 116.319335938 c 4
EndSplineSet
EndChar

StartChar: mensuralGclefPetrucci_smufl
Encoding: 261 59649 169
Width: 536
Flags: HW
LayerCount: 2
Fore
SplineSet
139 1183 m 0
 131 1166 127.272460938 1147.953125 127.272460938 1130.03613281 c 0
 127.272460938 1061.90722656 180.149414062 992.865234375 222.091796875 937.677734375 c 0
 234.51171875 921.3359375 244.350585938 908.708007812 256.271484375 893.787109375 c 0
 257.372070312 892.409179688 260 890 261 890 c 0
 261 890 261.737304688 890.098632812 261.737304688 890.098632812 c 0
 262.694737398 890.519934283 263 891 264 893 c 0
 270.35072891 905.701457819 271.67281224 920.608658911 271.67281224 936.386988169 c 0
 271.67281224 947.642844516 271 959.342020643 271 971 c 0
 271 980 270 989 270 999 c 0
 266 1065 256 1117 221 1163 c 0
 208 1181 182 1197 162 1197 c 0
 153 1197 144 1193 139 1183 c 0
443.75 39 m 0
 446.034179688 37.1416015625 448.880859375 36.322265625 451.129882812 36.322265625 c 0
 452.16015625 36.322265625 453.064453125 36.494140625 453.733398438 36.81640625 c 0
 463.619140625 41.5849609375 477.107421875 42.666015625 486.995117188 42.666015625 c 0
 492.762695312 42.666015625 497.3046875 42.2978515625 499.192382812 42.080078125 c 0
 499.415039062 42.0546875 499.6328125 42.04296875 499.84765625 42.04296875 c 0
 501.458007812 42.04296875 502.861328125 42.681640625 504.3515625 42.681640625 c 0
 504.4453125 42.681640625 504.540039062 42.6796875 504.634765625 42.673828125 c 0
 510.026367188 42.369140625 513.416992188 38.5703125 515.756835938 32.12890625 c 2
 515.756835938 32.12890625 535.88671875 -8.7958984375 535.88671875 -56.87109375 c 0
 535.88671875 -57.3310546875 535.884765625 -57.7919921875 535.880859375 -58.2529296875 c 0
 535.771484375 -71.7529296875 534.7578125 -82.0185546875 530.522460938 -98.064453125 c 0
 523.44921875 -124.859375 499.34375 -163.342773438 462.276367188 -188.1015625 c 0
 435.375 -206.068359375 395.102539062 -213.610351562 363.505859375 -213.610351562 c 0
 360.102539062 -213.610351562 356.799804688 -213.5234375 353.625 -213.3515625 c 0
 322.169921875 -211.653320312 287.546875 -206.706054688 256.428710938 -185.764648438 c 0
 200.852539062 -148.36328125 182.240234375 -77.7568359375 181.728515625 -8.4599609375 c 0
 181.725585938 -8.0908203125 181.724609375 -7.7216796875 181.724609375 -7.3515625 c 0
 181.724609375 53.7802734375 218.854492188 132.0625 274.263671875 161.182617188 c 0
 318.369140625 184.504882812 349.232421875 196.640625 386.393554688 196.640625 c 0
 394.642578125 196.640625 403.202148438 196.041992188 412.286132812 194.8359375 c 0
 416.127929688 194.325195312 419.93359375 193.662109375 423.693359375 192.864257812 c 0
 439.2421875 242.823242188 448.104492188 295.548828125 448.104492188 351.1875 c 0
 448.104492188 397.059570312 442.080078125 444.912109375 428.811523438 494.828125 c 0
 397.240234375 610.314453125 321.846679688 716.8671875 255.721679688 804.961914062 c 0
 254.21875 806.96484375 253.705078125 808.478515625 251.271484375 808.478515625 c 0
 251.235351562 808.478515625 251.19921875 808.478515625 251.162109375 808.477539062 c 0
 248.756835938 808.43359375 248.52734375 806.86328125 247.198242188 804.807617188 c 0
 236.114257812 787.657226562 224.515625 771.717773438 212.401367188 755.778320312 c 0
 185.26953125 720.078125 156.19921875 686.078125 129.713867188 649.528320312 c 0
 78.6962890625 577.999023438 44.8768461253 471.93782153 34.1767578125 374.38671875 c 0
 33.6368923256 369.464845952 33.376777376 364.242097732 33.376777376 358.78109185 c 0
 33.376777376 299.343365966 64.1905159781 211.681159662 100.500976562 176.530273438 c 0
 112.960086088 164.469045506 125.425597225 154.204753911 141.912756361 151.049492999 c 0
 145.335878579 150.394386583 148.902191739 150.068877824 152.417164035 150.068877824 c 0
 166.276459237 150.068877824 179.337572958 155.129467864 179.67578125 165 c 0
 179.870487914 170.682469733 174.254882813 180.283203125 179.8984375 181.716796875 c 0
 180.749881696 181.933083444 181.57421875 182.036132812 182.369140625 182.036132812 c 0
 189.942676932 182.036132812 194.611588246 171.797757382 194.611588246 160.519089359 c 0
 194.611588246 147.161839196 184.296659346 139.030273385 177.900390625 134.80078125 c 0
 172.386948489 131.155052596 157.193348997 125.237486895 148.853515625 125.041015625 c 0
 148.434800984 125.031151471 148.016652903 125.026280177 147.599065668 125.026280177 c 0
 132.6639678 125.026280177 118.446275656 131.257400446 104.684570312 138.158203125 c 0
 82.5497492576 149.257701961 63.0457998091 166.898430526 49.609375 184.578125 c 0
 14.3594889832 230.960047564 0.1787109375 285.659179688 0.1787109375 341.89453125 c 0
 0.1787109375 447.458984375 50.1494140625 558.4375 104.51953125 629.977539062 c 0
 132.944335938 667.377929688 162.659179688 702.227539062 190.4375 739.627929688 c 0
 208.265625 763.868164062 224.454101562 789.546875 237.493164062 817.325195312 c 0
 237.963867188 818.328125 238.477539062 820.477539062 238.477539062 822.81640625 c 0
 238.477539062 823.413085938 238.444335938 824.022460938 238.368164062 824.627929688 c 0
 238.021484375 827.372070312 236.697265625 830.04296875 235.833007812 831.16015625 c 0
 222.20703125 848.780273438 205.8671875 868.076171875 187.853515625 891.778320312 c 0
 140.96875 953.467773438 96.185546875 1019.57910156 96.185546875 1094.5703125 c 0
 96.185546875 1112.57421875 98.7666015625 1131.08886719 104.51953125 1150.17773438 c 0
 112.271484375 1174.828125 129.713867188 1209.67773438 147.801757812 1225.828125 c 0
 158.756835938 1235.19726562 174.0078125 1240.59472656 190.305664062 1240.59472656 c 0
 212.451171875 1240.59472656 236.529296875 1230.63085938 254.391601562 1207.12792969 c 0
 293.151367188 1156.12792969 304.779296875 1105.97753906 309.301757812 1037.97753906 c 0
 309.928710938 1028.4296875 310.233398438 1019.12597656 310.233398438 1010.05273438 c 0
 310.233398438 956.856445312 299.78125 911.54296875 282.697265625 870.9140625 c 0
 281.861328125 868.924804688 281.525390625 867.083007812 281.525390625 865.075195312 c 0
 281.525390625 864.650390625 281.541015625 864.217773438 281.569335938 863.774414062 c 0
 281.69140625 861.8828125 282.280273438 860.182617188 283.635742188 858.396484375 c 0
 352.028320312 768.3125 435.278320312 655.615234375 468.217773438 533.927734375 c 0
 480.991210938 485.872070312 486.750976562 439.333007812 486.750976562 394.45703125 c 1
 486.750976562 326.719726562 468.748046875 249.606445312 445.59375 186.634765625 c 1
 478.052734375 175.094726562 504.54296875 155.56640625 515.948242188 143.4453125 c 0
 524.284179688 134.584960938 530.134765625 126.258789062 530.134765625 115.379882812 c 0
 530.134765625 113.340820312 529.928710938 111.212890625 529.49609375 108.974609375 c 0
 528.391601562 103.264648438 517.931640625 101.642578125 511.708984375 101.642578125 c 0
 510.081054688 101.642578125 508.7421875 101.75390625 507.938476562 101.931640625 c 0
 503.528320312 102.908203125 498.983398438 106.848632812 493.987304688 114.240234375 c 0
 492.1015625 117.029296875 489.606445312 118.912109375 486.5703125 120.344726562 c 0
 478.53515625 124.137695312 468.875 129.973632812 454.22265625 135.020507812 c 0
 447.646484375 137.28515625 437.374023438 139.540039062 426.854492188 141.100585938 c 1
 421.223632812 128.892578125 415.499023438 117.712890625 409.828125 107.833007812 c 0
 409.326171875 106.958007812 409.092773438 105.703125 409.092773438 104.145507812 c 0
 409.092773438 95.646484375 416.034179688 78.115234375 424.05859375 63.8134765625 c 0
 429.16015625 54.7216796875 438.807617188 43.021484375 443.75 39 c 0
423.155273438 2.0439453125 m 0
 413.528320312 17.34765625 389.337890625 72.583984375 389.337890625 100.06640625 c 0
 389.337890625 104.276367188 389.905273438 107.8359375 391.180664062 110.5 c 0
 396.31640625 121.231445312 401.166992188 132.102539062 405.706054688 143.1171875 c 1
 404.397460938 143.1171875 403.133789062 143.139648438 401.922851562 143.139648438 c 0
 401.209960938 143.139648438 400.516601562 143.131835938 399.842773438 143.106445312 c 0
 361.469726562 141.659179688 327.235351562 135.525390625 301.85546875 112.845703125 c 0
 275.010742188 88.857421875 258.352539062 53.1435546875 258.352539062 13.2001953125 c 0
 258.352539062 7.3017578125 258.715820312 1.3125 259.462890625 -4.74609375 c 0
 271.423828125 -101.712890625 321.17578125 -121.55859375 345.995117188 -135.795898438 c 0
 361.518554688 -144.702148438 398.650390625 -159.150390625 422.461914062 -159.150390625 c 0
 428.533203125 -159.150390625 433.739257812 -158.209960938 437.5 -156 c 0
 454.284179688 -146.1328125 461.336914062 -133.009765625 462.202148438 -117.735351562 c 0
 462.29296875 -116.12890625 462.336914062 -114.499023438 462.336914062 -112.849609375 c 0
 462.336914062 -93.171875 456.069335938 -70.69921875 448.54296875 -50.875 c 0
 437.651367188 -22.18359375 424.125 0.9580078125 423.155273438 2.0439453125 c 0
EndSplineSet
EndChar

StartChar: NameMe262
Encoding: 262 -1 170
Width: 198
Flags: HW
LayerCount: 2
Fore
SplineSet
198 397 m 1048
198 397 m 0
 198.052734375 396.682617188 198.022460938 396.370117188 198 396 c 0
 198 396 198 28 198 28 c 0
 198 28 198 24 196 24 c 16
 190.0625 24 186.283203125 26.1591796875 181 26.8134765625 c 0
 180.0546875 26.9306640625 180 27 179 28 c 0
 178 29 178 30 178 30 c 0
 178 30 178 49 178 49 c 0
 178 49 178 51 177 52 c 24
 175 54 173.493164062 54.62890625 171 55.35546875 c 0
 146.961914062 62.3583984375 124.30859375 64 108 64 c 0
 86.080078125 64 59.4619140625 62.33203125 29 55.185546875 c 0
 26.109375 54.5078125 25 55 23 53 c 24
 21 51 21 47 21 47 c 0
 21 47 21 -44 21 -44 c 0
 21 -44 21 -50 24 -52 c 0
 27.720703125 -54.48046875 28.91015625 -53.9619140625 37 -53.068359375 c 0
 85.0009765625 -47.763671875 79.0546875 -45.37109375 103.510742188 -45.37109375 c 0
 131.329101562 -45.37109375 134.68359375 -45.466796875 172.63671875 -50.8955078125 c 0
 175.140625 -51.2529296875 175.940429688 -51.4794921875 177.000976562 -50.7275390625 c 0
 177.903320312 -50.087890625 178 -47.9091796875 178 -47.9091796875 c 0
 178 -47.9091796875 178 -26.703125 178 -26.703125 c 0
 178 -26.703125 178.131835938 -25.8349609375 178.567382812 -25.5419921875 c 0
 179 -25.2509765625 179.948242188 -25.4990234375 180.919921875 -25.6845703125 c 0
 186.297851562 -26.716796875 191.59375 -26.7119140625 196.348632812 -29.7841796875 c 0
 196.907226562 -30.14453125 197.424804688 -30.6142578125 197.689453125 -31.0009765625 c 0
 197.966796875 -31.40625 197.98828125 -31.6259765625 198.00390625 -32.5400390625 c 0
 198.198110287 -44.3853880967 198.357797727 -112.053934891 198.357797727 -196.144563753 c 0
 198.357797727 -261.743888256 198.260618309 -337.33703803 198.006835938 -404.21875 c 4
 198.004882812 -404.813476562 197.9375 -405.067382812 197.625 -405.28125 c 4
 197.328125 -405.484375 196.993164062 -405.217773438 196.450195312 -404.829101562 c 4
 191.888671875 -401.564453125 185.564453125 -398.498046875 179.700195312 -397.296875 c 4
 179.127929688 -397.1796875 178.622070312 -397.044921875 178.1875 -396.53125 c 4
 177.84375 -396.125 178 -394.599609375 178 -394.599609375 c 4
 178 -394.599609375 178 -215 178 -215 c 5
 155 -207 134 -207 116 -207 c 4
 94.625 -207 79.9970703125 -208.5859375 33 -215.997070312 c 4
 27.2275390625 -216.908203125 25 -218 23 -221 c 4
 20.2265625 -225.16015625 21 -231 21 -231 c 4
 21 -231 21 -581 21 -581 c 4
 21 -581 21 -585 20 -586 c 4
 19 -587 17.7080078125 -586.956054688 16 -586.118164062 c 4
 12.4521484375 -584.377929688 8.6376953125 -583.109375 4 -581.942382812 c 4
 2.732421875 -581.623046875 2 -581 1 -580 c 28
 0 -577 0 -572 0 -572 c 4
 0 -572 0 578 0 578 c 0
 0 578 0 579 1 579 c 16
 4.93359375 577.688476562 6.974609375 576.381835938 10 575.2578125 c 0
 11.58984375 574.66796875 13.4501953125 574.127929688 16 573.665039062 c 0
 17.4970703125 573.392578125 19 573 20 572 c 24
 21 571 21 569 21 569 c 0
 21 569 21 217 21 217 c 0
 21 217 21 213 22 212 c 0
 23 211 24.037109375 211.194335938 26 211.749023438 c 0
 46.501953125 217.54296875 70.578125 218.25 97.5 218.25 c 0
 124.342773438 218.25 153.572265625 217.559570312 173 212.553710938 c 0
 174.923828125 212.05859375 176.418945312 212.418945312 177 213 c 0
 178 214 178 217 178 217 c 0
 178 217 178 403 178 403 c 0
 178 403 178 404 179 404 c 0
 180 404 180.365234375 402.924804688 181 402.44921875 c 0
 183.827148438 400.33203125 185.049804688 400.014648438 187 399.163085938 c 0
 190.2421875 397.747070312 192.732421875 397.619140625 196 397.251953125 c 0
 196.633789062 397.180664062 197.956054688 397.265625 198 397 c 0
EndSplineSet
EndChar

StartChar: mensuralGclef2_orig
Encoding: 263 62983 171
Width: 571
Flags: HW
LayerCount: 2
Fore
SplineSet
496.296875 269.770507812 m 0
 498.615234375 304.924804688 501.400390625 375.556640625 501.400390625 421.625 c 0
 501.400390625 453.862304688 500.037109375 501.19140625 496.1953125 530 c 0
 486.693359375 601.22265625 452.43359375 645.915039062 392.9453125 645.915039062 c 0
 368.25390625 645.915039062 332.697265625 643.45703125 319.54296875 624.333007812 c 0
 305.27734375 603.596679688 305.091796875 574.034179688 305.091796875 564.974609375 c 0
 305.091796875 541.000976562 341.892578125 547.55078125 352.220703125 524 c 0
 354.42578125 518.974609375 355.42578125 513.6796875 355.42578125 508.369140625 c 0
 355.42578125 483.6796875 333.806640625 458.637695312 310.990234375 458.637695312 c 0
 283.294921875 458.637695312 260.8046875 476.211914062 260.8046875 553.849609375 c 0
 260.8046875 627.90234375 315.0625 662.380859375 389.74609375 662.380859375 c 0
 541.06640625 662.380859375 543.599609375 518.287109375 543.599609375 378.409179688 c 0
 543.599609375 373.561523438 543.59765625 368.71875 543.59765625 363.887695312 c 0
 543.59765625 304.526367188 541.763671875 234.221679688 535.62109375 193.37109375 c 0
 534.421875 185.396484375 527.775390625 183.045898438 521.95703125 183.045898438 c 0
 501.755859375 183.045898438 482.455078125 197.303710938 460.53125 205.37109375 c 0
 389.291015625 231.5859375 356.46484375 237.991210938 302.353515625 237.991210938 c 0
 174.521484375 237.991210938 70.328125 123.416992188 70.328125 24.810546875 c 0
 70.328125 2.107421875 73.765625 -21.4931640625 81.07421875 -45.4794921875 c 0
 118.96875 -169.658203125 215.6875 -210.483398438 317.92578125 -210.483398438 c 0
 386.361328125 -210.483398438 458.28515625 -178.921875 497.26171875 -132.778320312 c 0
 516.455078125 -110.053710938 525.541015625 -86.5830078125 525.541015625 -55.6953125 c 0
 525.541015625 -15.703125 510.3125 24.9873046875 482.08203125 50.4716796875 c 0
 444.806640625 84.1220703125 402.6328125 107.86328125 353.548828125 107.86328125 c 0
 257.1015625 107.86328125 192.564453125 69.3662109375 192.564453125 -12.2412109375 c 0
 192.564453125 -32.458984375 203.732421875 -45.19140625 211.7109375 -59 c 0
 212.38671875 -60.1669921875 212.69140625 -61.2412109375 212.69140625 -62.20703125 c 0
 212.69140625 -65.6767578125 208.740234375 -67.75 203.76171875 -67.75 c 0
 182.775390625 -67.75 168.3828125 -30.5478515625 164.875 -9.6787109375 c 0
 163.234375 0.07421875 162.423828125 9.490234375 162.423828125 18.5732421875 c 0
 162.423828125 45.3408203125 169.466796875 69.2197265625 183.09375 90.3212890625 c 0
 215.701171875 140.811523438 269.236328125 189.763671875 356.78125 189.763671875 c 0
 480.181640625 189.763671875 570.68359375 84.9931640625 570.68359375 -23.2734375 c 0
 570.68359375 -71.072265625 553.04296875 -112.552734375 512.8046875 -153 c 0
 477.95703125 -188.030273438 431.822265625 -213.314453125 386.375 -223.87890625 c 0
 360.47265625 -229.111328125 334.11328125 -231.712890625 307.90625 -231.712890625 c 0
 181.849609375 -231.712890625 74.384765625 -178.508789062 23.833984375 -61.279296875 c 0
 7.275390625 -23.0068359375 0 13.248046875 0 47.7666015625 c 0
 0 171.970703125 139.3984375 274.729492188 314.306640625 274.729492188 c 0
 386.421875 274.729492188 429.998046875 262.649414062 462.67578125 257.90234375 c 0
 471.521484375 256.6171875 478.62109375 254.982421875 483.982421875 254.982421875 c 0
 491.431640625 254.982421875 495.529296875 258.137695312 496.296875 269.770507812 c 0
EndSplineSet
EndChar

StartChar: mensuralNoteheadMaxBlack_smufl
Encoding: 264 59696 172
Width: 392
VWidth: 1365
Flags: HW
HStem: -340.109 36.8902 32.3914 188.05 305.918 31.4916
VStem: -6.03817 175.107 531.359 98.3358
LayerCount: 2
Fore
SplineSet
393.70703125 -88.734375 m 0
 393.70703125 -86.9345703125 393.770507812 -85.134765625 393.770507812 -82.53515625 c 0
 393.770507812 -47.8609322113 392.298663336 -17.6842863723 392.298663336 14.3110430114 c 4
 392.298663336 38.6503762201 392.481445312 59.0593407718 392.481445312 84.8173828125 c 0
 392.481445312 92.9150390625 389.900390625 94.09375 375.228515625 94.9130859375 c 0
 321.307617188 97.923828125 253.603515625 96.521484375 203.573242188 97.4208984375 c 0
 193.221679688 97.4208984375 183.733398438 97.4208984375 173.381835938 97.4208984375 c 0
 111.274414062 97.4208984375 50.03125 97.267578125 11.2138671875 95.4677734375 c 0
 5.17578125 95.4677734375 -1.7255859375 94.41796875 -1.7255859375 89.9189453125 c 0
 -1.7255859375 89.01953125 -1.7255859375 89.01953125 -1.7255859375 88.1201171875 c 0
 -0.86328125 61.1259765625 0 29.18359375 0 4.8896484375 c 0
 0 -24.802734375 -1.7255859375 -54.1728515625 -1.7255859375 -82.0654296875 c 0
 -1.7255859375 -91.0625 2.587890625 -93.7626953125 10.3505859375 -93.7626953125 c 0
 65.9697265625 -93.7626953125 101.274414062 -93.3798828125 147.450195312 -93.3798828125 c 0
 154.3515625 -93.3798828125 184.594726562 -93.5458984375 190.633789062 -93.5458984375 c 0
 238.939453125 -94.4453125 307.947265625 -93.083984375 351.076171875 -95.783203125 c 0
 358.83984375 -96.6826171875 369.19140625 -96.83203125 377.817382812 -96.83203125 c 0
 386.442382812 -96.83203125 392.84375 -95.033203125 393.70703125 -88.734375 c 0
EndSplineSet
EndChar

StartChar: medRenFlatSoftB_smufl
Encoding: 265 59872 173
Width: 100
VWidth: 1100
Flags: HW
LayerCount: 2
Fore
SplineSet
36.5576171875 44.8779296875 m 0
 34.9111328125 45.427734375 32.5537109375 45.8916015625 32.09375 46.66015625 c 0
 31.7080078125 47.3037109375 31.6826171875 51.0751953125 31.6826171875 52.07421875 c 0
 31.6826171875 52.31640625 31.6826171875 85.7001953125 31.6826171875 85.7001953125 c 0
 31.6826171875 85.7001953125 31.583984375 87.263671875 31.583984375 88.5673828125 c 0
 31.583984375 89.21875 31.6083984375 89.8056640625 31.6826171875 90.099609375 c 0
 32.0756036372 91.6501039482 32.6992890162 93.5127206024 34.2743908829 93.5127206024 c 0
 34.4919434994 93.5127206024 34.7276463406 93.4771873622 34.9833984375 93.400390625 c 0
 52.109375 88.26171875 67.4443359375 79.6513671875 88.0009765625 58.8984375 c 0
 93.8505859375 52.9921875 97.548828125 47.064453125 97.79296875 41.458984375 c 0
 99.005859375 26.5 99.4755859375 11.689453125 99.4755859375 -2.9169921875 c 0
 99.4755859375 -24.0498046875 98.4921875 -44.7578125 97.3525390625 -64.8740234375 c 0
 97.1357421875 -68.6845703125 96.97265625 -73.73828125 96.0908203125 -75.37890625 c 0
 93.173828125 -80.80859375 80.7138671875 -88.2666015625 74.5830078125 -89.5 c 0
 73.6982421875 -89.6787109375 71.9912109375 -89.759765625 71.3427734375 -89.759765625 c 0
 69.7255859375 -89.759765625 69.4736328125 -89.2578125 66.734375 -88.5146484375 c 0
 44.5771484375 -82.5087890625 23.5498046875 -70.990234375 6.224609375 -65.1552734375 c 0
 4.3369140625 -64.51953125 3.646484375 -64.330078125 3.046875 -63.421875 c 0
 2.166015625 -62.0859375 2.1142578125 -59.912109375 2.0771484375 -59.0927734375 c 0
 1.205078125 -40.0244140625 0.5224609375 -20.28125 -0 0 c 0
 -1.080078125 41.8896484375 -1.4814453125 86.0703125 -1.4814453125 131.319335938 c 0
 -1.4814453125 186.827148438 -1.91804298182 190.455292639 -2.4169921875 248.9375 c 0
 -2.47994780711 256.316574981 -4.4853515625 259.529296875 -5.0419921875 266.125 c 0
 -5.11201025949 266.95592644 -5.17385779713 267.677878643 -5.17385779713 268.317182354 c 0
 -5.17385779713 270.433094314 -4.49636738968 271.643658007 -1.1953125 272.903320312 c 0
 -0.814722166672 273.04855125 -0.396727267873 273.111028736 0.0437212782215 273.111028736 c 0
 1.53449403183 273.111028736 3.28249548867 272.39528744 4.7080078125 271.75 c 0
 8.2890625 270.127929688 12.3681640625 265.97265625 12.3681640625 262.432617188 c 0
 12.3681640625 260.893957843 12.9867884641 253.300332335 12.9833984375 251.43359375 c 0
 11.3642578125 216.508789062 10.8193359375 180.063476562 10.8193359375 144.512695312 c 0
 10.8193359375 82.251953125 12.48828125 27.984375 12.9716796875 -15.8173828125 c 0
 12.994140625 -17.8720703125 13.0283203125 -21.45703125 13.3955078125 -23.1748046875 c 0
 15.00390625 -30.7021484375 20.458984375 -35.0517578125 26.291015625 -37.40625 c 0
 35.3251953125 -41.0537109375 57.2392578125 -49.3984375 72.6796875 -49.3984375 c 0
 81.7265625 -49.3984375 86.8200015168 -46.2006265491 89.2587890625 -38.1787109375 c 0
 91.0849609375 -32.171875 91.1611328125 -26.6640625 91.1611328125 -15.9384765625 c 0
 91.1611328125 -5.0634765625 91.0107421875 0.798828125 87.466796875 12.6591796875 c 0
 82.83203125 28.1630859375 61.4736328125 36.55859375 36.5576171875 44.8779296875 c 0
EndSplineSet
EndChar

StartChar: medRenNatural_smufl
Encoding: 266 59874 174
Width: 159
VWidth: 1050
Flags: HW
LayerCount: 2
Fore
SplineSet
21.2998046875 196.30078125 m 0
 24.5966796875 196.30078125 23.4091796875 193.625976562 24.3974609375 192.18359375 c 2
 24.3974609375 192.18359375 24.3974609375 74.6201171875 24.3974609375 74.6201171875 c 1
 24.3974609375 74.6201171875 24.318359375 74.3623046875 24.318359375 73.9658203125 c 0
 24.318359375 72.6513671875 25.8173828125 70.73828125 27.205078125 70.73828125 c 0
 45.4599609375 70.73828125 67.4375 76.599609375 87.3349609375 81.0908203125 c 0
 108.231445312 85.8076171875 129.662109375 91.498046875 147.165039062 97.3828125 c 0
 148.70703125 97.9013671875 150.4140625 98.185546875 152.049804688 98.185546875 c 0
 155.923828125 98.185546875 159.40625 96.595703125 159.40625 92.771484375 c 2
 159.40625 92.771484375 159.40625 -166.661132812 159.40625 -166.661132812 c 1
 159.40625 -166.661132812 159.5 -167.639648438 159.5 -168.594726562 c 0
 159.5 -173.952148438 146.163085938 -176.017578125 141.453125 -176.017578125 c 4
 139.69921875 -176.017578125 137.635742188 -173.793945312 137.635742188 -169.931640625 c 6
 137.635742188 -169.931640625 137.635742188 -55.2294921875 137.635742188 -55.2294921875 c 2
 137.59375 -54.90625 136.413085938 -53.751953125 135.12890625 -53.751953125 c 0
 134.588867188 -53.751953125 134.0390625 -53.92578125 133.130859375 -54.2724609375 c 0
 99.10546875 -67.3037109375 47.576171875 -79.38671875 9.59765625 -84.9267578125 c 0
 9.0419921875 -85.0078125 8.505859375 -85.048828125 7.9951171875 -85.048828125 c 0
 6.2705078125 -85.048828125 4.818359375 -84.591796875 3.705078125 -83.7138671875 c 0
 2.1328125 -82.474609375 1.2373046875 -80.396484375 1.2119140625 -77.583984375 c 2
 1.2119140625 -77.583984375 -0.001953125 52.849609375 -0.001953125 52.849609375 c 1
 -0.001953125 52.849609375 1.2490234375 187.495117188 1.2490234375 187.495117188 c 2
 1.8427734375 195.53515625 13.07421875 196.30078125 21.2998046875 196.30078125 c 0
131.670898438 6.173828125 m 0
 131.670898438 24.0986328125 131.923828125 35.177734375 131.923828125 45.1826171875 c 0
 131.923828125 53.9267578125 124.505859375 59.04296875 115.60546875 59.04296875 c 0
 113.137695312 59.04296875 110.555664062 58.6494140625 107.986328125 57.8310546875 c 0
 77.029296875 47.9658203125 65.0673828125 48.4072265625 37.8740234375 45.5439453125 c 0
 31.5068359375 44.873046875 28.01953125 39.96484375 28.01953125 34.283203125 c 2
 28.01953125 34.283203125 28.01953125 -34.220703125 28.01953125 -34.220703125 c 2
 28.01953125 -43.0341796875 34.3623046875 -47.3046875 40.9892578125 -47.6005859375 c 0
 44.2802734375 -47.7470703125 47.3203125 -47.8193359375 50.185546875 -47.8193359375 c 0
 61.62890625 -47.8193359375 70.279296875 -46.671875 80.95703125 -44.5625 c 0
 94.701171875 -41.84765625 107.811523438 -37.3173828125 122.3515625 -30.916015625 c 0
 128.271484375 -28.310546875 131.930664062 -22.5810546875 131.930664062 -16.4697265625 c 0
 131.930664062 -7.548828125 131.670898438 -2.8740234375 131.670898438 6.173828125 c 0
EndSplineSet
EndChar

StartChar: mensuralBlackMaxima_smufl
Encoding: 267 59728 175
Width: 390
VWidth: 1365
Flags: HW
HStem: -340.109 36.8902 32.3914 188.05 305.918 31.4916
VStem: -6.174 179.046 543.312 100.548
LayerCount: 2
Fore
SplineSet
380.858398438 -591.60546875 m 0
 373.669921875 -591.60546875 370.141601562 -587.106445312 370.141601562 -579.908203125 c 0
 370.141601562 -569.15838899 373.500976562 -557.223632812 374.296875 -538 c 0
 377.170898438 -468.622070312 378.711914062 -338.375 378.711914062 -239.788085938 c 0
 378.711914062 -179.504882812 377.830078125 -147.215820312 375.18359375 -126.520507812 c 0
 373.419921875 -116.624023438 374.627929688 -107.776367188 362.280273438 -105.9765625 c 0
 318.1796875 -100.578125 246.564453125 -101.256835938 197.171875 -100.356445312 c 0
 190.998046875 -100.356445312 184.82421875 -100.356445312 177.767578125 -100.356445312 c 0
 131.022460938 -100.356445312 68.796875 -100.427734375 12.34765625 -102.227539062 c 0
 10.583984375 -102.227539062 l 0
 2.646484375 -102.227539062 -1.763671875 -99.5283203125 -1.763671875 -90.5302734375 c 0
 -1.763671875 -62.638671875 0 -24.7451171875 0 4.9462890625 c 0
 0 29.2392578125 -0.8828125 65.5322265625 -1.763671875 92.5244140625 c 0
 -1.763671875 93.4248046875 -1.763671875 92.5244140625 -1.763671875 93.4248046875 c 0
 -1.763671875 99.72265625 6.173828125 100.623046875 13.23046875 100.623046875 c 0
 18.5224609375 100.623046875 24.6962890625 98.8232421875 42.3359375 98.8232421875 c 0
 91.7275390625 98.8232421875 125.73046875 100.944335938 173.358398438 100.944335938 c 0
 243.036132812 100.944335938 298.727539062 100.701171875 370.169921875 95.380859375 c 0
 385.105209822 94.2690610023 390.310546875 94.1396484375 390.310546875 86.783203125 c 4
 390.310546875 39.0181750833 389.939773023 -40.5114319849 389.939773023 -117.919402765 c 0
 389.939773023 -184.868183723 390.074929715 -251.538980143 390.456054688 -298.2734375 c 0
 390.70867277 -329.250071889 390.817815878 -366.921614107 390.817815878 -404.707802738 c 0
 390.817815878 -479.105355275 390.394711576 -553.947346225 389.810546875 -579.008789062 c 0
 389.810546875 -589.805664062 387.796875 -591.60546875 380.858398438 -591.60546875 c 0
EndSplineSet
EndChar

